STARTFONT 2.1
COMMENT ========================================================== 
COMMENT                Wen Quan Yi Bitmap Song 
COMMENT ----------------------------------------------------------
COMMENT Summary:
COMMENT 
COMMENT     	Developer: The WenQuanYi Project Contributors
COMMENT     	Webpage  : http://wqy.sourceforge.net/en/
COMMENT     	Font Name: WenQuanYi Bitmap Song
COMMENT     	Version  : 0.7 (Dou)
COMMENT     	Release  : 4
COMMENT     	Copyright: (C)2004-2006, The WenQuanYi Project 
COMMENT     		   Board of Trustees and Qianqian Fang
COMMENT     	License  : GPL v2.0 (with font embedding exception)
COMMENT 
COMMENT           May the Font be with you, forever!
COMMENT ----------------------------------------------------------
COMMENT The Wen Quan Yi bitmap font includes complete CJK Unified 
COMMENT Ideograph (U4E00 - U9FA5) glyphs at four different sizes 
COMMENT (9pt-12X12 pixel, 10pt-13X13 pixel, 11pt-15X15 pixel, 
COMMENT 12pt-16x16 pixel) and two weights (medium and bold). 
COMMENT Use of this bitmap font for on-screen display of Chinese 
COMMENT (traditional and simplified) in web pages and elsewhere 
COMMENT eliminates the annoying "blurring" problems caused by 
COMMENT the high stroke density of many Chinese characters and 
COMMENT insufficient "hinting" of anti-aliased Chinese fonts. 
COMMENT For the 12pt font, Hangul glyphs (U+AC00~U+D7A3) from 
COMMENT	GNU Unifont (Roman Czyborra/David Starner et al.) were 
COMMENT	used for bold face while those from Hanterm 3.x were used 
COMMENT for the medium face.
COMMENT ----------------------------------------------------------
COMMENT Project starting date       2004/10/26
COMMENT CJK Basic completed on      2005/4/10
COMMENT Sourceforge registration    2005/1/7
COMMENT CJK Basic character total   20902
COMMENT Total glyphs from firefly   15832 X 4 sizes
COMMENT New glyphs                  15210
COMMENT Improved glyph number       > 50,000
COMMENT Partitions (101 char each)  207

STARTCHAR nounicode-3-1-c
ENCODING 12
SWIDTH 333 0
DWIDTH 8 0
BBX 1 1 0 0
BITMAP
00
ENDCHAR
STARTCHAR nounicode-3-1-d
ENCODING 13
SWIDTH 333 0
DWIDTH 5 0
BBX 1 1 4 -2
BITMAP
00
ENDCHAR
STARTCHAR space
ENCODING 32
SWIDTH 500 0
DWIDTH 8 0
BBX 1 1 0 0
BITMAP
00
ENDCHAR
STARTCHAR exclam
ENCODING 33
SWIDTH 500 0
DWIDTH 8 0
BBX 1 13 3 -1
BITMAP
80
80
80
80
80
80
80
80
80
00
00
80
80
ENDCHAR
STARTCHAR quotedbl
ENCODING 34
SWIDTH 583 0
DWIDTH 8 0
BBX 4 3 2 9
BITMAP
90
90
90
ENDCHAR
STARTCHAR numbersign
ENCODING 35
SWIDTH 500 0
DWIDTH 9 0
BBX 8 12 0 -1
BITMAP
12
12
12
7F
24
24
24
24
FE
48
48
48
ENDCHAR
STARTCHAR dollar
ENCODING 36
SWIDTH 500 0
DWIDTH 8 0
BBX 7 13 0 -1
BITMAP
10
38
54
92
90
50
38
14
12
92
54
38
10
ENDCHAR
STARTCHAR percent
ENCODING 37
SWIDTH 500 0
DWIDTH 8 0
BBX 7 11 0 0
BITMAP
62
94
94
98
68
10
2C
32
52
52
8C
ENDCHAR
STARTCHAR ampersand
ENCODING 38
SWIDTH 416 0
DWIDTH 8 0
BBX 7 12 0 0
BITMAP
30
48
48
50
20
24
54
54
88
88
94
62
ENDCHAR
STARTCHAR quotesingle
ENCODING 39
SWIDTH 500 0
DWIDTH 8 0
BBX 2 3 3 9
BITMAP
C0
40
80
ENDCHAR
STARTCHAR parenleft
ENCODING 40
SWIDTH 500 0
DWIDTH 8 0
BBX 3 12 2 0
BITMAP
20
40
40
80
80
80
80
80
80
40
40
20
ENDCHAR
STARTCHAR parenright
ENCODING 41
SWIDTH 500 0
DWIDTH 8 0
BBX 3 12 3 0
BITMAP
80
40
40
20
20
20
20
20
20
40
40
80
ENDCHAR
STARTCHAR asterisk
ENCODING 42
SWIDTH 666 0
DWIDTH 8 0
BBX 7 9 0 1
BITMAP
10
92
54
38
FE
38
54
92
10
ENDCHAR
STARTCHAR plus
ENCODING 43
SWIDTH 500 0
DWIDTH 10 0
BBX 9 9 0 1
BITMAP
0800
0800
0800
0800
FF80
0800
0800
0800
0800
ENDCHAR
STARTCHAR comma
ENCODING 44
SWIDTH 500 0
DWIDTH 8 0
BBX 2 4 2 -2
BITMAP
C0
C0
40
80
ENDCHAR
STARTCHAR hyphen
ENCODING 45
SWIDTH 416 0
DWIDTH 8 0
BBX 7 1 0 5
BITMAP
FE
ENDCHAR
STARTCHAR period
ENCODING 46
SWIDTH 500 0
DWIDTH 8 0
BBX 2 2 2 -1
BITMAP
C0
C0
ENDCHAR
STARTCHAR slash
ENCODING 47
SWIDTH 636 0
DWIDTH 8 0
BBX 6 12 1 0
BITMAP
04
04
08
08
10
10
20
20
40
40
80
80
ENDCHAR
STARTCHAR zero
ENCODING 48
SWIDTH 636 0
DWIDTH 8 0
BBX 7 11 0 0
BITMAP
38
44
82
82
82
82
82
82
82
44
38
ENDCHAR
STARTCHAR one
ENCODING 49
SWIDTH 636 0
DWIDTH 6 0
BBX 5 11 0 0
BITMAP
20
E0
20
20
20
20
20
20
20
20
F8
ENDCHAR
STARTCHAR two
ENCODING 50
SWIDTH 636 0
DWIDTH 8 0
BBX 7 11 0 0
BITMAP
38
44
82
02
04
08
10
20
40
80
FE
ENDCHAR
STARTCHAR three
ENCODING 51
SWIDTH 636 0
DWIDTH 8 0
BBX 7 11 0 0
BITMAP
78
84
02
02
04
38
04
02
02
84
78
ENDCHAR
STARTCHAR four
ENCODING 52
SWIDTH 636 0
DWIDTH 8 0
BBX 7 11 0 0
BITMAP
04
0C
14
24
44
44
84
FE
04
04
04
ENDCHAR
STARTCHAR five
ENCODING 53
SWIDTH 636 0
DWIDTH 8 0
BBX 7 11 0 0
BITMAP
FC
80
80
80
B8
C4
02
02
02
84
78
ENDCHAR
STARTCHAR six
ENCODING 54
SWIDTH 636 0
DWIDTH 8 0
BBX 7 11 0 0
BITMAP
38
44
80
80
B8
C4
82
82
82
44
38
ENDCHAR
STARTCHAR seven
ENCODING 55
SWIDTH 636 0
DWIDTH 8 0
BBX 7 11 0 0
BITMAP
FE
02
04
04
08
08
10
10
20
20
20
ENDCHAR
STARTCHAR eight
ENCODING 56
SWIDTH 636 0
DWIDTH 8 0
BBX 7 11 0 0
BITMAP
38
44
82
82
44
38
44
82
82
44
38
ENDCHAR
STARTCHAR nine
ENCODING 57
SWIDTH 500 0
DWIDTH 8 0
BBX 7 11 0 0
BITMAP
38
44
82
82
82
46
3A
02
02
04
78
ENDCHAR
STARTCHAR colon
ENCODING 58
SWIDTH 500 0
DWIDTH 8 0
BBX 2 7 3 1
BITMAP
C0
C0
00
00
00
C0
C0
ENDCHAR
STARTCHAR semicolon
ENCODING 59
SWIDTH 500 0
DWIDTH 8 0
BBX 2 9 3 -1
BITMAP
C0
C0
00
00
00
C0
C0
40
80
ENDCHAR
STARTCHAR less
ENCODING 60
SWIDTH 500 0
DWIDTH 8 0
BBX 7 13 0 -1
BITMAP
02
04
08
10
20
40
80
40
20
10
08
04
02
ENDCHAR
STARTCHAR equal
ENCODING 61
SWIDTH 500 0
DWIDTH 8 0
BBX 7 4 0 3
BITMAP
FE
00
00
FE
ENDCHAR
STARTCHAR greater
ENCODING 62
SWIDTH 500 0
DWIDTH 8 0
BBX 7 13 0 -1
BITMAP
80
40
20
10
08
04
02
04
08
10
20
40
80
ENDCHAR
STARTCHAR question
ENCODING 63
SWIDTH 666 0
DWIDTH 8 0
BBX 6 12 1 -1
BITMAP
78
84
84
04
08
10
10
10
00
00
10
10
ENDCHAR
STARTCHAR at
ENCODING 64
SWIDTH 684 0
DWIDTH 8 0
BBX 7 11 0 0
BITMAP
38
44
B2
8A
9A
AA
AA
AA
96
44
38
ENDCHAR
STARTCHAR A
ENCODING 65
SWIDTH 686 0
DWIDTH 10 0
BBX 9 11 0 0
BITMAP
0800
0800
1400
1400
2200
2200
2200
7F00
4100
8080
8080
ENDCHAR
STARTCHAR B
ENCODING 66
SWIDTH 666 0
DWIDTH 8 0
BBX 7 11 0 0
BITMAP
F8
84
82
82
84
F8
84
82
82
84
F8
ENDCHAR
STARTCHAR C
ENCODING 67
SWIDTH 750 0
DWIDTH 9 0
BBX 8 11 0 0
BITMAP
3E
41
80
80
80
80
80
80
80
41
3E
ENDCHAR
STARTCHAR D
ENCODING 68
SWIDTH 583 0
DWIDTH 10 0
BBX 9 11 0 0
BITMAP
FC00
8200
8100
8080
8080
8080
8080
8080
8100
8200
FC00
ENDCHAR
STARTCHAR E
ENCODING 69
SWIDTH 583 0
DWIDTH 8 0
BBX 7 11 0 0
BITMAP
FE
80
80
80
80
FE
80
80
80
80
FE
ENDCHAR
STARTCHAR F
ENCODING 70
SWIDTH 666 0
DWIDTH 7 0
BBX 6 11 0 0
BITMAP
FC
80
80
80
80
FC
80
80
80
80
80
ENDCHAR
STARTCHAR G
ENCODING 71
SWIDTH 583 0
DWIDTH 9 0
BBX 8 11 0 0
BITMAP
3C
42
81
80
80
87
81
81
81
42
3C
ENDCHAR
STARTCHAR H
ENCODING 72
SWIDTH 333 0
DWIDTH 9 0
BBX 8 11 0 0
BITMAP
81
81
81
81
81
FF
81
81
81
81
81
ENDCHAR
STARTCHAR I
ENCODING 73
SWIDTH 294 0
DWIDTH 4 0
BBX 3 11 0 0
BITMAP
E0
40
40
40
40
40
40
40
40
40
E0
ENDCHAR
STARTCHAR J
ENCODING 74
SWIDTH 500 0
DWIDTH 4 0
BBX 4 14 -1 -3
BITMAP
10
10
10
10
10
10
10
10
10
10
10
10
20
C0
ENDCHAR
STARTCHAR K
ENCODING 75
SWIDTH 557 0
DWIDTH 8 0
BBX 7 11 0 0
BITMAP
82
84
88
90
A0
C0
A0
90
88
84
82
ENDCHAR
STARTCHAR L
ENCODING 76
SWIDTH 666 0
DWIDTH 8 0
BBX 7 11 0 0
BITMAP
80
80
80
80
80
80
80
80
80
80
FE
ENDCHAR
STARTCHAR M
ENCODING 77
SWIDTH 583 0
DWIDTH 10 0
BBX 9 11 0 0
BITMAP
C180
C180
A280
A280
9480
9480
8880
8880
8080
8080
8080
ENDCHAR
STARTCHAR N
ENCODING 78
SWIDTH 666 0
DWIDTH 9 0
BBX 8 11 0 0
BITMAP
C1
C1
A1
A1
91
91
89
89
85
83
83
ENDCHAR
STARTCHAR O
ENCODING 79
SWIDTH 500 0
DWIDTH 10 0
BBX 9 11 0 0
BITMAP
1C00
2200
4100
8080
8080
8080
8080
8080
4100
2200
1C00
ENDCHAR
STARTCHAR P
ENCODING 80
SWIDTH 666 0
DWIDTH 8 0
BBX 7 11 0 0
BITMAP
F8
84
82
82
82
84
F8
80
80
80
80
ENDCHAR
STARTCHAR Q
ENCODING 81
SWIDTH 500 0
DWIDTH 10 0
BBX 9 13 0 -2
BITMAP
1C00
2200
4100
8080
8080
8080
8080
8080
4100
2200
1C00
0200
0100
ENDCHAR
STARTCHAR R
ENCODING 82
SWIDTH 500 0
DWIDTH 9 0
BBX 8 11 0 0
BITMAP
F8
84
82
82
82
84
F8
88
84
82
81
ENDCHAR
STARTCHAR S
ENCODING 83
SWIDTH 610 0
DWIDTH 8 0
BBX 7 11 0 0
BITMAP
38
44
80
80
40
38
04
02
02
84
78
ENDCHAR
STARTCHAR T
ENCODING 84
SWIDTH 583 0
DWIDTH 10 0
BBX 9 11 0 0
BITMAP
FF80
0800
0800
0800
0800
0800
0800
0800
0800
0800
0800
ENDCHAR
STARTCHAR U
ENCODING 85
SWIDTH 666 0
DWIDTH 9 0
BBX 8 11 0 0
BITMAP
81
81
81
81
81
81
81
81
81
42
3C
ENDCHAR
STARTCHAR V
ENCODING 86
SWIDTH 833 0
DWIDTH 10 0
BBX 9 11 0 0
BITMAP
8080
8080
8080
4100
4100
2200
2200
1400
1400
0800
0800
ENDCHAR
STARTCHAR W
ENCODING 87
SWIDTH 583 0
DWIDTH 12 0
BBX 11 11 0 0
BITMAP
8420
8420
8420
8420
4A40
4A40
5140
5140
2080
2080
2080
ENDCHAR
STARTCHAR X
ENCODING 88
SWIDTH 666 0
DWIDTH 9 0
BBX 8 11 0 0
BITMAP
81
81
42
24
18
18
24
42
42
81
81
ENDCHAR
STARTCHAR Y
ENCODING 89
SWIDTH 666 0
DWIDTH 8 0
BBX 7 11 0 0
BITMAP
82
82
44
44
28
28
10
10
10
10
10
ENDCHAR
STARTCHAR Z
ENCODING 90
SWIDTH 500 0
DWIDTH 9 0
BBX 8 11 0 0
BITMAP
FF
01
02
04
08
10
20
40
80
80
FF
ENDCHAR
STARTCHAR bracketleft
ENCODING 91
SWIDTH 500 0
DWIDTH 8 0
BBX 3 12 3 0
BITMAP
E0
80
80
80
80
80
80
80
80
80
80
E0
ENDCHAR
STARTCHAR backslash
ENCODING 92
SWIDTH 500 0
DWIDTH 8 0
BBX 7 12 0 0
BITMAP
80
40
40
20
20
10
10
08
08
04
04
02
ENDCHAR
STARTCHAR bracketright
ENCODING 93
SWIDTH 500 0
DWIDTH 8 0
BBX 3 12 2 0
BITMAP
E0
20
20
20
20
20
20
20
20
20
20
E0
ENDCHAR
STARTCHAR asciicircum
ENCODING 94
SWIDTH 500 0
DWIDTH 8 0
BBX 7 4 0 9
BITMAP
10
28
44
82
ENDCHAR
STARTCHAR underscore
ENCODING 95
SWIDTH 500 0
DWIDTH 8 0
BBX 7 1 0 -2
BITMAP
FE
ENDCHAR
STARTCHAR grave
ENCODING 96
SWIDTH 500 0
DWIDTH 8 0
BBX 3 3 2 8
BITMAP
80
40
20
ENDCHAR
STARTCHAR a
ENCODING 97
SWIDTH 500 0
DWIDTH 7 0
BBX 6 8 0 0
BITMAP
78
84
04
7C
84
84
8C
74
ENDCHAR
STARTCHAR b
ENCODING 98
SWIDTH 416 0
DWIDTH 8 0
BBX 7 11 0 0
BITMAP
80
80
80
B8
C4
82
82
82
82
C4
B8
ENDCHAR
STARTCHAR c
ENCODING 99
SWIDTH 500 0
DWIDTH 7 0
BBX 6 8 0 0
BITMAP
38
44
80
80
80
80
44
38
ENDCHAR
STARTCHAR d
ENCODING 100
SWIDTH 500 0
DWIDTH 8 0
BBX 7 11 0 0
BITMAP
02
02
02
3A
46
82
82
82
82
46
3A
ENDCHAR
STARTCHAR e
ENCODING 101
SWIDTH 416 0
DWIDTH 8 0
BBX 7 8 0 0
BITMAP
38
44
82
FE
80
80
42
3C
ENDCHAR
STARTCHAR f
ENCODING 102
SWIDTH 500 0
DWIDTH 6 0
BBX 5 11 0 0
BITMAP
18
20
20
F8
20
20
20
20
20
20
20
ENDCHAR
STARTCHAR g
ENCODING 103
SWIDTH 500 0
DWIDTH 8 0
BBX 7 11 0 -3
BITMAP
3A
46
82
82
82
82
46
3A
02
04
78
ENDCHAR
STARTCHAR h
ENCODING 104
SWIDTH 166 0
DWIDTH 8 0
BBX 7 11 0 0
BITMAP
80
80
80
BC
C2
82
82
82
82
82
82
ENDCHAR
STARTCHAR i
ENCODING 105
SWIDTH 277 0
DWIDTH 3 0
BBX 1 11 1 0
BITMAP
80
80
00
80
80
80
80
80
80
80
80
ENDCHAR
STARTCHAR j
ENCODING 106
SWIDTH 416 0
DWIDTH 3 0
BBX 3 14 -1 -3
BITMAP
20
20
00
20
20
20
20
20
20
20
20
20
20
C0
ENDCHAR
STARTCHAR k
ENCODING 107
SWIDTH 166 0
DWIDTH 7 0
BBX 6 11 0 0
BITMAP
80
80
84
88
90
A0
C0
A0
90
88
84
ENDCHAR
STARTCHAR l
ENCODING 108
SWIDTH 833 0
DWIDTH 3 0
BBX 1 11 1 0
BITMAP
80
80
80
80
80
80
80
80
80
80
80
ENDCHAR
STARTCHAR m
ENCODING 109
SWIDTH 500 0
DWIDTH 12 0
BBX 11 8 0 0
BITMAP
B9C0
C620
8420
8420
8420
8420
8420
8420
ENDCHAR
STARTCHAR n
ENCODING 110
SWIDTH 500 0
DWIDTH 8 0
BBX 7 8 0 0
BITMAP
BC
C2
82
82
82
82
82
82
ENDCHAR
STARTCHAR o
ENCODING 111
SWIDTH 500 0
DWIDTH 8 0
BBX 7 8 0 0
BITMAP
38
44
82
82
82
82
44
38
ENDCHAR
STARTCHAR p
ENCODING 112
SWIDTH 500 0
DWIDTH 8 0
BBX 7 11 0 -3
BITMAP
B8
C4
82
82
82
82
C4
B8
80
80
80
ENDCHAR
STARTCHAR q
ENCODING 113
SWIDTH 333 0
DWIDTH 8 0
BBX 7 11 0 -3
BITMAP
3A
46
82
82
82
82
46
3A
02
02
02
ENDCHAR
STARTCHAR r
ENCODING 114
SWIDTH 520 0
DWIDTH 6 0
BBX 5 8 0 0
BITMAP
B8
C0
80
80
80
80
80
80
ENDCHAR
STARTCHAR s
ENCODING 115
SWIDTH 416 0
DWIDTH 7 0
BBX 6 8 0 0
BITMAP
78
84
80
60
18
04
84
78
ENDCHAR
STARTCHAR t
ENCODING 116
SWIDTH 500 0
DWIDTH 6 0
BBX 5 10 0 0
BITMAP
40
40
F8
40
40
40
40
40
40
38
ENDCHAR
STARTCHAR u
ENCODING 117
SWIDTH 500 0
DWIDTH 8 0
BBX 7 8 0 0
BITMAP
82
82
82
82
82
82
46
3A
ENDCHAR
STARTCHAR v
ENCODING 118
SWIDTH 666 0
DWIDTH 7 0
BBX 6 8 0 0
BITMAP
84
84
84
48
48
48
30
30
ENDCHAR
STARTCHAR w
ENCODING 119
SWIDTH 500 0
DWIDTH 10 0
BBX 9 8 0 0
BITMAP
8880
8880
8880
5500
5500
5500
2200
2200
ENDCHAR
STARTCHAR x
ENCODING 120
SWIDTH 500 0
DWIDTH 7 0
BBX 6 8 0 0
BITMAP
84
84
48
30
30
48
84
84
ENDCHAR
STARTCHAR y
ENCODING 121
SWIDTH 500 0
DWIDTH 7 0
BBX 6 11 0 -3
BITMAP
84
84
44
48
28
28
10
10
10
20
C0
ENDCHAR
STARTCHAR z
ENCODING 122
SWIDTH 500 0
DWIDTH 7 0
BBX 6 8 0 0
BITMAP
FC
04
08
10
20
40
80
FC
ENDCHAR
STARTCHAR braceleft
ENCODING 123
SWIDTH 416 0
DWIDTH 8 0
BBX 3 13 1 -1
BITMAP
20
40
40
40
40
40
80
80
40
40
40
40
20
ENDCHAR
STARTCHAR bar
ENCODING 124
SWIDTH 500 0
DWIDTH 8 0
BBX 1 14 3 -2
BITMAP
80
80
80
80
80
80
80
80
80
80
80
80
80
80
ENDCHAR
STARTCHAR braceright
ENCODING 125
SWIDTH 500 0
DWIDTH 8 0
BBX 3 13 2 -1
BITMAP
80
40
40
40
40
40
20
40
40
40
40
40
80
ENDCHAR
STARTCHAR asciitilde
ENCODING 126
SWIDTH 500 0
DWIDTH 8 0
BBX 7 3 0 5
BITMAP
60
92
0C
ENDCHAR
STARTCHAR nounicode-3-1-80
ENCODING 128
SWIDTH 636 0
DWIDTH 8 0
BBX 7 11 0 0
BITMAP
1C
22
40
40
F8
40
F8
40
40
22
1C
ENDCHAR
STARTCHAR exclamdown
ENCODING 161
SWIDTH 500 0
DWIDTH 8 0
BBX 1 10 3 -1
BITMAP
80
80
00
80
80
80
80
80
80
80
ENDCHAR
STARTCHAR cent
ENCODING 162
SWIDTH 500 0
DWIDTH 8 0
BBX 6 12 1 -2
BITMAP
10
10
38
54
90
90
90
90
54
38
10
10
ENDCHAR
STARTCHAR sterling
ENCODING 163
SWIDTH 500 0
DWIDTH 7 0
BBX 6 10 0 -1
BITMAP
18
24
28
20
F8
20
20
40
A4
58
ENDCHAR
STARTCHAR currency
ENCODING 164
SWIDTH 500 0
DWIDTH 8 0
BBX 6 6 0 1
BITMAP
B4
48
84
84
48
F4
ENDCHAR
STARTCHAR section
ENCODING 167
SWIDTH 500 0
DWIDTH 8 0
BBX 4 13 2 -2
BITMAP
60
90
90
40
60
90
90
90
60
20
90
90
60
ENDCHAR
STARTCHAR dieresis
ENCODING 168
SWIDTH 500 0
DWIDTH 8 0
BBX 4 1 2 7
BITMAP
90
ENDCHAR
STARTCHAR copyright
ENCODING 169
SWIDTH 500 0
DWIDTH 8 0
BBX 7 11 0 0
BITMAP
38
44
92
AA
A2
A2
AA
AA
92
44
38
ENDCHAR
STARTCHAR guillemotleft
ENCODING 171
SWIDTH 500 0
DWIDTH 8 0
BBX 7 7 0 1
BITMAP
12
24
48
90
48
24
12
ENDCHAR
STARTCHAR registered
ENCODING 174
SWIDTH 500 0
DWIDTH 8 0
BBX 7 11 0 0
BITMAP
38
44
B2
AA
AA
B2
AA
AA
AA
44
38
ENDCHAR
STARTCHAR macron
ENCODING 175
SWIDTH 500 0
DWIDTH 8 0
BBX 5 1 1 8
BITMAP
F8
ENDCHAR
STARTCHAR degree
ENCODING 176
SWIDTH 500 0
DWIDTH 8 0
BBX 4 4 2 6
BITMAP
60
90
90
60
ENDCHAR
STARTCHAR plusminus
ENCODING 177
SWIDTH 500 0
DWIDTH 8 0
BBX 7 9 0 0
BITMAP
10
10
10
FE
10
10
10
00
FE
ENDCHAR
STARTCHAR periodcentered
ENCODING 183
SWIDTH 500 0
DWIDTH 8 0
BBX 2 2 3 3
BITMAP
C0
C0
ENDCHAR
STARTCHAR guillemotright
ENCODING 187
SWIDTH 500 0
DWIDTH 8 0
BBX 7 7 0 1
BITMAP
90
48
24
12
24
48
90
ENDCHAR
STARTCHAR multiply
ENCODING 215
SWIDTH 1000 0
DWIDTH 15 0
BBX 9 9 3 1
BITMAP
8080
4100
2200
1400
0800
1400
2200
4100
8080
ENDCHAR
STARTCHAR agrave
ENCODING 224
SWIDTH 1000 0
DWIDTH 15 0
BBX 7 12 4 1
BITMAP
20
10
08
00
00
74
8C
84
84
84
8C
76
ENDCHAR
STARTCHAR aacute
ENCODING 225
SWIDTH 1000 0
DWIDTH 15 0
BBX 7 12 4 1
BITMAP
08
10
20
00
04
74
8C
84
84
84
8C
76
ENDCHAR
STARTCHAR egrave
ENCODING 232
SWIDTH 1000 0
DWIDTH 15 0
BBX 7 13 4 0
BITMAP
20
10
08
00
00
38
44
82
FE
80
82
44
38
ENDCHAR
STARTCHAR eacute
ENCODING 233
SWIDTH 1000 0
DWIDTH 15 0
BBX 7 12 4 1
BITMAP
08
10
20
00
00
38
44
82
FE
80
82
7C
ENDCHAR
STARTCHAR ecircumflex
ENCODING 234
SWIDTH 1000 0
DWIDTH 15 0
BBX 7 11 4 1
BITMAP
38
44
00
00
38
C4
82
FE
80
80
7C
ENDCHAR
STARTCHAR igrave
ENCODING 236
SWIDTH 1000 0
DWIDTH 15 0
BBX 3 12 6 1
BITMAP
C0
20
00
00
40
C0
C0
40
40
40
40
E0
ENDCHAR
STARTCHAR iacute
ENCODING 237
SWIDTH 1000 0
DWIDTH 15 0
BBX 3 12 6 1
BITMAP
60
80
00
00
40
C0
C0
40
40
40
40
E0
ENDCHAR
STARTCHAR ograve
ENCODING 242
SWIDTH 1000 0
DWIDTH 15 0
BBX 7 13 4 0
BITMAP
20
10
00
00
00
38
44
82
82
82
82
44
38
ENDCHAR
STARTCHAR oacute
ENCODING 243
SWIDTH 1000 0
DWIDTH 15 0
BBX 7 13 4 0
BITMAP
08
10
00
00
00
38
44
82
82
82
82
44
38
ENDCHAR
STARTCHAR divide
ENCODING 247
SWIDTH 1000 0
DWIDTH 15 0
BBX 10 9 2 1
BITMAP
0C00
0C00
0000
0000
FFC0
0000
0000
0C00
0C00
ENDCHAR
STARTCHAR ugrave
ENCODING 249
SWIDTH 1000 0
DWIDTH 15 0
BBX 6 12 4 0
BITMAP
30
00
00
00
44
CC
44
44
44
44
4C
30
ENDCHAR
STARTCHAR uacute
ENCODING 250
SWIDTH 1000 0
DWIDTH 15 0
BBX 7 11 4 1
BITMAP
18
20
00
00
44
CC
44
44
44
44
7E
ENDCHAR
STARTCHAR udieresis
ENCODING 252
SWIDTH 1000 0
DWIDTH 15 0
BBX 8 9 4 1
BITMAP
42
00
42
C6
42
42
42
42
3F
ENDCHAR
STARTCHAR amacron
ENCODING 257
SWIDTH 1000 0
DWIDTH 15 0
BBX 7 10 4 1
BITMAP
7E
00
00
78
84
84
84
84
84
7E
ENDCHAR
STARTCHAR emacron
ENCODING 275
SWIDTH 1000 0
DWIDTH 15 0
BBX 7 10 4 1
BITMAP
7E
00
00
38
C4
82
FE
80
80
7C
ENDCHAR
STARTCHAR ecaron
ENCODING 283
SWIDTH 1000 0
DWIDTH 15 0
BBX 7 11 4 1
BITMAP
04
28
10
00
38
C4
82
FE
80
80
7C
ENDCHAR
STARTCHAR imacron
ENCODING 299
SWIDTH 1000 0
DWIDTH 15 0
BBX 6 10 5 1
BITMAP
FC
00
00
20
60
20
20
20
20
70
ENDCHAR
STARTCHAR nacute
ENCODING 324
SWIDTH 1000 0
DWIDTH 15 0
BBX 1 1 14 -2
BITMAP
00
ENDCHAR
STARTCHAR ncaron
ENCODING 328
SWIDTH 1000 0
DWIDTH 15 0
BBX 1 1 14 -2
BITMAP
00
ENDCHAR
STARTCHAR omacron
ENCODING 333
SWIDTH 1000 0
DWIDTH 15 0
BBX 7 10 4 1
BITMAP
7E
00
00
38
44
82
82
82
44
38
ENDCHAR
STARTCHAR umacron
ENCODING 363
SWIDTH 1000 0
DWIDTH 15 0
BBX 8 10 4 1
BITMAP
7E
00
00
42
C6
42
42
42
46
3B
ENDCHAR
STARTCHAR U_01CE
ENCODING 462
SWIDTH 1000 0
DWIDTH 15 0
BBX 7 11 4 1
BITMAP
04
38
00
00
78
84
84
84
84
84
7E
ENDCHAR
STARTCHAR U_01D0
ENCODING 464
SWIDTH 1000 0
DWIDTH 15 0
BBX 5 12 5 1
BITMAP
88
50
20
00
20
60
60
20
20
20
20
70
ENDCHAR
STARTCHAR U_01D2
ENCODING 466
SWIDTH 1000 0
DWIDTH 15 0
BBX 7 11 4 1
BITMAP
44
28
10
00
38
44
82
82
82
44
38
ENDCHAR
STARTCHAR U_01D4
ENCODING 468
SWIDTH 1000 0
DWIDTH 15 0
BBX 7 11 4 1
BITMAP
40
28
10
00
44
CC
44
44
44
44
7E
ENDCHAR
STARTCHAR U_01D6
ENCODING 470
SWIDTH 1000 0
DWIDTH 15 0
BBX 8 11 4 1
BITMAP
7E
00
42
00
42
C6
42
42
42
42
3F
ENDCHAR
STARTCHAR U_01D8
ENCODING 472
SWIDTH 1000 0
DWIDTH 15 0
BBX 8 12 4 1
BITMAP
04
08
30
42
00
42
C6
42
42
42
42
3F
ENDCHAR
STARTCHAR U_01DA
ENCODING 474
SWIDTH 1000 0
DWIDTH 15 0
BBX 8 11 4 1
BITMAP
24
18
42
00
42
C6
42
42
42
42
3F
ENDCHAR
STARTCHAR U_01DC
ENCODING 476
SWIDTH 1000 0
DWIDTH 15 0
BBX 7 13 4 0
BITMAP
20
18
00
42
00
42
C6
42
42
42
42
46
38
ENDCHAR
STARTCHAR U_0251
ENCODING 593
SWIDTH 1000 0
DWIDTH 15 0
BBX 1 1 14 -2
BITMAP
00
ENDCHAR
STARTCHAR U_0261
ENCODING 609
SWIDTH 1000 0
DWIDTH 15 0
BBX 1 1 14 -2
BITMAP
00
ENDCHAR
STARTCHAR caron
ENCODING 711
SWIDTH 1000 0
DWIDTH 15 0
BBX 7 6 4 4
BITMAP
02
84
48
48
30
10
ENDCHAR
STARTCHAR U_02C9
ENCODING 713
SWIDTH 1000 0
DWIDTH 15 0
BBX 7 1 4 9
BITMAP
FE
ENDCHAR
STARTCHAR U_02CA
ENCODING 714
SWIDTH 1000 0
DWIDTH 15 0
BBX 5 5 5 4
BITMAP
08
10
20
60
C0
ENDCHAR
STARTCHAR U_02CB
ENCODING 715
SWIDTH 1000 0
DWIDTH 15 0
BBX 6 5 4 4
BITMAP
40
E0
30
18
04
ENDCHAR
STARTCHAR U_02CD
ENCODING 717
SWIDTH 1000 0
DWIDTH 15 0
BBX 14 1 0 -1
BITMAP
FFFC
ENDCHAR
STARTCHAR dotaccent
ENCODING 729
SWIDTH 1000 0
DWIDTH 15 0
BBX 4 5 5 4
BITMAP
60
F0
F0
F0
60
ENDCHAR
STARTCHAR Alpha
ENCODING 913
SWIDTH 1000 0
DWIDTH 15 0
BBX 11 11 2 0
BITMAP
0400
0400
0A00
0A00
1100
1100
2080
3F80
4040
4040
E0E0
ENDCHAR
STARTCHAR Beta
ENCODING 914
SWIDTH 1000 0
DWIDTH 15 0
BBX 10 11 3 0
BITMAP
FC00
4300
4080
4080
4300
7E00
4180
4040
4040
4180
FE00
ENDCHAR
STARTCHAR Gamma
ENCODING 915
SWIDTH 1000 0
DWIDTH 15 0
BBX 9 11 3 0
BITMAP
FF00
4100
4080
4000
4000
4000
4000
4000
4000
4000
E000
ENDCHAR
STARTCHAR U_0394
ENCODING 916
SWIDTH 1000 0
DWIDTH 15 0
BBX 11 11 2 0
BITMAP
0400
0400
0A00
0A00
1100
1100
2080
2080
4040
4040
FFE0
ENDCHAR
STARTCHAR Epsilon
ENCODING 917
SWIDTH 1000 0
DWIDTH 15 0
BBX 9 11 2 0
BITMAP
FF00
4100
4080
4000
4100
7F00
4100
4000
4000
4080
FF80
ENDCHAR
STARTCHAR Zeta
ENCODING 918
SWIDTH 1000 0
DWIDTH 15 0
BBX 11 11 2 0
BITMAP
7FC0
4080
8100
0200
0400
0400
0800
1000
2020
4040
FFC0
ENDCHAR
STARTCHAR Eta
ENCODING 919
SWIDTH 1000 0
DWIDTH 15 0
BBX 10 11 2 0
BITMAP
E1C0
4080
4080
4080
4080
7F80
4080
4080
4080
4080
E1C0
ENDCHAR
STARTCHAR Theta
ENCODING 920
SWIDTH 1000 0
DWIDTH 15 0
BBX 11 11 2 0
BITMAP
0E00
3180
4040
8020
9120
9F20
9120
8020
4040
3180
0E00
ENDCHAR
STARTCHAR Iota
ENCODING 921
SWIDTH 1000 0
DWIDTH 15 0
BBX 3 11 5 0
BITMAP
E0
40
40
40
40
40
40
40
40
40
E0
ENDCHAR
STARTCHAR Kappa
ENCODING 922
SWIDTH 1000 0
DWIDTH 15 0
BBX 10 11 2 0
BITMAP
E380
4100
4200
4400
5800
6800
4400
4200
4100
4080
E1C0
ENDCHAR
STARTCHAR Lambda
ENCODING 923
SWIDTH 1000 0
DWIDTH 15 0
BBX 11 11 2 0
BITMAP
0400
0400
0A00
0A00
1100
1100
2080
2080
4040
4040
E0E0
ENDCHAR
STARTCHAR Mu
ENCODING 924
SWIDTH 1000 0
DWIDTH 15 0
BBX 12 11 1 0
BITMAP
C030
6060
60A0
50A0
5120
4920
4A20
4420
4420
4020
E070
ENDCHAR
STARTCHAR Nu
ENCODING 925
SWIDTH 1000 0
DWIDTH 15 0
BBX 10 11 2 0
BITMAP
C1C0
6080
6080
5080
4880
4480
4480
4280
4180
4180
E080
ENDCHAR
STARTCHAR Xi
ENCODING 926
SWIDTH 1000 0
DWIDTH 15 0
BBX 10 12 2 -1
BITMAP
7FC0
4080
8080
0000
4080
7F80
4080
0000
0000
4040
4080
FF80
ENDCHAR
STARTCHAR Omicron
ENCODING 927
SWIDTH 1000 0
DWIDTH 15 0
BBX 11 11 2 0
BITMAP
0E00
3180
4040
8020
8020
8020
8020
8020
4040
3180
0E00
ENDCHAR
STARTCHAR Pi
ENCODING 928
SWIDTH 1000 0
DWIDTH 15 0
BBX 10 11 2 0
BITMAP
FFC0
4080
4080
4080
4080
4080
4080
4080
4080
4080
E1C0
ENDCHAR
STARTCHAR Rho
ENCODING 929
SWIDTH 1000 0
DWIDTH 15 0
BBX 9 11 2 0
BITMAP
FC00
4300
4080
4080
4300
7C00
4000
4000
4000
4000
E000
ENDCHAR
STARTCHAR Sigma
ENCODING 931
SWIDTH 1000 0
DWIDTH 15 0
BBX 10 11 2 0
BITMAP
FF00
4100
2080
1000
0800
0400
0400
0800
1040
2080
FF80
ENDCHAR
STARTCHAR Tau
ENCODING 932
SWIDTH 1000 0
DWIDTH 15 0
BBX 11 11 1 0
BITMAP
7FC0
4440
8420
0400
0400
0400
0400
0400
0400
0400
0E00
ENDCHAR
STARTCHAR Upsilon
ENCODING 933
SWIDTH 1000 0
DWIDTH 15 0
BBX 11 11 1 0
BITMAP
71C0
8A20
8420
0400
0400
0400
0400
0400
0400
0400
0E00
ENDCHAR
STARTCHAR Phi
ENCODING 934
SWIDTH 1000 0
DWIDTH 15 0
BBX 11 11 2 0
BITMAP
0E00
0400
1F00
64C0
8420
8420
8420
64C0
1F00
0400
0E00
ENDCHAR
STARTCHAR Chi
ENCODING 935
SWIDTH 1000 0
DWIDTH 15 0
BBX 11 11 2 0
BITMAP
E1C0
4080
2100
1200
0C00
0400
0A00
1100
2080
4040
E0E0
ENDCHAR
STARTCHAR Psi
ENCODING 936
SWIDTH 1000 0
DWIDTH 15 0
BBX 11 11 1 0
BITMAP
0E00
8420
4440
2480
2480
2480
1500
0E00
0400
0400
0E00
ENDCHAR
STARTCHAR U_03A9
ENCODING 937
SWIDTH 1000 0
DWIDTH 15 0
BBX 10 11 2 0
BITMAP
0C00
3300
4080
8040
8040
8040
4080
2100
1200
9240
F3C0
ENDCHAR
STARTCHAR alpha
ENCODING 945
SWIDTH 1000 0
DWIDTH 15 0
BBX 9 9 3 0
BITMAP
0100
1900
2500
4200
8200
8200
8600
4A00
3180
ENDCHAR
STARTCHAR beta
ENCODING 946
SWIDTH 1000 0
DWIDTH 15 0
BBX 9 13 3 -2
BITMAP
0700
0880
1080
1080
2100
2E00
2100
2100
4100
6200
5C00
8000
8000
ENDCHAR
STARTCHAR gamma
ENCODING 947
SWIDTH 1000 0
DWIDTH 15 0
BBX 8 9 4 -1
BITMAP
63
94
18
10
10
20
20
20
20
ENDCHAR
STARTCHAR delta
ENCODING 948
SWIDTH 1000 0
DWIDTH 15 0
BBX 8 11 4 0
BITMAP
38
46
41
20
38
44
84
84
88
90
60
ENDCHAR
STARTCHAR epsilon
ENCODING 949
SWIDTH 1000 0
DWIDTH 15 0
BBX 6 8 4 0
BITMAP
38
44
40
38
40
80
84
78
ENDCHAR
STARTCHAR zeta
ENCODING 950
SWIDTH 1000 0
DWIDTH 15 0
BBX 6 13 4 -2
BITMAP
40
8C
70
20
40
40
80
80
60
18
04
64
38
ENDCHAR
STARTCHAR eta
ENCODING 951
SWIDTH 1000 0
DWIDTH 15 0
BBX 8 10 3 -2
BITMAP
66
99
11
21
21
22
42
44
04
04
ENDCHAR
STARTCHAR theta
ENCODING 952
SWIDTH 1000 0
DWIDTH 15 0
BBX 8 11 4 0
BITMAP
0E
11
21
41
42
FE
82
84
84
88
70
ENDCHAR
STARTCHAR iota
ENCODING 953
SWIDTH 1000 0
DWIDTH 15 0
BBX 4 8 5 0
BITMAP
20
40
40
80
80
80
90
60
ENDCHAR
STARTCHAR kappa
ENCODING 954
SWIDTH 1000 0
DWIDTH 15 0
BBX 9 8 3 0
BITMAP
2180
2600
2800
7000
4800
4800
8900
8600
ENDCHAR
STARTCHAR lambda
ENCODING 955
SWIDTH 1000 0
DWIDTH 15 0
BBX 8 11 4 0
BITMAP
38
04
04
0C
14
14
24
44
44
84
83
ENDCHAR
STARTCHAR U_03BC
ENCODING 956
SWIDTH 1000 0
DWIDTH 15 0
BBX 10 10 3 -2
BITMAP
2100
2100
2200
2200
4200
4200
6640
5980
8000
8000
ENDCHAR
STARTCHAR nu
ENCODING 957
SWIDTH 1000 0
DWIDTH 15 0
BBX 7 8 4 0
BITMAP
82
42
44
44
48
50
60
80
ENDCHAR
STARTCHAR xi
ENCODING 958
SWIDTH 1000 0
DWIDTH 15 0
BBX 7 14 4 -2
BITMAP
30
46
38
20
40
40
38
44
80
80
60
18
04
78
ENDCHAR
STARTCHAR omicron
ENCODING 959
SWIDTH 1000 0
DWIDTH 15 0
BBX 8 8 4 0
BITMAP
0C
32
41
81
82
82
4C
30
ENDCHAR
STARTCHAR pi
ENCODING 960
SWIDTH 1000 0
DWIDTH 15 0
BBX 11 9 2 0
BITMAP
3020
4FC0
8900
1100
1200
2200
2200
2200
C180
ENDCHAR
STARTCHAR rho
ENCODING 961
SWIDTH 1000 0
DWIDTH 15 0
BBX 9 10 3 -2
BITMAP
0700
0880
1080
2080
2100
6100
6200
5C00
8000
8000
ENDCHAR
STARTCHAR sigma
ENCODING 963
SWIDTH 1000 0
DWIDTH 15 0
BBX 9 8 3 0
BITMAP
0F80
3400
4200
8200
8200
8400
8800
7000
ENDCHAR
STARTCHAR tau
ENCODING 964
SWIDTH 1000 0
DWIDTH 15 0
BBX 9 8 3 0
BITMAP
3180
4E00
8800
1000
1000
2000
2400
1800
ENDCHAR
STARTCHAR upsilon
ENCODING 965
SWIDTH 1000 0
DWIDTH 15 0
BBX 7 8 4 0
BITMAP
44
42
82
82
84
84
88
70
ENDCHAR
STARTCHAR phi
ENCODING 966
SWIDTH 1000 0
DWIDTH 15 0
BBX 8 13 3 -2
BITMAP
04
04
04
1C
6A
89
89
91
92
54
38
20
20
ENDCHAR
STARTCHAR chi
ENCODING 967
SWIDTH 1000 0
DWIDTH 15 0
BBX 10 13 2 -2
BITMAP
1840
2440
0480
0500
0600
0400
0C00
1400
1400
2400
4400
8480
8300
ENDCHAR
STARTCHAR psi
ENCODING 968
SWIDTH 1000 0
DWIDTH 15 0
BBX 11 13 1 -2
BITMAP
0100
0100
0100
6140
9220
1220
1220
2440
2480
2700
1C00
0800
0800
ENDCHAR
STARTCHAR omega
ENCODING 969
SWIDTH 1000 0
DWIDTH 15 0
BBX 10 8 2 0
BITMAP
2080
4040
4440
8840
8880
8880
9900
6600
ENDCHAR
STARTCHAR afii10023
ENCODING 1025
SWIDTH 1000 0
DWIDTH 15 0
BBX 8 13 3 0
BITMAP
42
00
FF
41
40
40
44
7C
44
40
40
41
FF
ENDCHAR
STARTCHAR afii10017
ENCODING 1040
SWIDTH 1000 0
DWIDTH 15 0
BBX 11 11 2 0
BITMAP
0400
0400
0A00
0A00
1100
1100
2080
3F80
4040
4040
E0E0
ENDCHAR
STARTCHAR afii10018
ENCODING 1041
SWIDTH 1000 0
DWIDTH 15 0
BBX 10 11 3 0
BITMAP
FF00
4100
4080
4000
4000
7E00
4180
4040
4040
4180
FE00
ENDCHAR
STARTCHAR afii10019
ENCODING 1042
SWIDTH 1000 0
DWIDTH 15 0
BBX 10 11 3 0
BITMAP
FC00
4300
4080
4080
4300
7E00
4180
4040
4040
4180
FE00
ENDCHAR
STARTCHAR afii10020
ENCODING 1043
SWIDTH 1000 0
DWIDTH 15 0
BBX 9 11 3 0
BITMAP
FF00
4100
4080
4000
4000
4000
4000
4000
4000
4000
E000
ENDCHAR
STARTCHAR afii10021
ENCODING 1044
SWIDTH 1000 0
DWIDTH 15 0
BBX 11 13 2 -2
BITMAP
3FC0
1080
1080
1080
1080
1080
1080
1080
2080
2080
FFE0
8020
8020
ENDCHAR
STARTCHAR afii10022
ENCODING 1045
SWIDTH 1000 0
DWIDTH 15 0
BBX 9 11 2 0
BITMAP
FF00
4100
4080
4000
4100
7F00
4100
4000
4000
4080
FF80
ENDCHAR
STARTCHAR afii10024
ENCODING 1046
SWIDTH 1000 0
DWIDTH 15 0
BBX 11 11 2 0
BITMAP
CE60
A4A0
2480
2480
2480
1F00
1500
2480
4440
4440
CE60
ENDCHAR
STARTCHAR afii10025
ENCODING 1047
SWIDTH 1000 0
DWIDTH 15 0
BBX 9 11 3 0
BITMAP
1C00
6300
8080
0080
0300
1E00
0300
0080
8080
6300
1C00
ENDCHAR
STARTCHAR afii10026
ENCODING 1048
SWIDTH 1000 0
DWIDTH 15 0
BBX 10 11 2 0
BITMAP
E0C0
4180
4180
4280
4480
4880
4880
5080
6080
6080
41C0
ENDCHAR
STARTCHAR afii10027
ENCODING 1049
SWIDTH 1000 0
DWIDTH 15 0
BBX 10 12 2 0
BITMAP
1200
0C00
E0C0
4180
4280
4280
4480
4880
5080
6080
6080
41C0
ENDCHAR
STARTCHAR afii10028
ENCODING 1050
SWIDTH 1000 0
DWIDTH 15 0
BBX 10 11 2 0
BITMAP
E180
4240
4400
4800
5800
6800
4400
4200
4100
4080
E1C0
ENDCHAR
STARTCHAR afii10029
ENCODING 1051
SWIDTH 1000 0
DWIDTH 15 0
BBX 11 11 2 0
BITMAP
0FE0
0840
0840
0840
0840
0840
0840
0840
9040
9040
60E0
ENDCHAR
STARTCHAR afii10030
ENCODING 1052
SWIDTH 1000 0
DWIDTH 15 0
BBX 12 11 1 0
BITMAP
6060
2040
30C0
3140
2940
2A40
4620
4420
4420
4020
E070
ENDCHAR
STARTCHAR afii10031
ENCODING 1053
SWIDTH 1000 0
DWIDTH 15 0
BBX 10 11 2 0
BITMAP
E1C0
4080
4080
4080
4080
7F80
4080
4080
4080
4080
E1C0
ENDCHAR
STARTCHAR afii10032
ENCODING 1054
SWIDTH 1000 0
DWIDTH 15 0
BBX 11 11 2 0
BITMAP
0E00
3180
4040
8020
8020
8020
8020
8020
4040
3180
0E00
ENDCHAR
STARTCHAR afii10033
ENCODING 1055
SWIDTH 1000 0
DWIDTH 15 0
BBX 10 11 2 0
BITMAP
FFC0
4080
4080
4080
4080
4080
4080
4080
4080
4080
E1C0
ENDCHAR
STARTCHAR afii10034
ENCODING 1056
SWIDTH 1000 0
DWIDTH 15 0
BBX 9 11 2 0
BITMAP
FC00
4300
4080
4080
4300
7C00
4000
4000
4000
4000
E000
ENDCHAR
STARTCHAR afii10035
ENCODING 1057
SWIDTH 1000 0
DWIDTH 15 0
BBX 10 11 2 0
BITMAP
0F40
30C0
4040
8000
8000
8000
8000
8000
4040
3080
0F00
ENDCHAR
STARTCHAR afii10036
ENCODING 1058
SWIDTH 1000 0
DWIDTH 15 0
BBX 11 11 1 0
BITMAP
7FC0
4440
8420
0400
0400
0400
0400
0400
0400
0400
0E00
ENDCHAR
STARTCHAR afii10037
ENCODING 1059
SWIDTH 1000 0
DWIDTH 15 0
BBX 11 13 2 -2
BITMAP
E0E0
4040
2040
2080
1080
0900
0900
0600
0200
0400
0400
0800
3000
ENDCHAR
STARTCHAR afii10038
ENCODING 1060
SWIDTH 1000 0
DWIDTH 15 0
BBX 11 11 2 0
BITMAP
0E00
0400
1F00
64C0
8420
8420
8420
64C0
1F00
0400
0E00
ENDCHAR
STARTCHAR afii10039
ENCODING 1061
SWIDTH 1000 0
DWIDTH 15 0
BBX 11 11 2 0
BITMAP
E1C0
4080
2100
1200
0C00
0400
0A00
1100
2080
4040
E0E0
ENDCHAR
STARTCHAR afii10040
ENCODING 1062
SWIDTH 1000 0
DWIDTH 15 0
BBX 11 13 2 -2
BITMAP
E1C0
4080
4080
4080
4080
4080
4080
4080
4080
4080
FFE0
0020
0020
ENDCHAR
STARTCHAR afii10041
ENCODING 1063
SWIDTH 1000 0
DWIDTH 15 0
BBX 10 11 2 0
BITMAP
E1C0
4080
4080
4080
4080
4180
2280
1C80
0080
0080
01C0
ENDCHAR
STARTCHAR afii10042
ENCODING 1064
SWIDTH 1000 0
DWIDTH 15 0
BBX 11 11 2 0
BITMAP
EEE0
4440
4440
4440
4440
4440
4440
4440
4440
4440
FFE0
ENDCHAR
STARTCHAR afii10043
ENCODING 1065
SWIDTH 1000 0
DWIDTH 15 0
BBX 11 13 2 -2
BITMAP
EEE0
4440
4440
4440
4440
4440
4440
4440
4440
4440
FFE0
0020
0020
ENDCHAR
STARTCHAR afii10044
ENCODING 1066
SWIDTH 1000 0
DWIDTH 15 0
BBX 11 11 2 0
BITMAP
7C00
4800
8800
0800
0F00
08C0
0820
0820
0820
08C0
1F00
ENDCHAR
STARTCHAR afii10045
ENCODING 1067
SWIDTH 1000 0
DWIDTH 15 0
BBX 10 11 2 0
BITMAP
E1C0
4080
4080
4080
7880
4480
4280
4280
4280
4C80
F1C0
ENDCHAR
STARTCHAR afii10046
ENCODING 1068
SWIDTH 1000 0
DWIDTH 15 0
BBX 8 11 4 0
BITMAP
E0
40
40
40
78
46
41
41
41
46
F8
ENDCHAR
STARTCHAR afii10047
ENCODING 1069
SWIDTH 1000 0
DWIDTH 15 0
BBX 10 11 3 0
BITMAP
1C00
6300
8080
0080
3040
49C0
0640
0080
8080
6300
1C00
ENDCHAR
STARTCHAR afii10048
ENCODING 1070
SWIDTH 1000 0
DWIDTH 15 0
BBX 11 11 2 0
BITMAP
E380
4440
4440
4820
4820
7820
4820
4820
4440
4440
E380
ENDCHAR
STARTCHAR afii10049
ENCODING 1071
SWIDTH 1000 0
DWIDTH 15 0
BBX 10 11 2 0
BITMAP
0FC0
3080
4080
4080
3080
0F80
1080
2080
2080
4080
E1C0
ENDCHAR
STARTCHAR afii10065
ENCODING 1072
SWIDTH 1000 0
DWIDTH 15 0
BBX 8 8 3 0
BITMAP
3C
42
42
1E
62
82
86
79
ENDCHAR
STARTCHAR afii10066
ENCODING 1073
SWIDTH 1000 0
DWIDTH 15 0
BBX 8 12 4 0
BITMAP
01
0E
30
40
58
E6
81
81
81
81
66
18
ENDCHAR
STARTCHAR afii10067
ENCODING 1074
SWIDTH 1000 0
DWIDTH 15 0
BBX 8 8 4 0
BITMAP
FC
42
42
7C
42
41
41
FE
ENDCHAR
STARTCHAR afii10068
ENCODING 1075
SWIDTH 1000 0
DWIDTH 15 0
BBX 8 8 3 0
BITMAP
FE
42
41
40
40
40
40
E0
ENDCHAR
STARTCHAR afii10069
ENCODING 1076
SWIDTH 1000 0
DWIDTH 15 0
BBX 10 10 2 -2
BITMAP
1FC0
1080
1080
1080
1080
1080
2080
FF80
8080
8080
ENDCHAR
STARTCHAR afii10070
ENCODING 1077
SWIDTH 1000 0
DWIDTH 15 0
BBX 8 8 3 0
BITMAP
3C
42
81
FF
80
81
62
1C
ENDCHAR
STARTCHAR afii10072
ENCODING 1078
SWIDTH 1000 0
DWIDTH 15 0
BBX 11 8 2 0
BITMAP
CE60
2480
1500
0E00
1500
2480
2480
CE60
ENDCHAR
STARTCHAR afii10073
ENCODING 1079
SWIDTH 1000 0
DWIDTH 15 0
BBX 8 8 3 0
BITMAP
3C
43
81
1E
03
81
42
3C
ENDCHAR
STARTCHAR afii10074
ENCODING 1080
SWIDTH 1000 0
DWIDTH 15 0
BBX 10 8 2 0
BITMAP
E1C0
4180
4280
4480
4880
5080
6080
E1C0
ENDCHAR
STARTCHAR afii10075
ENCODING 1081
SWIDTH 1000 0
DWIDTH 15 0
BBX 10 10 2 0
BITMAP
1200
0C00
E1C0
4180
4280
4480
4880
5080
6080
E1C0
ENDCHAR
STARTCHAR afii10076
ENCODING 1082
SWIDTH 1000 0
DWIDTH 15 0
BBX 9 8 3 0
BITMAP
E300
4500
4800
7800
4400
4200
4100
E380
ENDCHAR
STARTCHAR afii10077
ENCODING 1083
SWIDTH 1000 0
DWIDTH 15 0
BBX 10 8 2 0
BITMAP
1FC0
0880
0880
0880
0880
9080
9080
61C0
ENDCHAR
STARTCHAR afii10078
ENCODING 1084
SWIDTH 1000 0
DWIDTH 15 0
BBX 11 8 2 0
BITMAP
E0E0
60C0
5140
5140
4A40
4A40
4440
E0E0
ENDCHAR
STARTCHAR afii10079
ENCODING 1085
SWIDTH 1000 0
DWIDTH 15 0
BBX 9 8 3 0
BITMAP
E380
4100
4100
7F00
4100
4100
4100
E380
ENDCHAR
STARTCHAR afii10080
ENCODING 1086
SWIDTH 1000 0
DWIDTH 15 0
BBX 8 8 3 0
BITMAP
3C
42
81
81
81
81
42
3C
ENDCHAR
STARTCHAR afii10081
ENCODING 1087
SWIDTH 1000 0
DWIDTH 15 0
BBX 9 8 3 0
BITMAP
FF80
4100
4100
4100
4100
4100
4100
E380
ENDCHAR
STARTCHAR afii10082
ENCODING 1088
SWIDTH 1000 0
DWIDTH 15 0
BBX 8 10 3 -2
BITMAP
5C
62
41
41
41
41
62
5C
40
E0
ENDCHAR
STARTCHAR afii10083
ENCODING 1089
SWIDTH 1000 0
DWIDTH 15 0
BBX 8 8 3 0
BITMAP
3C
42
81
80
80
81
42
3C
ENDCHAR
STARTCHAR afii10084
ENCODING 1090
SWIDTH 1000 0
DWIDTH 15 0
BBX 9 8 3 0
BITMAP
7F00
4900
8880
0800
0800
0800
0800
1C00
ENDCHAR
STARTCHAR afii10085
ENCODING 1091
SWIDTH 1000 0
DWIDTH 15 0
BBX 9 10 3 -2
BITMAP
E380
4100
2100
2200
1200
1400
0C00
0800
1000
6000
ENDCHAR
STARTCHAR afii10086
ENCODING 1092
SWIDTH 1000 0
DWIDTH 15 0
BBX 11 13 2 -2
BITMAP
0E00
0400
0400
3580
4E40
8420
8420
8420
8420
4E40
3580
0400
0E00
ENDCHAR
STARTCHAR afii10087
ENCODING 1093
SWIDTH 1000 0
DWIDTH 15 0
BBX 8 8 3 0
BITMAP
C3
42
24
18
18
24
42
C3
ENDCHAR
STARTCHAR afii10088
ENCODING 1094
SWIDTH 1000 0
DWIDTH 15 0
BBX 9 10 3 -2
BITMAP
E380
4100
4100
4100
4100
4100
4100
FF80
0080
0080
ENDCHAR
STARTCHAR afii10089
ENCODING 1095
SWIDTH 1000 0
DWIDTH 15 0
BBX 9 8 3 0
BITMAP
E380
4100
4100
4300
3D00
0100
0100
0380
ENDCHAR
STARTCHAR afii10090
ENCODING 1096
SWIDTH 1000 0
DWIDTH 15 0
BBX 11 8 2 0
BITMAP
EEE0
4440
4440
4440
4440
4440
4440
7FE0
ENDCHAR
STARTCHAR afii10091
ENCODING 1097
SWIDTH 1000 0
DWIDTH 15 0
BBX 11 10 2 -2
BITMAP
EEE0
4440
4440
4440
4440
4440
4440
7FE0
0020
0020
ENDCHAR
STARTCHAR afii10092
ENCODING 1098
SWIDTH 1000 0
DWIDTH 15 0
BBX 10 8 2 0
BITMAP
7C00
4800
8800
0F00
08C0
0840
08C0
1F00
ENDCHAR
STARTCHAR afii10093
ENCODING 1099
SWIDTH 1000 0
DWIDTH 15 0
BBX 9 8 3 0
BITMAP
E380
4100
4100
7100
4D00
4500
4D00
F380
ENDCHAR
STARTCHAR afii10094
ENCODING 1100
SWIDTH 1000 0
DWIDTH 15 0
BBX 7 8 4 0
BITMAP
E0
40
40
78
46
42
46
F8
ENDCHAR
STARTCHAR afii10095
ENCODING 1101
SWIDTH 1000 0
DWIDTH 15 0
BBX 9 8 3 0
BITMAP
3C00
4300
8100
1B80
2480
8100
4200
3C00
ENDCHAR
STARTCHAR afii10096
ENCODING 1102
SWIDTH 1000 0
DWIDTH 15 0
BBX 10 8 2 0
BITMAP
E300
4480
4840
7840
4840
4840
4480
E300
ENDCHAR
STARTCHAR afii10097
ENCODING 1103
SWIDTH 1000 0
DWIDTH 15 0
BBX 8 8 3 0
BITMAP
3F
42
42
42
3E
22
42
E7
ENDCHAR
STARTCHAR afii10071
ENCODING 1105
SWIDTH 1000 0
DWIDTH 15 0
BBX 7 10 4 0
BITMAP
44
00
38
44
82
FE
80
82
44
38
ENDCHAR
STARTCHAR endash
ENCODING 8211
SWIDTH 1000 0
DWIDTH 15 0
BBX 13 1 1 5
BITMAP
FFF8
ENDCHAR
STARTCHAR emdash
ENCODING 8212
SWIDTH 1000 0
DWIDTH 15 0
BBX 13 1 1 5
BITMAP
FFF8
ENDCHAR
STARTCHAR U_2016
ENCODING 8214
SWIDTH 1000 0
DWIDTH 15 0
BBX 5 13 5 -1
BITMAP
88
88
88
88
88
88
88
88
88
88
88
88
88
ENDCHAR
STARTCHAR quoteleft
ENCODING 8216
SWIDTH 1000 0
DWIDTH 15 0
BBX 2 4 10 9
BITMAP
40
80
C0
C0
ENDCHAR
STARTCHAR quoteright
ENCODING 8217
SWIDTH 1000 0
DWIDTH 15 0
BBX 2 4 3 9
BITMAP
C0
C0
40
80
ENDCHAR
STARTCHAR quotedblleft
ENCODING 8220
SWIDTH 1000 0
DWIDTH 15 0
BBX 5 4 9 9
BITMAP
48
90
D8
D8
ENDCHAR
STARTCHAR quotedblright
ENCODING 8221
SWIDTH 1000 0
DWIDTH 15 0
BBX 5 4 1 9
BITMAP
D8
D8
48
90
ENDCHAR
STARTCHAR bullet
ENCODING 8226
SWIDTH 1000 0
DWIDTH 15 0
BBX 2 2 6 5
BITMAP
C0
C0
ENDCHAR
STARTCHAR twodotenleader
ENCODING 8229
SWIDTH 1000 0
DWIDTH 15 0
BBX 9 2 3 5
BITMAP
C180
C180
ENDCHAR
STARTCHAR ellipsis
ENCODING 8230
SWIDTH 1000 0
DWIDTH 15 0
BBX 12 2 2 5
BITMAP
C630
C630
ENDCHAR
STARTCHAR U_2027
ENCODING 8231
SWIDTH 1000 0
DWIDTH 15 0
BBX 2 2 6 5
BITMAP
C0
C0
ENDCHAR
STARTCHAR perthousand
ENCODING 8240
SWIDTH 1000 0
DWIDTH 15 0
BBX 14 14 0 -1
BITMAP
6000
9100
9100
9200
9400
9400
9B18
6CA4
14A4
24A4
24A4
44A4
84A4
8318
ENDCHAR
STARTCHAR minute
ENCODING 8242
SWIDTH 1000 0
DWIDTH 15 0
BBX 3 3 2 9
BITMAP
20
40
80
ENDCHAR
STARTCHAR second
ENCODING 8243
SWIDTH 1000 0
DWIDTH 15 0
BBX 5 3 1 9
BITMAP
28
50
80
ENDCHAR
STARTCHAR U_2035
ENCODING 8245
SWIDTH 1000 0
DWIDTH 15 0
BBX 2 2 10 10
BITMAP
80
40
ENDCHAR
STARTCHAR U_203B
ENCODING 8251
SWIDTH 1000 0
DWIDTH 15 0
BBX 12 12 1 0
BITMAP
8010
4620
2640
1080
0900
6630
6630
0900
1080
2640
4620
8010
ENDCHAR
STARTCHAR U_203E
ENCODING 8254
SWIDTH 1000 0
DWIDTH 15 0
BBX 14 1 0 12
BITMAP
FFFC
ENDCHAR
STARTCHAR Euro
ENCODING 8364
SWIDTH 1000 0
DWIDTH 15 0
BBX 9 11 3 0
BITMAP
1E00
2100
4080
4000
FC00
4000
F800
4000
4080
2100
1E00
ENDCHAR
STARTCHAR U_2103
ENCODING 8451
SWIDTH 1000 0
DWIDTH 15 0
BBX 12 12 1 1
BITMAP
6000
91C0
9220
6410
0800
0800
0800
0800
0800
0410
0220
01C0
ENDCHAR
STARTCHAR afii61248
ENCODING 8453
SWIDTH 1000 0
DWIDTH 15 0
BBX 13 14 1 -1
BITMAP
3000
4808
8810
8020
8040
8080
4560
3A90
0508
0908
1108
2108
4090
8060
ENDCHAR
STARTCHAR U_2109
ENCODING 8457
SWIDTH 1000 0
DWIDTH 15 0
BBX 13 12 1 1
BITMAP
6000
97F8
9208
6200
0200
0220
03E0
0220
0220
0200
0200
0700
ENDCHAR
STARTCHAR afii61352
ENCODING 8470
SWIDTH 1000 0
DWIDTH 15 0
BBX 14 11 0 1
BITMAP
C380
6100
6100
5138
5944
4944
4544
4544
4338
4300
C17C
ENDCHAR
STARTCHAR U_2160
ENCODING 8544
SWIDTH 1000 0
DWIDTH 15 0
BBX 5 11 5 1
BITMAP
F8
20
20
20
20
20
20
20
20
20
F8
ENDCHAR
STARTCHAR U_2161
ENCODING 8545
SWIDTH 1000 0
DWIDTH 15 0
BBX 9 11 3 1
BITMAP
E380
4100
4100
4100
4100
4100
4100
4100
4100
4100
E380
ENDCHAR
STARTCHAR U_2162
ENCODING 8546
SWIDTH 1000 0
DWIDTH 15 0
BBX 13 11 1 1
BITMAP
E738
4210
4210
4210
4210
4210
4210
4210
4210
4210
E738
ENDCHAR
STARTCHAR U_2163
ENCODING 8547
SWIDTH 1000 0
DWIDTH 15 0
BBX 13 11 1 1
BITMAP
EE38
4410
4410
4410
4220
4220
4140
4140
4080
4080
E080
ENDCHAR
STARTCHAR U_2164
ENCODING 8548
SWIDTH 1000 0
DWIDTH 15 0
BBX 9 11 2 1
BITMAP
E380
4100
4100
4100
2200
2200
1400
1400
0800
0800
0800
ENDCHAR
STARTCHAR U_2165
ENCODING 8549
SWIDTH 1000 0
DWIDTH 15 0
BBX 13 11 1 1
BITMAP
E3B8
4110
4110
4110
2210
2210
1410
1410
0810
0810
0838
ENDCHAR
STARTCHAR U_2166
ENCODING 8550
SWIDTH 1000 0
DWIDTH 15 0
BBX 13 11 0 1
BITMAP
EFF8
4490
4490
4490
2890
2890
2890
2890
1090
1090
11F8
ENDCHAR
STARTCHAR U_2167
ENCODING 8551
SWIDTH 1000 0
DWIDTH 15 0
BBX 14 11 0 1
BITMAP
EDFC
44A8
44A8
44A8
28A8
28A8
28A8
28A8
10A8
10A8
11FC
ENDCHAR
STARTCHAR U_2168
ENCODING 8552
SWIDTH 1000 0
DWIDTH 15 0
BBX 12 11 1 1
BITMAP
E770
4220
4220
4140
4140
4080
4140
4140
4220
4220
E770
ENDCHAR
STARTCHAR U_2169
ENCODING 8553
SWIDTH 1000 0
DWIDTH 15 0
BBX 9 11 3 1
BITMAP
E380
4100
2200
1400
0800
0800
0800
1400
2200
4100
E380
ENDCHAR
STARTCHAR U_216A
ENCODING 8554
SWIDTH 1000 0
DWIDTH 15 0
BBX 12 11 2 1
BITMAP
EE70
4420
4420
2820
2820
1020
2820
2820
4420
4420
EE70
ENDCHAR
STARTCHAR U_216B
ENCODING 8555
SWIDTH 1000 0
DWIDTH 15 0
BBX 14 11 0 1
BITMAP
F77C
2228
2228
1428
1428
0828
1428
1428
2228
2228
F77C
ENDCHAR
STARTCHAR arrowleft
ENCODING 8592
SWIDTH 1000 0
DWIDTH 15 0
BBX 14 5 0 3
BITMAP
2000
6000
FFFC
6000
2000
ENDCHAR
STARTCHAR arrowup
ENCODING 8593
SWIDTH 1000 0
DWIDTH 15 0
BBX 5 14 5 -1
BITMAP
20
70
F8
20
20
20
20
20
20
20
20
20
20
20
ENDCHAR
STARTCHAR arrowright
ENCODING 8594
SWIDTH 1000 0
DWIDTH 15 0
BBX 14 5 0 3
BITMAP
0010
0018
FFFC
0018
0010
ENDCHAR
STARTCHAR arrowdown
ENCODING 8595
SWIDTH 1000 0
DWIDTH 15 0
BBX 5 14 5 -1
BITMAP
20
20
20
20
20
20
20
20
20
20
20
F8
70
20
ENDCHAR
STARTCHAR U_2196
ENCODING 8598
SWIDTH 1000 0
DWIDTH 15 0
BBX 14 14 0 -1
BITMAP
F000
C000
A000
9000
0800
0400
0200
0100
0080
0040
0020
0010
0008
0004
ENDCHAR
STARTCHAR U_2197
ENCODING 8599
SWIDTH 1000 0
DWIDTH 15 0
BBX 14 14 0 -1
BITMAP
003C
000C
0014
0024
0040
0080
0100
0200
0400
0800
1000
2000
4000
8000
ENDCHAR
STARTCHAR U_2198
ENCODING 8600
SWIDTH 1000 0
DWIDTH 15 0
BBX 14 14 0 -1
BITMAP
8000
4000
2000
1000
0800
0400
0200
0100
0080
0040
0024
0014
000C
003C
ENDCHAR
STARTCHAR U_2199
ENCODING 8601
SWIDTH 1000 0
DWIDTH 15 0
BBX 14 14 0 -1
BITMAP
0004
0008
0010
0020
0040
0080
0100
0200
0400
0800
9000
A000
C000
F000
ENDCHAR
STARTCHAR element
ENCODING 8712
SWIDTH 1000 0
DWIDTH 15 0
BBX 6 12 4 0
BITMAP
0C
30
40
80
80
FC
80
80
80
40
30
0C
ENDCHAR
STARTCHAR product
ENCODING 8719
SWIDTH 1000 0
DWIDTH 15 0
BBX 9 11 3 1
BITMAP
FF80
4100
4100
4100
4100
4100
4100
4100
4100
4100
E380
ENDCHAR
STARTCHAR summation
ENCODING 8721
SWIDTH 1000 0
DWIDTH 15 0
BBX 10 11 3 1
BITMAP
FF00
4100
2080
1000
0800
0600
0800
1000
2040
4080
FF80
ENDCHAR
STARTCHAR U_2215
ENCODING 8725
SWIDTH 1000 0
DWIDTH 15 0
BBX 7 14 4 -1
BITMAP
02
02
04
04
08
08
10
10
20
20
40
40
80
80
ENDCHAR
STARTCHAR radical
ENCODING 8730
SWIDTH 1000 0
DWIDTH 15 0
BBX 14 14 0 -1
BITMAP
00FC
0100
0100
0100
0200
0200
0200
0400
0400
4400
A800
2800
3000
1000
ENDCHAR
STARTCHAR proportional
ENCODING 8733
SWIDTH 1000 0
DWIDTH 15 0
BBX 12 7 1 2
BITMAP
3C30
4240
8180
8080
8180
4240
3C30
ENDCHAR
STARTCHAR infinity
ENCODING 8734
SWIDTH 1000 0
DWIDTH 15 0
BBX 13 6 1 3
BITMAP
78F0
8508
8208
8208
8508
78F0
ENDCHAR
STARTCHAR orthogonal
ENCODING 8735
SWIDTH 1000 0
DWIDTH 15 0
BBX 11 11 2 1
BITMAP
8000
8000
8000
8000
8000
8000
8000
8000
8000
8000
FFE0
ENDCHAR
STARTCHAR angle
ENCODING 8736
SWIDTH 1000 0
DWIDTH 15 0
BBX 11 11 2 1
BITMAP
0020
0040
0080
0100
0200
0400
0800
1000
2000
4000
FFE0
ENDCHAR
STARTCHAR U_2223
ENCODING 8739
SWIDTH 1000 0
DWIDTH 15 0
BBX 1 14 7 -1
BITMAP
80
80
80
80
80
80
80
80
80
80
80
80
80
80
ENDCHAR
STARTCHAR U_2225
ENCODING 8741
SWIDTH 1000 0
DWIDTH 15 0
BBX 4 14 5 -1
BITMAP
90
90
90
90
90
90
90
90
90
90
90
90
90
90
ENDCHAR
STARTCHAR logicaland
ENCODING 8743
SWIDTH 1000 0
DWIDTH 15 0
BBX 11 11 2 1
BITMAP
0400
0400
0A00
1100
1100
2080
2080
4040
4040
8020
8020
ENDCHAR
STARTCHAR logicalor
ENCODING 8744
SWIDTH 1000 0
DWIDTH 15 0
BBX 11 11 2 1
BITMAP
8020
8020
4040
4040
2080
2080
1100
1100
0A00
0A00
0400
ENDCHAR
STARTCHAR intersection
ENCODING 8745
SWIDTH 1000 0
DWIDTH 15 0
BBX 9 11 3 1
BITMAP
3E00
4100
8080
8080
8080
8080
8080
8080
8080
8080
8080
ENDCHAR
STARTCHAR U_on
ENCODING 8746
SWIDTH 1000 0
DWIDTH 15 0
BBX 9 11 3 1
BITMAP
8080
8080
8080
8080
8080
8080
8080
8080
8080
4100
3E00
ENDCHAR
STARTCHAR integral
ENCODING 8747
SWIDTH 1000 0
DWIDTH 15 0
BBX 5 14 5 -1
BITMAP
30
48
40
40
40
40
20
20
20
10
10
10
90
60
ENDCHAR
STARTCHAR U_222E
ENCODING 8750
SWIDTH 1000 0
DWIDTH 15 0
BBX 7 14 4 -1
BITMAP
18
24
20
38
64
A2
A2
92
92
4C
38
08
48
30
ENDCHAR
STARTCHAR therefore
ENCODING 8756
SWIDTH 1000 0
DWIDTH 15 0
BBX 11 11 2 0
BITMAP
0C00
0C00
0000
0000
0000
0000
0000
0000
0000
C060
C060
ENDCHAR
STARTCHAR U_2235
ENCODING 8757
SWIDTH 1000 0
DWIDTH 15 0
BBX 11 11 2 0
BITMAP
C060
C060
0000
0000
0000
0000
0000
0000
0000
0C00
0C00
ENDCHAR
STARTCHAR U_2236
ENCODING 8758
SWIDTH 1000 0
DWIDTH 15 0
BBX 1 9 7 1
BITMAP
80
00
00
00
00
00
00
00
80
ENDCHAR
STARTCHAR U_2237
ENCODING 8759
SWIDTH 1000 0
DWIDTH 15 0
BBX 9 9 3 1
BITMAP
8080
0000
0000
0000
0000
0000
0000
0000
8080
ENDCHAR
STARTCHAR similar
ENCODING 8764
SWIDTH 1000 0
DWIDTH 15 0
BBX 13 3 1 4
BITMAP
7C00
8308
00F0
ENDCHAR
STARTCHAR U_223D
ENCODING 8765
SWIDTH 1000 0
DWIDTH 15 0
BBX 14 6 0 3
BITMAP
3070
4088
8104
8204
4408
3830
ENDCHAR
STARTCHAR approxequal
ENCODING 8776
SWIDTH 1000 0
DWIDTH 15 0
BBX 13 10 1 1
BITMAP
3800
4600
8108
00F0
0000
0000
3800
4608
8110
00E0
ENDCHAR
STARTCHAR U_224C
ENCODING 8780
SWIDTH 1000 0
DWIDTH 15 0
BBX 11 11 2 1
BITMAP
61C0
8220
8420
8820
70C0
0000
0000
FFE0
0000
0000
FFE0
ENDCHAR
STARTCHAR U_2252
ENCODING 8786
SWIDTH 1000 0
DWIDTH 15 0
BBX 11 10 2 1
BITMAP
3000
3000
0000
FFE0
0000
0000
FFE0
0000
0300
0300
ENDCHAR
STARTCHAR notequal
ENCODING 8800
SWIDTH 1000 0
DWIDTH 15 0
BBX 9 9 3 1
BITMAP
0400
0400
FF80
0800
0800
FF80
1000
1000
1000
ENDCHAR
STARTCHAR equivalence
ENCODING 8801
SWIDTH 1000 0
DWIDTH 15 0
BBX 11 5 2 3
BITMAP
FFE0
0000
FFE0
0000
FFE0
ENDCHAR
STARTCHAR lessequal
ENCODING 8804
SWIDTH 1000 0
DWIDTH 15 0
BBX 11 13 2 -1
BITMAP
00C0
0300
0C00
3000
C000
3000
0C00
0300
60C0
1800
0600
0180
0060
ENDCHAR
STARTCHAR greaterequal
ENCODING 8805
SWIDTH 1000 0
DWIDTH 15 0
BBX 11 13 2 -1
BITMAP
6000
1800
0600
0180
0060
0180
0600
1800
60C0
0300
0C00
3000
C000
ENDCHAR
STARTCHAR U_2266
ENCODING 8806
SWIDTH 1000 0
DWIDTH 15 0
BBX 11 11 2 0
BITMAP
00E0
0700
3800
C000
3800
0700
00E0
0000
FFE0
0000
FFE0
ENDCHAR
STARTCHAR U_2267
ENCODING 8807
SWIDTH 1000 0
DWIDTH 15 0
BBX 11 11 2 0
BITMAP
E000
1C00
0380
0060
0380
1C00
E000
0000
FFE0
0000
FFE0
ENDCHAR
STARTCHAR U_226E
ENCODING 8814
SWIDTH 1000 0
DWIDTH 15 0
BBX 10 11 2 0
BITMAP
0440
0580
0600
1C00
6400
8400
6400
1C00
0600
0580
0440
ENDCHAR
STARTCHAR U_226F
ENCODING 8815
SWIDTH 1000 0
DWIDTH 15 0
BBX 10 11 3 0
BITMAP
8800
6800
1800
0E00
0980
0840
0980
0E00
1800
6800
8800
ENDCHAR
STARTCHAR circleplus
ENCODING 8853
SWIDTH 1000 0
DWIDTH 15 0
BBX 11 11 2 0
BITMAP
1F00
2480
4440
8420
8420
FFE0
8420
8420
4440
2480
1F00
ENDCHAR
STARTCHAR U_2299
ENCODING 8857
SWIDTH 1000 0
DWIDTH 15 0
BBX 11 11 2 0
BITMAP
1F00
2080
4040
8020
8C20
8C20
8020
8020
4040
2080
1F00
ENDCHAR
STARTCHAR perpendicular
ENCODING 8869
SWIDTH 1000 0
DWIDTH 15 0
BBX 11 11 2 1
BITMAP
0400
0400
0400
0400
0400
0400
0400
0400
0400
0400
FFE0
ENDCHAR
STARTCHAR U_22BF
ENCODING 8895
SWIDTH 1000 0
DWIDTH 15 0
BBX 10 10 3 1
BITMAP
0040
00C0
0140
0240
0440
0840
1040
2040
4040
FFC0
ENDCHAR
STARTCHAR U_2312
ENCODING 8978
SWIDTH 1000 0
DWIDTH 15 0
BBX 12 6 2 3
BITMAP
0F00
30C0
4020
4020
8010
8010
ENDCHAR
STARTCHAR U_2460
ENCODING 9312
SWIDTH 1000 0
DWIDTH 15 0
BBX 13 13 1 -1
BITMAP
0F80
1040
2220
4610
8208
8208
8208
8208
8208
4210
2220
1040
0F80
ENDCHAR
STARTCHAR U_2461
ENCODING 9313
SWIDTH 1000 0
DWIDTH 15 0
BBX 13 13 1 -1
BITMAP
0F80
1040
2720
4890
8888
8088
8708
8808
8808
4810
2FA0
1040
0F80
ENDCHAR
STARTCHAR U_2462
ENCODING 9314
SWIDTH 1000 0
DWIDTH 15 0
BBX 13 13 1 -1
BITMAP
0F80
1040
2F20
4090
8088
8708
8088
8088
8088
4090
2F20
1040
0F80
ENDCHAR
STARTCHAR U_2463
ENCODING 9315
SWIDTH 1000 0
DWIDTH 15 0
BBX 13 13 1 -1
BITMAP
0F80
1040
2720
4910
9108
9108
9108
9108
9F88
4110
2120
1040
0F80
ENDCHAR
STARTCHAR U_2464
ENCODING 9316
SWIDTH 1000 0
DWIDTH 15 0
BBX 13 13 1 -1
BITMAP
0F80
1040
2FA0
4810
8808
8F08
8088
8088
8088
4090
2F20
1040
0F80
ENDCHAR
STARTCHAR U_2465
ENCODING 9317
SWIDTH 1000 0
DWIDTH 15 0
BBX 13 13 1 -1
BITMAP
0F80
1040
2720
4810
8808
8F08
8888
8888
8888
4890
2720
1040
0F80
ENDCHAR
STARTCHAR U_2466
ENCODING 9318
SWIDTH 1000 0
DWIDTH 15 0
BBX 13 13 1 -1
BITMAP
0F80
1040
2FA0
4090
8088
8108
8208
8208
8208
4210
2220
1040
0F80
ENDCHAR
STARTCHAR U_2467
ENCODING 9319
SWIDTH 1000 0
DWIDTH 15 0
BBX 13 13 1 -1
BITMAP
0F80
1040
2720
4890
8888
8708
8888
8888
8888
4890
2720
1040
0F80
ENDCHAR
STARTCHAR U_2468
ENCODING 9320
SWIDTH 1000 0
DWIDTH 15 0
BBX 13 13 1 -1
BITMAP
0F80
1040
2720
4890
8888
8888
8888
8788
8088
4090
2720
1040
0F80
ENDCHAR
STARTCHAR U_2469
ENCODING 9321
SWIDTH 1000 0
DWIDTH 15 0
BBX 13 13 1 -1
BITMAP
0F80
1040
29A0
5A50
8A48
8A48
8A48
8A48
8A48
4A50
29A0
1040
0F80
ENDCHAR
STARTCHAR U_2474
ENCODING 9332
SWIDTH 1000 0
DWIDTH 15 0
BBX 14 13 0 -1
BITMAP
4008
4708
8104
8104
8104
8104
8104
8104
8104
8104
8104
47C8
0008
ENDCHAR
STARTCHAR U_2475
ENCODING 9333
SWIDTH 1000 0
DWIDTH 15 0
BBX 14 13 0 0
BITMAP
2000
4308
4488
8844
8844
8044
8084
8104
8204
8404
8404
8848
4FC8
ENDCHAR
STARTCHAR U_2476
ENCODING 9334
SWIDTH 1000 0
DWIDTH 15 0
BBX 15 14 0 -1
BITMAP
0008
2188
4664
4424
4022
8042
8182
8042
8022
4022
4422
4444
4384
2000
ENDCHAR
STARTCHAR U_2477
ENCODING 9335
SWIDTH 1000 0
DWIDTH 15 0
BBX 15 13 0 -1
BITMAP
2008
4088
4184
8284
8284
8482
8482
8882
8FE4
8084
4084
43C8
0008
ENDCHAR
STARTCHAR U_2478
ENCODING 9336
SWIDTH 1000 0
DWIDTH 15 0
BBX 15 14 0 -1
BITMAP
2008
47C8
4404
4404
8402
8402
8782
8042
8022
8022
8424
4444
4384
2000
ENDCHAR
STARTCHAR U_2479
ENCODING 9337
SWIDTH 1000 0
DWIDTH 15 0
BBX 14 13 0 0
BITMAP
2010
4190
4648
8408
8804
8804
8B84
8C44
8844
8844
8844
8488
4388
ENDCHAR
STARTCHAR U_247A
ENCODING 9338
SWIDTH 1000 0
DWIDTH 15 0
BBX 15 14 0 -1
BITMAP
0008
27E8
4424
4444
8042
8082
8082
8102
8102
8102
4104
4104
4108
0008
ENDCHAR
STARTCHAR U_247B
ENCODING 9339
SWIDTH 1000 0
DWIDTH 15 0
BBX 14 13 0 0
BITMAP
2000
4308
4488
8844
8844
8484
8704
8384
8444
8844
8844
4848
4788
ENDCHAR
STARTCHAR U_247C
ENCODING 9340
SWIDTH 1000 0
DWIDTH 15 0
BBX 14 13 0 0
BITMAP
2000
4308
4488
8884
8844
8844
8844
84C4
8744
8044
8044
4488
4708
ENDCHAR
STARTCHAR U_247D
ENCODING 9341
SWIDTH 1000 0
DWIDTH 15 0
BBX 15 13 0 -1
BITMAP
6408
4CE4
4494
8494
8492
8492
8492
8492
8492
8494
44A4
4E68
2008
ENDCHAR
STARTCHAR U_247E
ENCODING 9342
SWIDTH 1000 0
DWIDTH 15 0
BBX 14 13 0 -1
BITMAP
2008
4CC8
4444
8444
8444
8444
8444
8444
8444
8444
4448
4EE8
2000
ENDCHAR
STARTCHAR U_247F
ENCODING 9343
SWIDTH 1000 0
DWIDTH 15 0
BBX 15 13 0 -1
BITMAP
6468
4C94
4494
8494
8412
8412
8422
8442
8442
8484
4494
4EF8
2008
ENDCHAR
STARTCHAR U_2480
ENCODING 9344
SWIDTH 1000 0
DWIDTH 15 0
BBX 15 13 0 -1
BITMAP
2068
4C98
4494
8414
8412
8462
8412
8412
8412
8494
4494
4E68
2008
ENDCHAR
STARTCHAR U_2481
ENCODING 9345
SWIDTH 1000 0
DWIDTH 15 0
BBX 15 13 0 -1
BITMAP
2008
4C14
4414
8434
8454
8452
8492
8492
84FC
8414
4414
4E38
2008
ENDCHAR
STARTCHAR U_2482
ENCODING 9346
SWIDTH 1000 0
DWIDTH 15 0
BBX 15 13 0 -1
BITMAP
2008
44F8
4C84
8484
8484
84E2
8492
8412
8412
8494
4494
4E68
2008
ENDCHAR
STARTCHAR U_2483
ENCODING 9347
SWIDTH 1000 0
DWIDTH 15 0
BBX 15 13 0 -1
BITMAP
6428
4C54
4484
8484
8484
84E2
8492
8492
8494
8494
4494
4E68
2008
ENDCHAR
STARTCHAR U_2484
ENCODING 9348
SWIDTH 1000 0
DWIDTH 15 0
BBX 15 14 0 -1
BITMAP
0008
64F8
4C94
44A4
8424
8422
8422
8442
8442
8442
4444
4444
4E48
2008
ENDCHAR
STARTCHAR U_2485
ENCODING 9349
SWIDTH 1000 0
DWIDTH 15 0
BBX 15 13 0 -1
BITMAP
2068
4CA8
4494
8494
8494
8462
8462
8492
8494
8494
4494
4E68
2008
ENDCHAR
STARTCHAR U_2486
ENCODING 9350
SWIDTH 1000 0
DWIDTH 15 0
BBX 15 13 0 -1
BITMAP
6448
4CA4
4494
8494
8494
8492
8492
8472
8414
8414
4464
4E68
2008
ENDCHAR
STARTCHAR U_2487
ENCODING 9351
SWIDTH 1000 0
DWIDTH 15 0
BBX 15 14 0 -1
BITMAP
2000
4808
54E4
5294
9294
8294
8492
8492
8892
8894
9294
52A4
5E68
2008
ENDCHAR
STARTCHAR U_2488
ENCODING 9352
SWIDTH 1000 0
DWIDTH 15 0
BBX 9 12 5 -1
BITMAP
E000
2000
2000
2000
2000
2000
2000
2000
2000
2000
F800
0080
ENDCHAR
STARTCHAR U_2489
ENCODING 9353
SWIDTH 1000 0
DWIDTH 15 0
BBX 10 13 4 -1
BITMAP
3000
4800
8400
8400
0400
0800
1000
2000
4000
4000
8400
FC00
0040
ENDCHAR
STARTCHAR U_248A
ENCODING 9354
SWIDTH 1000 0
DWIDTH 15 0
BBX 10 13 4 -1
BITMAP
3000
CC00
8400
0400
0400
3800
0800
0400
0400
8400
8400
7800
0040
ENDCHAR
STARTCHAR U_248B
ENCODING 9355
SWIDTH 1000 0
DWIDTH 15 0
BBX 10 13 4 -1
BITMAP
0800
0800
1800
2800
2800
4800
4800
8800
8800
FE00
0800
1E00
0040
ENDCHAR
STARTCHAR U_248C
ENCODING 9356
SWIDTH 1000 0
DWIDTH 15 0
BBX 9 12 5 -1
BITMAP
F800
8000
8000
8000
F000
8800
0400
0400
8400
8800
7000
0080
ENDCHAR
STARTCHAR U_248D
ENCODING 9357
SWIDTH 1000 0
DWIDTH 15 0
BBX 10 13 4 -1
BITMAP
1800
6400
4000
8000
8000
B800
C400
8400
8400
8400
4800
3800
0040
ENDCHAR
STARTCHAR U_248E
ENCODING 9358
SWIDTH 1000 0
DWIDTH 15 0
BBX 10 13 4 -1
BITMAP
7E00
4400
8400
0800
0800
0800
1000
1000
1000
1000
1000
1000
0040
ENDCHAR
STARTCHAR U_248F
ENCODING 9359
SWIDTH 1000 0
DWIDTH 15 0
BBX 10 13 4 -1
BITMAP
3000
4800
8400
8400
4800
7000
3800
4400
8400
8400
8400
7800
0040
ENDCHAR
STARTCHAR U_2490
ENCODING 9360
SWIDTH 1000 0
DWIDTH 15 0
BBX 10 13 4 -1
BITMAP
3000
4800
8800
8400
8400
8400
4C00
7400
0400
0400
4800
7000
0040
ENDCHAR
STARTCHAR U_2491
ENCODING 9361
SWIDTH 1000 0
DWIDTH 15 0
BBX 10 13 4 -1
BITMAP
4000
CE00
4900
4900
4900
4900
4900
4900
4900
4900
4A00
E600
0040
ENDCHAR
STARTCHAR U_2492
ENCODING 9362
SWIDTH 1000 0
DWIDTH 15 0
BBX 10 12 4 -1
BITMAP
CC00
4400
4400
4400
4400
4400
4400
4400
4400
4400
EE00
0040
ENDCHAR
STARTCHAR U_2493
ENCODING 9363
SWIDTH 1000 0
DWIDTH 15 0
BBX 10 13 4 -1
BITMAP
4600
C900
4900
4900
4100
4100
4200
4400
4400
4800
4900
EF00
0040
ENDCHAR
STARTCHAR U_2494
ENCODING 9364
SWIDTH 1000 0
DWIDTH 15 0
BBX 10 13 4 -1
BITMAP
0600
C900
4900
4100
4100
4600
4100
4100
4100
4900
4900
E600
0040
ENDCHAR
STARTCHAR U_2495
ENCODING 9365
SWIDTH 1000 0
DWIDTH 15 0
BBX 10 12 4 -1
BITMAP
C100
4100
4300
4500
4500
4900
4900
4F80
4100
4100
E300
0040
ENDCHAR
STARTCHAR U_2496
ENCODING 9366
SWIDTH 1000 0
DWIDTH 15 0
BBX 10 13 4 -1
BITMAP
4F00
C800
4800
4800
4800
4E00
4100
4100
4100
4900
4900
E600
0040
ENDCHAR
STARTCHAR U_2497
ENCODING 9367
SWIDTH 1000 0
DWIDTH 15 0
BBX 10 13 4 -1
BITMAP
4200
C500
4800
4800
4800
4E00
4900
4900
4900
4900
4900
E600
0040
ENDCHAR
STARTCHAR U_2498
ENCODING 9368
SWIDTH 1000 0
DWIDTH 15 0
BBX 10 13 4 -1
BITMAP
4F00
C900
5200
4200
4200
4400
4400
4400
4400
4400
4400
E400
0040
ENDCHAR
STARTCHAR U_2499
ENCODING 9369
SWIDTH 1000 0
DWIDTH 15 0
BBX 10 13 4 -1
BITMAP
0200
CD00
4900
4900
4900
4600
4600
4900
4900
4900
4900
E600
0040
ENDCHAR
STARTCHAR U_249A
ENCODING 9370
SWIDTH 1000 0
DWIDTH 15 0
BBX 10 13 4 -1
BITMAP
4400
CA00
4900
4900
4900
4900
4900
4700
4100
4100
4A00
EE00
0040
ENDCHAR
STARTCHAR U_249B
ENCODING 9371
SWIDTH 1000 0
DWIDTH 15 0
BBX 11 13 3 -1
BITMAP
6000
9700
9480
9480
1480
2480
2480
4480
4480
8480
9500
F300
0020
ENDCHAR
STARTCHAR SF100000
ENCODING 9472
SWIDTH 1000 0
DWIDTH 15 0
BBX 15 1 0 5
BITMAP
FFFE
ENDCHAR
STARTCHAR U_2501
ENCODING 9473
SWIDTH 1000 0
DWIDTH 15 0
BBX 15 2 0 5
BITMAP
FFFE
FFFE
ENDCHAR
STARTCHAR SF110000
ENCODING 9474
SWIDTH 1000 0
DWIDTH 15 0
BBX 1 15 7 -2
BITMAP
80
80
80
80
80
80
80
80
80
80
80
80
80
80
80
ENDCHAR
STARTCHAR U_2503
ENCODING 9475
SWIDTH 1000 0
DWIDTH 15 0
BBX 2 15 6 -2
BITMAP
C0
C0
C0
C0
C0
C0
C0
C0
C0
C0
C0
C0
C0
C0
C0
ENDCHAR
STARTCHAR U_2504
ENCODING 9476
SWIDTH 1000 0
DWIDTH 15 0
BBX 13 1 1 5
BITMAP
E738
ENDCHAR
STARTCHAR U_2505
ENCODING 9477
SWIDTH 1000 0
DWIDTH 15 0
BBX 13 2 1 5
BITMAP
E738
E738
ENDCHAR
STARTCHAR U_2506
ENCODING 9478
SWIDTH 1000 0
DWIDTH 15 0
BBX 1 13 7 -1
BITMAP
80
80
80
00
00
80
80
80
00
00
80
80
80
ENDCHAR
STARTCHAR U_2507
ENCODING 9479
SWIDTH 1000 0
DWIDTH 15 0
BBX 2 13 6 -1
BITMAP
C0
C0
C0
00
00
C0
C0
C0
00
00
C0
C0
C0
ENDCHAR
STARTCHAR U_2508
ENCODING 9480
SWIDTH 1000 0
DWIDTH 15 0
BBX 15 1 0 5
BITMAP
EEEE
ENDCHAR
STARTCHAR U_2509
ENCODING 9481
SWIDTH 1000 0
DWIDTH 15 0
BBX 15 2 0 5
BITMAP
EEEE
EEEE
ENDCHAR
STARTCHAR U_250A
ENCODING 9482
SWIDTH 1000 0
DWIDTH 15 0
BBX 1 15 7 -2
BITMAP
80
80
80
00
80
80
80
00
80
80
80
00
80
80
80
ENDCHAR
STARTCHAR U_250B
ENCODING 9483
SWIDTH 1000 0
DWIDTH 15 0
BBX 2 15 6 -2
BITMAP
C0
C0
C0
00
C0
C0
C0
00
C0
C0
C0
00
C0
C0
C0
ENDCHAR
STARTCHAR SF010000
ENCODING 9484
SWIDTH 1000 0
DWIDTH 15 0
BBX 8 8 7 -2
BITMAP
FF
80
80
80
80
80
80
80
ENDCHAR
STARTCHAR U_250D
ENCODING 9485
SWIDTH 1000 0
DWIDTH 15 0
BBX 8 9 7 -2
BITMAP
FF
FF
80
80
80
80
80
80
80
ENDCHAR
STARTCHAR U_250E
ENCODING 9486
SWIDTH 1000 0
DWIDTH 15 0
BBX 9 8 6 -2
BITMAP
FF80
C000
C000
C000
C000
C000
C000
C000
ENDCHAR
STARTCHAR U_250F
ENCODING 9487
SWIDTH 1000 0
DWIDTH 15 0
BBX 9 9 6 -2
BITMAP
FF80
FF80
C000
C000
C000
C000
C000
C000
C000
ENDCHAR
STARTCHAR SF030000
ENCODING 9488
SWIDTH 1000 0
DWIDTH 15 0
BBX 8 8 0 -2
BITMAP
FF
01
01
01
01
01
01
01
ENDCHAR
STARTCHAR U_2511
ENCODING 9489
SWIDTH 1000 0
DWIDTH 15 0
BBX 8 9 0 -2
BITMAP
FF
FF
01
01
01
01
01
01
01
ENDCHAR
STARTCHAR U_2512
ENCODING 9490
SWIDTH 1000 0
DWIDTH 15 0
BBX 9 8 0 -2
BITMAP
FF80
0180
0180
0180
0180
0180
0180
0180
ENDCHAR
STARTCHAR U_2513
ENCODING 9491
SWIDTH 1000 0
DWIDTH 15 0
BBX 9 9 0 -2
BITMAP
FF80
FF80
0180
0180
0180
0180
0180
0180
0180
ENDCHAR
STARTCHAR SF020000
ENCODING 9492
SWIDTH 1000 0
DWIDTH 15 0
BBX 8 8 7 5
BITMAP
80
80
80
80
80
80
80
FF
ENDCHAR
STARTCHAR U_2515
ENCODING 9493
SWIDTH 1000 0
DWIDTH 15 0
BBX 8 9 7 4
BITMAP
80
80
80
80
80
80
80
FF
FF
ENDCHAR
STARTCHAR U_2516
ENCODING 9494
SWIDTH 1000 0
DWIDTH 15 0
BBX 9 8 6 5
BITMAP
C000
C000
C000
C000
C000
C000
C000
FF80
ENDCHAR
STARTCHAR U_2517
ENCODING 9495
SWIDTH 1000 0
DWIDTH 15 0
BBX 9 9 6 4
BITMAP
C000
C000
C000
C000
C000
C000
C000
FF80
FF80
ENDCHAR
STARTCHAR SF040000
ENCODING 9496
SWIDTH 1000 0
DWIDTH 15 0
BBX 8 8 0 5
BITMAP
01
01
01
01
01
01
01
FF
ENDCHAR
STARTCHAR U_2519
ENCODING 9497
SWIDTH 1000 0
DWIDTH 15 0
BBX 8 9 0 4
BITMAP
01
01
01
01
01
01
01
FF
FF
ENDCHAR
STARTCHAR U_251A
ENCODING 9498
SWIDTH 1000 0
DWIDTH 15 0
BBX 9 8 0 5
BITMAP
0180
0180
0180
0180
0180
0180
0180
FF80
ENDCHAR
STARTCHAR U_251B
ENCODING 9499
SWIDTH 1000 0
DWIDTH 15 0
BBX 9 9 0 4
BITMAP
0180
0180
0180
0180
0180
0180
0180
FF80
FF80
ENDCHAR
STARTCHAR SF080000
ENCODING 9500
SWIDTH 1000 0
DWIDTH 15 0
BBX 8 15 7 -2
BITMAP
80
80
80
80
80
80
80
FF
80
80
80
80
80
80
80
ENDCHAR
STARTCHAR U_251D
ENCODING 9501
SWIDTH 1000 0
DWIDTH 15 0
BBX 8 15 7 -2
BITMAP
80
80
80
80
80
80
FF
FF
80
80
80
80
80
80
80
ENDCHAR
STARTCHAR U_251E
ENCODING 9502
SWIDTH 1000 0
DWIDTH 15 0
BBX 8 15 7 -2
BITMAP
C0
C0
C0
C0
C0
C0
C0
FF
80
80
80
80
80
80
80
ENDCHAR
STARTCHAR U_251F
ENCODING 9503
SWIDTH 1000 0
DWIDTH 15 0
BBX 8 15 7 -2
BITMAP
80
80
80
80
80
80
80
FF
C0
C0
C0
C0
C0
C0
C0
ENDCHAR
STARTCHAR U_2520
ENCODING 9504
SWIDTH 1000 0
DWIDTH 15 0
BBX 9 15 6 -2
BITMAP
C000
C000
C000
C000
C000
C000
C000
FF80
C000
C000
C000
C000
C000
C000
C000
ENDCHAR
STARTCHAR U_2521
ENCODING 9505
SWIDTH 1000 0
DWIDTH 15 0
BBX 8 15 7 -2
BITMAP
C0
C0
C0
C0
C0
C0
FF
FF
80
80
80
80
80
80
80
ENDCHAR
STARTCHAR U_2522
ENCODING 9506
SWIDTH 1000 0
DWIDTH 15 0
BBX 8 15 7 -2
BITMAP
80
80
80
80
80
80
80
FF
FF
C0
C0
C0
C0
C0
C0
ENDCHAR
STARTCHAR U_2523
ENCODING 9507
SWIDTH 1000 0
DWIDTH 15 0
BBX 8 15 7 -2
BITMAP
C0
C0
C0
C0
C0
C0
FF
FF
C0
C0
C0
C0
C0
C0
C0
ENDCHAR
STARTCHAR SF090000
ENCODING 9508
SWIDTH 1000 0
DWIDTH 15 0
BBX 8 15 0 -2
BITMAP
01
01
01
01
01
01
01
FF
01
01
01
01
01
01
01
ENDCHAR
STARTCHAR U_2525
ENCODING 9509
SWIDTH 1000 0
DWIDTH 15 0
BBX 8 15 0 -2
BITMAP
01
01
01
01
01
01
FF
FF
01
01
01
01
01
01
01
ENDCHAR
STARTCHAR U_2526
ENCODING 9510
SWIDTH 1000 0
DWIDTH 15 0
BBX 8 15 0 -2
BITMAP
03
03
03
03
03
03
03
FF
01
01
01
01
01
01
01
ENDCHAR
STARTCHAR U_2527
ENCODING 9511
SWIDTH 1000 0
DWIDTH 15 0
BBX 8 15 0 -2
BITMAP
01
01
01
01
01
01
01
FF
03
03
03
03
03
03
03
ENDCHAR
STARTCHAR U_2528
ENCODING 9512
SWIDTH 1000 0
DWIDTH 15 0
BBX 8 15 0 -2
BITMAP
03
03
03
03
03
03
03
FF
03
03
03
03
03
03
03
ENDCHAR
STARTCHAR U_2529
ENCODING 9513
SWIDTH 1000 0
DWIDTH 15 0
BBX 8 15 0 -2
BITMAP
03
03
03
03
03
03
FF
FF
01
01
01
01
01
01
01
ENDCHAR
STARTCHAR U_252A
ENCODING 9514
SWIDTH 1000 0
DWIDTH 15 0
BBX 8 15 0 -2
BITMAP
01
01
01
01
01
01
01
FF
FF
03
03
03
03
03
03
ENDCHAR
STARTCHAR U_252B
ENCODING 9515
SWIDTH 1000 0
DWIDTH 15 0
BBX 8 15 0 -2
BITMAP
03
03
03
03
03
03
FF
FF
03
03
03
03
03
03
03
ENDCHAR
STARTCHAR SF060000
ENCODING 9516
SWIDTH 1000 0
DWIDTH 15 0
BBX 15 8 0 -2
BITMAP
FFFE
0100
0100
0100
0100
0100
0100
0100
ENDCHAR
STARTCHAR U_252D
ENCODING 9517
SWIDTH 1000 0
DWIDTH 15 0
BBX 15 8 0 -2
BITMAP
FFFE
FF00
0100
0100
0100
0100
0100
0100
ENDCHAR
STARTCHAR U_252E
ENCODING 9518
SWIDTH 1000 0
DWIDTH 15 0
BBX 15 8 0 -2
BITMAP
FFFE
01FE
0100
0100
0100
0100
0100
0100
ENDCHAR
STARTCHAR U_252F
ENCODING 9519
SWIDTH 1000 0
DWIDTH 15 0
BBX 15 9 0 -2
BITMAP
FFFE
FFFE
0100
0100
0100
0100
0100
0100
0100
ENDCHAR
STARTCHAR U_2530
ENCODING 9520
SWIDTH 1000 0
DWIDTH 15 0
BBX 15 8 0 -2
BITMAP
FFFE
0300
0300
0300
0300
0300
0300
0300
ENDCHAR
STARTCHAR U_2531
ENCODING 9521
SWIDTH 1000 0
DWIDTH 15 0
BBX 15 8 0 -2
BITMAP
FFFE
FF00
0300
0300
0300
0300
0300
0300
ENDCHAR
STARTCHAR U_2532
ENCODING 9522
SWIDTH 1000 0
DWIDTH 15 0
BBX 15 8 0 -2
BITMAP
FFFE
01FE
0180
0180
0180
0180
0180
0180
ENDCHAR
STARTCHAR U_2533
ENCODING 9523
SWIDTH 1000 0
DWIDTH 15 0
BBX 15 8 0 -2
BITMAP
FFFE
FFFE
0300
0300
0300
0300
0300
0300
ENDCHAR
STARTCHAR SF070000
ENCODING 9524
SWIDTH 1000 0
DWIDTH 15 0
BBX 15 8 0 5
BITMAP
0100
0100
0100
0100
0100
0100
0100
FFFE
ENDCHAR
STARTCHAR U_2535
ENCODING 9525
SWIDTH 1000 0
DWIDTH 15 0
BBX 15 8 0 5
BITMAP
0100
0100
0100
0100
0100
0100
FF00
FFFE
ENDCHAR
STARTCHAR U_2536
ENCODING 9526
SWIDTH 1000 0
DWIDTH 15 0
BBX 15 8 0 5
BITMAP
0100
0100
0100
0100
0100
0100
01FE
FFFE
ENDCHAR
STARTCHAR U_2537
ENCODING 9527
SWIDTH 1000 0
DWIDTH 15 0
BBX 15 8 0 5
BITMAP
0100
0100
0100
0100
0100
0100
FFFE
FFFE
ENDCHAR
STARTCHAR U_2538
ENCODING 9528
SWIDTH 1000 0
DWIDTH 15 0
BBX 15 8 0 5
BITMAP
0180
0180
0180
0180
0180
0180
0180
FFFE
ENDCHAR
STARTCHAR U_2539
ENCODING 9529
SWIDTH 1000 0
DWIDTH 15 0
BBX 15 8 0 5
BITMAP
0300
0300
0300
0300
0300
0300
FF00
FFFE
ENDCHAR
STARTCHAR U_253A
ENCODING 9530
SWIDTH 1000 0
DWIDTH 15 0
BBX 15 8 0 5
BITMAP
0180
0180
0180
0180
0180
0180
01FE
FFFE
ENDCHAR
STARTCHAR U_253B
ENCODING 9531
SWIDTH 1000 0
DWIDTH 15 0
BBX 15 8 0 5
BITMAP
0300
0300
0300
0300
0300
0300
FFFE
FFFE
ENDCHAR
STARTCHAR SF050000
ENCODING 9532
SWIDTH 1000 0
DWIDTH 15 0
BBX 15 15 0 -2
BITMAP
0100
0100
0100
0100
0100
0100
0100
FFFE
0100
0100
0100
0100
0100
0100
0100
ENDCHAR
STARTCHAR U_253D
ENCODING 9533
SWIDTH 1000 0
DWIDTH 15 0
BBX 15 15 0 -2
BITMAP
0100
0100
0100
0100
0100
0100
FF00
FFFE
0100
0100
0100
0100
0100
0100
0100
ENDCHAR
STARTCHAR U_253E
ENCODING 9534
SWIDTH 1000 0
DWIDTH 15 0
BBX 15 15 0 -2
BITMAP
0100
0100
0100
0100
0100
0100
01FE
FFFE
0100
0100
0100
0100
0100
0100
0100
ENDCHAR
STARTCHAR U_253F
ENCODING 9535
SWIDTH 1000 0
DWIDTH 15 0
BBX 15 15 0 -2
BITMAP
0100
0100
0100
0100
0100
0100
FFFE
FFFE
0100
0100
0100
0100
0100
0100
0100
ENDCHAR
STARTCHAR U_2540
ENCODING 9536
SWIDTH 1000 0
DWIDTH 15 0
BBX 15 15 0 -2
BITMAP
0300
0300
0300
0300
0300
0300
0300
FFFE
0100
0100
0100
0100
0100
0100
0100
ENDCHAR
STARTCHAR U_2541
ENCODING 9537
SWIDTH 1000 0
DWIDTH 15 0
BBX 15 15 0 -2
BITMAP
0100
0100
0100
0100
0100
0100
0100
FFFE
0300
0300
0300
0300
0300
0300
0300
ENDCHAR
STARTCHAR U_2542
ENCODING 9538
SWIDTH 1000 0
DWIDTH 15 0
BBX 15 15 0 -2
BITMAP
0300
0300
0300
0300
0300
0300
0300
FFFE
0300
0300
0300
0300
0300
0300
0300
ENDCHAR
STARTCHAR U_2543
ENCODING 9539
SWIDTH 1000 0
DWIDTH 15 0
BBX 15 15 0 -2
BITMAP
0300
0300
0300
0300
0300
0300
FF00
FFFE
0100
0100
0100
0100
0100
0100
0100
ENDCHAR
STARTCHAR U_2544
ENCODING 9540
SWIDTH 1000 0
DWIDTH 15 0
BBX 15 15 0 -2
BITMAP
0180
0180
0180
0180
0180
0180
01FE
FFFE
0100
0100
0100
0100
0100
0100
0100
ENDCHAR
STARTCHAR U_2545
ENCODING 9541
SWIDTH 1000 0
DWIDTH 15 0
BBX 15 15 0 -2
BITMAP
0100
0100
0100
0100
0100
0100
0100
FFFE
FF00
0300
0300
0300
0300
0300
0300
ENDCHAR
STARTCHAR U_2546
ENCODING 9542
SWIDTH 1000 0
DWIDTH 15 0
BBX 15 15 0 -2
BITMAP
0100
0100
0100
0100
0100
0100
0100
FFFE
01FE
0180
0180
0180
0180
0180
0180
ENDCHAR
STARTCHAR U_2547
ENCODING 9543
SWIDTH 1000 0
DWIDTH 15 0
BBX 15 15 0 -2
BITMAP
0300
0300
0300
0300
0300
0300
FFFE
FFFE
0100
0100
0100
0100
0100
0100
0100
ENDCHAR
STARTCHAR U_2548
ENCODING 9544
SWIDTH 1000 0
DWIDTH 15 0
BBX 15 15 0 -2
BITMAP
0100
0100
0100
0100
0100
0100
0100
FFFE
FFFE
0300
0300
0300
0300
0300
0300
ENDCHAR
STARTCHAR U_2549
ENCODING 9545
SWIDTH 1000 0
DWIDTH 15 0
BBX 15 15 0 -2
BITMAP
0300
0300
0300
0300
0300
0300
FF00
FFFE
0300
0300
0300
0300
0300
0300
0300
ENDCHAR
STARTCHAR U_254A
ENCODING 9546
SWIDTH 1000 0
DWIDTH 15 0
BBX 15 15 0 -2
BITMAP
0180
0180
0180
0180
0180
0180
01FE
FFFE
0180
0180
0180
0180
0180
0180
0180
ENDCHAR
STARTCHAR U_254B
ENCODING 9547
SWIDTH 1000 0
DWIDTH 15 0
BBX 15 15 0 -2
BITMAP
0300
0300
0300
0300
0300
0300
FFFE
FFFE
0100
0100
0100
0100
0100
0100
0100
ENDCHAR
STARTCHAR SF430000
ENCODING 9552
SWIDTH 1000 0
DWIDTH 15 0
BBX 15 3 0 4
BITMAP
FFFE
0000
FFFE
ENDCHAR
STARTCHAR SF240000
ENCODING 9553
SWIDTH 1000 0
DWIDTH 15 0
BBX 3 15 6 -2
BITMAP
A0
A0
A0
A0
A0
A0
A0
A0
A0
A0
A0
A0
A0
A0
A0
ENDCHAR
STARTCHAR SF510000
ENCODING 9554
SWIDTH 1000 0
DWIDTH 15 0
BBX 8 9 7 -2
BITMAP
FF
80
FF
80
80
80
80
80
80
ENDCHAR
STARTCHAR SF520000
ENCODING 9555
SWIDTH 1000 0
DWIDTH 15 0
BBX 9 8 6 -2
BITMAP
FF80
A000
A000
A000
A000
A000
A000
A000
ENDCHAR
STARTCHAR SF390000
ENCODING 9556
SWIDTH 1000 0
DWIDTH 15 0
BBX 9 9 6 -2
BITMAP
FF80
8000
BF80
A000
A000
A000
A000
A000
A000
ENDCHAR
STARTCHAR SF220000
ENCODING 9557
SWIDTH 1000 0
DWIDTH 15 0
BBX 8 9 0 -2
BITMAP
FF
01
FF
01
01
01
01
01
01
ENDCHAR
STARTCHAR SF210000
ENCODING 9558
SWIDTH 1000 0
DWIDTH 15 0
BBX 9 8 0 -2
BITMAP
FF80
0280
0280
0280
0280
0280
0280
0280
ENDCHAR
STARTCHAR SF250000
ENCODING 9559
SWIDTH 1000 0
DWIDTH 15 0
BBX 9 9 0 -2
BITMAP
FF80
0080
FE80
0280
0280
0280
0280
0280
0280
ENDCHAR
STARTCHAR SF500000
ENCODING 9560
SWIDTH 1000 0
DWIDTH 15 0
BBX 8 8 7 5
BITMAP
80
80
80
80
80
FF
80
FF
ENDCHAR
STARTCHAR SF490000
ENCODING 9561
SWIDTH 1000 0
DWIDTH 15 0
BBX 9 8 6 5
BITMAP
A000
A000
A000
A000
A000
A000
A000
FF80
ENDCHAR
STARTCHAR SF380000
ENCODING 9562
SWIDTH 1000 0
DWIDTH 15 0
BBX 9 8 6 5
BITMAP
A000
A000
A000
A000
A000
BF80
8000
FF80
ENDCHAR
STARTCHAR SF280000
ENCODING 9563
SWIDTH 1000 0
DWIDTH 15 0
BBX 8 8 0 5
BITMAP
01
01
01
01
01
FF
01
FF
ENDCHAR
STARTCHAR SF270000
ENCODING 9564
SWIDTH 1000 0
DWIDTH 15 0
BBX 9 8 0 5
BITMAP
0280
0280
0280
0280
0280
0280
0280
FF80
ENDCHAR
STARTCHAR SF260000
ENCODING 9565
SWIDTH 1000 0
DWIDTH 15 0
BBX 8 8 0 5
BITMAP
05
05
05
05
05
FD
01
FF
ENDCHAR
STARTCHAR SF360000
ENCODING 9566
SWIDTH 1000 0
DWIDTH 15 0
BBX 8 15 7 -2
BITMAP
80
80
80
80
80
80
FF
80
FF
80
80
80
80
80
80
ENDCHAR
STARTCHAR SF370000
ENCODING 9567
SWIDTH 1000 0
DWIDTH 15 0
BBX 9 15 6 -2
BITMAP
A000
A000
A000
A000
A000
A000
A000
BF80
A000
A000
A000
A000
A000
A000
A000
ENDCHAR
STARTCHAR SF420000
ENCODING 9568
SWIDTH 1000 0
DWIDTH 15 0
BBX 9 15 6 -2
BITMAP
A000
A000
A000
A000
A000
A000
BF80
8000
BF80
A000
A000
A000
A000
A000
A000
ENDCHAR
STARTCHAR SF190000
ENCODING 9569
SWIDTH 1000 0
DWIDTH 15 0
BBX 8 15 0 -2
BITMAP
01
01
01
01
01
01
FF
01
FF
01
01
01
01
01
01
ENDCHAR
STARTCHAR SF200000
ENCODING 9570
SWIDTH 1000 0
DWIDTH 15 0
BBX 9 15 0 -2
BITMAP
0280
0280
0280
0280
0280
0280
0280
FE80
0280
0280
0280
0280
0280
0280
0280
ENDCHAR
STARTCHAR SF230000
ENCODING 9571
SWIDTH 1000 0
DWIDTH 15 0
BBX 9 15 0 -2
BITMAP
0280
0280
0280
0280
0280
0280
FE80
0080
FE80
0280
0280
0280
0280
0280
0280
ENDCHAR
STARTCHAR SF470000
ENCODING 9572
SWIDTH 1000 0
DWIDTH 15 0
BBX 15 9 0 -2
BITMAP
FFFE
0000
FFFE
0100
0100
0100
0100
0100
0100
ENDCHAR
STARTCHAR SF480000
ENCODING 9573
SWIDTH 1000 0
DWIDTH 15 0
BBX 15 8 0 -2
BITMAP
FFFE
0280
0280
0280
0280
0280
0280
0280
ENDCHAR
STARTCHAR SF410000
ENCODING 9574
SWIDTH 1000 0
DWIDTH 15 0
BBX 15 9 0 -2
BITMAP
FFFE
0000
FEFE
0280
0280
0280
0280
0280
0280
ENDCHAR
STARTCHAR SF450000
ENCODING 9575
SWIDTH 1000 0
DWIDTH 15 0
BBX 15 9 0 4
BITMAP
0100
0100
0100
0100
0100
0100
FFFE
0000
FFFE
ENDCHAR
STARTCHAR SF460000
ENCODING 9576
SWIDTH 1000 0
DWIDTH 15 0
BBX 15 8 0 5
BITMAP
0280
0280
0280
0280
0280
0280
0280
FFFE
ENDCHAR
STARTCHAR SF400000
ENCODING 9577
SWIDTH 1000 0
DWIDTH 15 0
BBX 15 8 0 5
BITMAP
0280
0280
0280
0280
0280
FEFE
0000
FFFE
ENDCHAR
STARTCHAR SF540000
ENCODING 9578
SWIDTH 1000 0
DWIDTH 15 0
BBX 15 15 0 -2
BITMAP
0100
0100
0100
0100
0100
0100
FFFE
0000
FFFE
0100
0100
0100
0100
0100
0100
ENDCHAR
STARTCHAR SF530000
ENCODING 9579
SWIDTH 1000 0
DWIDTH 15 0
BBX 15 15 0 -2
BITMAP
0280
0280
0280
0280
0280
0280
0280
FEFE
0280
0280
0280
0280
0280
0280
0280
ENDCHAR
STARTCHAR SF440000
ENCODING 9580
SWIDTH 1000 0
DWIDTH 15 0
BBX 15 15 0 -2
BITMAP
0280
0280
0280
0280
0280
0280
FEFE
0000
FEFE
0280
0280
0280
0280
0280
0280
ENDCHAR
STARTCHAR U_256D
ENCODING 9581
SWIDTH 1000 0
DWIDTH 15 0
BBX 8 8 7 -2
BITMAP
07
18
20
40
40
80
80
80
ENDCHAR
STARTCHAR U_256E
ENCODING 9582
SWIDTH 1000 0
DWIDTH 15 0
BBX 8 8 0 -2
BITMAP
E0
18
04
04
02
02
01
01
ENDCHAR
STARTCHAR U_256F
ENCODING 9583
SWIDTH 1000 0
DWIDTH 15 0
BBX 8 8 0 5
BITMAP
01
01
02
02
04
08
10
E0
ENDCHAR
STARTCHAR U_2570
ENCODING 9584
SWIDTH 1000 0
DWIDTH 15 0
BBX 8 8 7 5
BITMAP
80
80
80
40
20
10
0C
03
ENDCHAR
STARTCHAR U_2571
ENCODING 9585
SWIDTH 1000 0
DWIDTH 15 0
BBX 15 15 0 -2
BITMAP
0002
0004
0008
0010
0020
0040
0080
0100
0200
0400
0800
1000
2000
4000
8000
ENDCHAR
STARTCHAR U_2572
ENCODING 9586
SWIDTH 1000 0
DWIDTH 15 0
BBX 15 15 0 -2
BITMAP
8000
4000
2000
1000
0800
0400
0200
0100
0080
0040
0020
0010
0008
0004
0002
ENDCHAR
STARTCHAR U_2573
ENCODING 9587
SWIDTH 1000 0
DWIDTH 15 0
BBX 15 15 0 -2
BITMAP
8002
4004
2008
1010
0820
0440
0280
0100
0280
0440
0820
1010
2008
4004
8002
ENDCHAR
STARTCHAR U_2574
ENCODING 9588
SWIDTH 1000 0
DWIDTH 15 0
BBX 15 1 0 12
BITMAP
FFFE
ENDCHAR
STARTCHAR U_2581
ENCODING 9601
SWIDTH 1000 0
DWIDTH 15 0
BBX 15 2 0 -2
BITMAP
FFFE
FFFE
ENDCHAR
STARTCHAR U_2582
ENCODING 9602
SWIDTH 1000 0
DWIDTH 15 0
BBX 15 4 0 -2
BITMAP
FFFE
FFFE
FFFE
FFFE
ENDCHAR
STARTCHAR U_2583
ENCODING 9603
SWIDTH 1000 0
DWIDTH 15 0
BBX 15 6 0 -2
BITMAP
FFFE
FFFE
FFFE
FFFE
FFFE
FFFE
ENDCHAR
STARTCHAR dnblock
ENCODING 9604
SWIDTH 1000 0
DWIDTH 15 0
BBX 15 8 0 -2
BITMAP
FFFE
FFFE
FFFE
FFFE
FFFE
FFFE
FFFE
FFFE
ENDCHAR
STARTCHAR U_2585
ENCODING 9605
SWIDTH 1000 0
DWIDTH 15 0
BBX 15 9 0 -2
BITMAP
FFFE
FFFE
FFFE
FFFE
FFFE
FFFE
FFFE
FFFE
FFFE
ENDCHAR
STARTCHAR U_2586
ENCODING 9606
SWIDTH 1000 0
DWIDTH 15 0
BBX 15 11 0 -2
BITMAP
FFFE
FFFE
FFFE
FFFE
FFFE
FFFE
FFFE
FFFE
FFFE
FFFE
FFFE
ENDCHAR
STARTCHAR U_2587
ENCODING 9607
SWIDTH 1000 0
DWIDTH 15 0
BBX 15 13 0 -2
BITMAP
FFFE
FFFE
FFFE
FFFE
FFFE
FFFE
FFFE
FFFE
FFFE
FFFE
FFFE
FFFE
FFFE
ENDCHAR
STARTCHAR block
ENCODING 9608
SWIDTH 1000 0
DWIDTH 15 0
BBX 15 15 0 -2
BITMAP
FFFE
FFFE
FFFE
FFFE
FFFE
FFFE
FFFE
FFFE
FFFE
FFFE
FFFE
FFFE
FFFE
FFFE
FFFE
ENDCHAR
STARTCHAR U_2589
ENCODING 9609
SWIDTH 1000 0
DWIDTH 15 0
BBX 13 15 0 -2
BITMAP
FFF8
FFF8
FFF8
FFF8
FFF8
FFF8
FFF8
FFF8
FFF8
FFF8
FFF8
FFF8
FFF8
FFF8
FFF8
ENDCHAR
STARTCHAR U_258A
ENCODING 9610
SWIDTH 1000 0
DWIDTH 15 0
BBX 11 15 0 -2
BITMAP
FFE0
FFE0
FFE0
FFE0
FFE0
FFE0
FFE0
FFE0
FFE0
FFE0
FFE0
FFE0
FFE0
FFE0
FFE0
ENDCHAR
STARTCHAR U_258B
ENCODING 9611
SWIDTH 1000 0
DWIDTH 15 0
BBX 9 15 0 -2
BITMAP
FF80
FF80
FF80
FF80
FF80
FF80
FF80
FF80
FF80
FF80
FF80
FF80
FF80
FF80
FF80
ENDCHAR
STARTCHAR lfblock
ENCODING 9612
SWIDTH 1000 0
DWIDTH 15 0
BBX 8 15 0 -2
BITMAP
FF
FF
FF
FF
FF
FF
FF
FF
FF
FF
FF
FF
FF
FF
FF
ENDCHAR
STARTCHAR U_258D
ENCODING 9613
SWIDTH 1000 0
DWIDTH 15 0
BBX 6 15 0 -2
BITMAP
FC
FC
FC
FC
FC
FC
FC
FC
FC
FC
FC
FC
FC
FC
FC
ENDCHAR
STARTCHAR U_258E
ENCODING 9614
SWIDTH 1000 0
DWIDTH 15 0
BBX 4 15 0 -2
BITMAP
F0
F0
F0
F0
F0
F0
F0
F0
F0
F0
F0
F0
F0
F0
F0
ENDCHAR
STARTCHAR U_258F
ENCODING 9615
SWIDTH 1000 0
DWIDTH 15 0
BBX 2 15 0 -2
BITMAP
C0
C0
C0
C0
C0
C0
C0
C0
C0
C0
C0
C0
C0
C0
C0
ENDCHAR
STARTCHAR dkshade
ENCODING 9619
SWIDTH 1000 0
DWIDTH 15 0
BBX 13 13 1 -1
BITMAP
FFF8
FFF8
FFF8
FFF8
FFF8
FFF8
FFF8
FFF8
FFF8
FFF8
FFF8
FFF8
FFF8
ENDCHAR
STARTCHAR U_2594
ENCODING 9620
SWIDTH 1000 0
DWIDTH 15 0
BBX 15 2 0 11
BITMAP
FFFE
FFFE
ENDCHAR
STARTCHAR U_2595
ENCODING 9621
SWIDTH 1000 0
DWIDTH 15 0
BBX 2 15 13 -2
BITMAP
C0
C0
C0
C0
C0
C0
C0
C0
C0
C0
C0
C0
C0
C0
C0
ENDCHAR
STARTCHAR filledbox
ENCODING 9632
SWIDTH 1000 0
DWIDTH 15 0
BBX 12 12 1 0
BITMAP
FFF0
FFF0
FFF0
FFF0
FFF0
FFF0
FFF0
FFF0
FFF0
FFF0
FFF0
FFF0
ENDCHAR
STARTCHAR H22073
ENCODING 9633
SWIDTH 1000 0
DWIDTH 15 0
BBX 12 12 1 -1
BITMAP
FFF0
8010
8010
8010
8010
8010
8010
8010
8010
8010
8010
FFF0
ENDCHAR
STARTCHAR triagup
ENCODING 9650
SWIDTH 1000 0
DWIDTH 15 0
BBX 13 12 1 0
BITMAP
0200
0200
0700
0700
0F80
1FC0
1FC0
3FE0
3FE0
7FF0
FFF8
FFF8
ENDCHAR
STARTCHAR U_25B3
ENCODING 9651
SWIDTH 1000 0
DWIDTH 15 0
BBX 13 12 1 0
BITMAP
0200
0600
0500
0900
1080
1040
2040
2020
4020
8010
8008
FFF8
ENDCHAR
STARTCHAR triagdn
ENCODING 9660
SWIDTH 1000 0
DWIDTH 15 0
BBX 13 11 1 0
BITMAP
FFF8
7FF0
7FF0
3FE0
1FE0
1FC0
0F80
0F80
0700
0200
0200
ENDCHAR
STARTCHAR U_25BD
ENCODING 9661
SWIDTH 1000 0
DWIDTH 15 0
BBX 13 11 1 0
BITMAP
FFF8
8010
4010
4020
2020
2040
1080
0880
0900
0500
0600
ENDCHAR
STARTCHAR U_25C6
ENCODING 9670
SWIDTH 1000 0
DWIDTH 15 0
BBX 13 14 1 -1
BITMAP
0200
0700
0F80
1FC0
3FC0
7FE0
FFF0
FFF8
7FF0
3FE0
1FC0
0F80
0700
0200
ENDCHAR
STARTCHAR U_25C7
ENCODING 9671
SWIDTH 1000 0
DWIDTH 15 0
BBX 14 14 0 -1
BITMAP
0100
0280
0440
0820
1010
2008
4004
8004
4008
2010
1020
0840
0480
0300
ENDCHAR
STARTCHAR circle
ENCODING 9675
SWIDTH 1000 0
DWIDTH 15 0
BBX 13 13 1 -1
BITMAP
0F80
1040
2020
4010
8008
8008
8008
8008
8008
4010
2020
1040
0F80
ENDCHAR
STARTCHAR U_25CE
ENCODING 9678
SWIDTH 1000 0
DWIDTH 15 0
BBX 13 13 1 -1
BITMAP
0F80
1040
2720
4890
9048
A028
A028
A028
9048
4890
2720
1040
0F80
ENDCHAR
STARTCHAR H18533
ENCODING 9679
SWIDTH 1000 0
DWIDTH 15 0
BBX 13 13 1 -1
BITMAP
0F80
1FC0
3FE0
7FF0
FFF8
FFF8
FFF8
FFF8
FFF8
7FF0
3FE0
1FC0
0F80
ENDCHAR
STARTCHAR U_25E2
ENCODING 9698
SWIDTH 1000 0
DWIDTH 15 0
BBX 15 15 0 -2
BITMAP
0002
0006
000E
001E
003E
007E
00FE
01FE
03FE
07FE
0FFE
1FFE
3FFE
7FFE
FFFE
ENDCHAR
STARTCHAR U_25E3
ENCODING 9699
SWIDTH 1000 0
DWIDTH 15 0
BBX 15 15 0 -2
BITMAP
8000
C000
E000
F000
F800
FC00
FE00
FF00
FF80
FFC0
FFE0
FFF0
FFF8
FFFC
FFFE
ENDCHAR
STARTCHAR U_25E4
ENCODING 9700
SWIDTH 1000 0
DWIDTH 15 0
BBX 14 14 0 -1
BITMAP
FFFC
FFF8
FFF0
FFE0
FFC0
FF80
FF00
FE00
FC00
F800
F000
E000
C000
8000
ENDCHAR
STARTCHAR U_25E5
ENCODING 9701
SWIDTH 1000 0
DWIDTH 15 0
BBX 14 14 1 -1
BITMAP
FFFC
7FFC
3FFC
1FFC
0FFC
07FC
03FC
01FC
00FC
007C
003C
001C
000C
0004
ENDCHAR
STARTCHAR U_2605
ENCODING 9733
SWIDTH 1000 0
DWIDTH 15 0
BBX 13 13 1 -1
BITMAP
0200
0200
0200
0700
0700
FFF8
3FE0
0FC0
0F80
1FC0
18C0
1040
2020
ENDCHAR
STARTCHAR U_2606
ENCODING 9734
SWIDTH 1000 0
DWIDTH 15 0
BBX 13 13 1 0
BITMAP
0200
0200
0600
0500
0500
F8F8
4010
2020
10C0
1040
1240
1DC0
1040
ENDCHAR
STARTCHAR U_2609
ENCODING 9737
SWIDTH 1000 0
DWIDTH 15 0
BBX 13 13 1 -1
BITMAP
0F80
1040
2020
4010
8008
8308
8308
8008
8008
4010
2020
1040
0F80
ENDCHAR
STARTCHAR female
ENCODING 9792
SWIDTH 1000 0
DWIDTH 15 0
BBX 9 14 3 -1
BITMAP
1C00
2200
2200
2200
2200
1C00
0800
0800
FF80
0800
0800
0800
0800
0800
ENDCHAR
STARTCHAR U_2641
ENCODING 9793
SWIDTH 1000 0
DWIDTH 15 0
BBX 11 11 2 0
BITMAP
1F00
2480
4440
8420
8420
FFE0
8420
8420
4440
2480
1F00
ENDCHAR
STARTCHAR male
ENCODING 9794
SWIDTH 1000 0
DWIDTH 15 0
BBX 7 13 4 -1
BITMAP
10
38
54
92
10
10
10
38
44
82
82
44
38
ENDCHAR
STARTCHAR U_2F00
ENCODING 12032
SWIDTH 1000 0
DWIDTH 15 0
BBX 13 2 1 6
BITMAP
0010
FFF8
ENDCHAR
STARTCHAR U_2F01
ENCODING 12033
SWIDTH 1000 0
DWIDTH 15 0
BBX 2 14 7 -1
BITMAP
80
C0
80
80
80
80
80
80
80
80
80
80
80
80
ENDCHAR
STARTCHAR U_2F02
ENCODING 12034
SWIDTH 1000 0
DWIDTH 15 0
BBX 4 5 5 4
BITMAP
80
40
20
10
10
ENDCHAR
STARTCHAR U_2F03
ENCODING 12035
SWIDTH 1000 0
DWIDTH 15 0
BBX 4 14 2 -1
BITMAP
10
10
10
10
10
10
10
10
10
10
20
20
40
80
ENDCHAR
STARTCHAR U_2F04
ENCODING 12036
SWIDTH 1000 0
DWIDTH 15 0
BBX 12 13 2 0
BITMAP
0100
FF80
0100
0200
0400
0800
1000
2000
4000
8020
8020
8030
7FE0
ENDCHAR
STARTCHAR U_2F05
ENCODING 12037
SWIDTH 1000 0
DWIDTH 15 0
BBX 3 14 7 -1
BITMAP
20
20
20
20
20
20
20
20
20
20
20
20
E0
20
ENDCHAR
STARTCHAR U_2F06
ENCODING 12038
SWIDTH 1000 0
DWIDTH 15 0
BBX 13 11 1 0
BITMAP
0040
3FE0
0000
0000
0000
0000
0000
0000
0000
0010
FFF8
ENDCHAR
STARTCHAR U_2F07
ENCODING 12039
SWIDTH 1000 0
DWIDTH 15 0
BBX 13 5 1 5
BITMAP
0400
0200
0200
0010
FFF8
ENDCHAR
STARTCHAR U_2F08
ENCODING 12040
SWIDTH 1000 0
DWIDTH 15 0
BBX 13 14 1 -1
BITMAP
0200
0200
0200
0200
0200
0200
0200
0200
0200
0500
0880
1040
2038
C010
ENDCHAR
STARTCHAR U_2F09
ENCODING 12041
SWIDTH 1000 0
DWIDTH 15 0
BBX 14 14 0 -1
BITMAP
0880
0CC0
0880
0880
0880
0880
0880
0880
0880
1080
1088
2088
408C
8078
ENDCHAR
STARTCHAR U_2F0A
ENCODING 12042
SWIDTH 1000 0
DWIDTH 15 0
BBX 13 13 1 -1
BITMAP
1C00
0200
0200
0200
0200
0500
0500
0880
0880
1040
2030
4018
8008
ENDCHAR
STARTCHAR U_2F0B
ENCODING 12043
SWIDTH 1000 0
DWIDTH 15 0
BBX 14 14 0 -1
BITMAP
0080
0080
0080
0880
0880
0840
0840
0840
1020
1020
2010
2008
400C
8004
ENDCHAR
STARTCHAR U_2F0C
ENCODING 12044
SWIDTH 1000 0
DWIDTH 15 0
BBX 13 14 1 -1
BITMAP
8010
FFF8
8010
8010
8010
8010
8010
8010
8010
8010
8010
8090
8070
8020
ENDCHAR
STARTCHAR U_2F0D
ENCODING 12045
SWIDTH 1000 0
DWIDTH 15 0
BBX 13 4 1 5
BITMAP
4008
7FF8
4010
8020
ENDCHAR
STARTCHAR U_2F0E
ENCODING 12046
SWIDTH 1000 0
DWIDTH 15 0
BBX 6 14 4 -1
BITMAP
40
20
10
14
08
08
10
10
20
E0
20
20
20
20
ENDCHAR
STARTCHAR U_2F0F
ENCODING 12047
SWIDTH 1000 0
DWIDTH 15 0
BBX 14 14 0 -1
BITMAP
1080
1FC0
1080
1080
1080
1080
1080
1080
1080
1080
2088
2088
408C
8078
ENDCHAR
STARTCHAR U_2F10
ENCODING 12048
SWIDTH 1000 0
DWIDTH 15 0
BBX 11 12 2 -1
BITMAP
8020
8020
8020
8020
8020
8020
8020
8020
8020
8020
FFE0
8020
ENDCHAR
STARTCHAR U_2F11
ENCODING 12049
SWIDTH 1000 0
DWIDTH 15 0
BBX 14 14 0 -1
BITMAP
0008
3FFC
0208
0208
0208
0208
0208
0208
0208
0408
0408
0888
3070
C020
ENDCHAR
STARTCHAR U_2F12
ENCODING 12050
SWIDTH 1000 0
DWIDTH 15 0
BBX 13 14 1 -1
BITMAP
0200
0200
0200
0210
7FF8
0210
0210
0210
0410
0410
0810
1110
20E0
C040
ENDCHAR
STARTCHAR U_2F13
ENCODING 12051
SWIDTH 1000 0
DWIDTH 15 0
BBX 14 14 0 -1
BITMAP
1000
1008
1FFC
2008
2008
4008
8008
0008
0008
0008
0008
0088
0070
0020
ENDCHAR
STARTCHAR U_2F14
ENCODING 12052
SWIDTH 1000 0
DWIDTH 15 0
BBX 14 14 0 -1
BITMAP
1000
1800
1030
1020
1040
1080
1100
1600
1800
3000
D008
1008
100C
0FF8
ENDCHAR
STARTCHAR U_2F15
ENCODING 12053
SWIDTH 1000 0
DWIDTH 15 0
BBX 12 14 2 -1
BITMAP
0040
FFE0
8000
8000
8000
8000
8000
8000
8000
8000
8000
8020
FFF0
8000
ENDCHAR
STARTCHAR U_2F16
ENCODING 12054
SWIDTH 1000 0
DWIDTH 15 0
BBX 13 13 1 -1
BITMAP
0010
FFF8
4000
4000
4000
4000
4000
4000
4000
4000
4000
4010
7FF8
ENDCHAR
STARTCHAR U_2F17
ENCODING 12055
SWIDTH 1000 0
DWIDTH 15 0
BBX 13 14 1 -1
BITMAP
0200
0200
0200
0200
0200
0210
FFF8
0200
0200
0200
0200
0200
0200
0200
ENDCHAR
STARTCHAR U_2F18
ENCODING 12056
SWIDTH 1000 0
DWIDTH 15 0
BBX 6 14 6 -1
BITMAP
80
80
80
80
80
E0
90
88
84
84
80
80
80
80
ENDCHAR
STARTCHAR U_2F19
ENCODING 12057
SWIDTH 1000 0
DWIDTH 15 0
BBX 6 14 5 -1
BITMAP
88
FC
88
88
88
88
88
88
88
B8
90
80
80
80
ENDCHAR
STARTCHAR U_2F1A
ENCODING 12058
SWIDTH 1000 0
DWIDTH 15 0
BBX 14 14 0 -1
BITMAP
2008
3FFC
2000
2000
2000
2000
2000
2000
2000
2000
2000
4000
4000
8000
ENDCHAR
STARTCHAR U_2F1B
ENCODING 12059
SWIDTH 1000 0
DWIDTH 15 0
BBX 14 12 0 0
BITMAP
0180
0100
0200
0200
0400
0400
0840
0820
1010
11E8
FE0C
6004
ENDCHAR
STARTCHAR U_2F1C
ENCODING 12060
SWIDTH 1000 0
DWIDTH 15 0
BBX 13 14 1 -1
BITMAP
0040
7FE0
1040
1040
1040
0880
0880
0500
0500
0200
0500
0880
3060
C018
ENDCHAR
STARTCHAR U_2F1D
ENCODING 12061
SWIDTH 1000 0
DWIDTH 15 0
BBX 11 12 2 0
BITMAP
8040
FFE0
8040
8040
8040
8040
8040
8040
8040
8040
FFC0
8040
ENDCHAR
STARTCHAR U_2F1E
ENCODING 12062
SWIDTH 1000 0
DWIDTH 15 0
BBX 12 14 2 -1
BITMAP
8020
FFF0
8020
8020
8020
8020
8020
8020
8020
8020
8020
8020
FFE0
8020
ENDCHAR
STARTCHAR U_2F1F
ENCODING 12063
SWIDTH 1000 0
DWIDTH 15 0
BBX 13 14 1 -1
BITMAP
0200
0200
0200
0200
0200
0220
7FF0
0200
0200
0200
0200
0200
0210
FFF8
ENDCHAR
STARTCHAR U_2F20
ENCODING 12064
SWIDTH 1000 0
DWIDTH 15 0
BBX 13 13 1 0
BITMAP
0200
0200
0200
0200
0210
FFF8
0200
0200
0200
0200
0200
0220
7FF0
ENDCHAR
STARTCHAR U_2F21
ENCODING 12065
SWIDTH 1000 0
DWIDTH 15 0
BBX 12 8 2 5
BITMAP
1000
1080
1FC0
3080
4900
8600
0900
F0F0
ENDCHAR
STARTCHAR U_2F22
ENCODING 12066
SWIDTH 1000 0
DWIDTH 15 0
BBX 14 14 0 -1
BITMAP
0400
0400
2420
17F0
0820
0820
1440
2440
4280
0100
0180
0240
0C30
F00C
ENDCHAR
STARTCHAR U_2F23
ENCODING 12067
SWIDTH 1000 0
DWIDTH 15 0
BBX 12 14 1 -1
BITMAP
0400
0400
0420
07F0
0820
1020
2840
C440
0480
0100
0200
0C00
3000
C000
ENDCHAR
STARTCHAR U_2F24
ENCODING 12068
SWIDTH 1000 0
DWIDTH 15 0
BBX 13 14 1 -1
BITMAP
0200
0200
0200
0210
FFF8
0200
0200
0500
0500
0880
0880
1040
2038
C010
ENDCHAR
STARTCHAR U_2F25
ENCODING 12069
SWIDTH 1000 0
DWIDTH 15 0
BBX 13 14 1 -1
BITMAP
0400
0400
0400
0410
FFF8
0480
0480
0880
0880
1080
0D00
0300
0CC0
7030
ENDCHAR
STARTCHAR U_2F26
ENCODING 12070
SWIDTH 1000 0
DWIDTH 15 0
BBX 13 14 1 -1
BITMAP
0020
FFF0
0080
0100
0200
0210
FFF8
0200
0200
0200
0200
1200
0E00
0400
ENDCHAR
STARTCHAR U_2F27
ENCODING 12071
SWIDTH 1000 0
DWIDTH 15 0
BBX 13 5 1 5
BITMAP
0400
4208
7FF8
4010
8020
ENDCHAR
STARTCHAR U_2F28
ENCODING 12072
SWIDTH 1000 0
DWIDTH 15 0
BBX 13 14 1 -1
BITMAP
0080
0080
0080
0090
FFF8
0080
0080
1080
0880
0880
0080
0080
0780
0100
ENDCHAR
STARTCHAR U_2F29
ENCODING 12073
SWIDTH 1000 0
DWIDTH 15 0
BBX 14 14 0 -1
BITMAP
0100
0100
0100
0100
0100
1920
1110
2108
4104
8104
0100
0900
0700
0200
ENDCHAR
STARTCHAR U_2F2A
ENCODING 12074
SWIDTH 1000 0
DWIDTH 15 0
BBX 14 14 0 -1
BITMAP
0400
0400
0400
0410
FFF8
0400
0500
0500
0900
0900
1108
2108
410C
80F8
ENDCHAR
STARTCHAR U_2F2B
ENCODING 12075
SWIDTH 1000 0
DWIDTH 15 0
BBX 14 14 0 -1
BITMAP
0008
1FFC
1008
1008
1008
1FF8
1008
1000
1000
1000
2000
2000
4000
8000
ENDCHAR
STARTCHAR U_2F2C
ENCODING 12076
SWIDTH 1000 0
DWIDTH 15 0
BBX 13 14 0 -1
BITMAP
0100
0100
2108
2108
2108
2108
2108
3FF8
2108
0100
0200
0400
1800
E000
ENDCHAR
STARTCHAR U_2F2D
ENCODING 12077
SWIDTH 1000 0
DWIDTH 15 0
BBX 11 14 2 -1
BITMAP
0400
0400
0400
8420
8420
8420
8420
8420
8420
8420
8420
8420
FFE0
8020
ENDCHAR
STARTCHAR U_2F2E
ENCODING 12078
SWIDTH 1000 0
DWIDTH 15 0
BBX 12 14 1 -1
BITMAP
1110
1110
2220
2220
4440
4440
8880
8880
4440
4440
2220
2220
1110
1110
ENDCHAR
STARTCHAR U_2F2F
ENCODING 12079
SWIDTH 1000 0
DWIDTH 15 0
BBX 13 12 1 0
BITMAP
0020
7FF0
0200
0200
0200
0200
0200
0200
0200
0200
0210
FFF8
ENDCHAR
STARTCHAR U_2F30
ENCODING 12080
SWIDTH 1000 0
DWIDTH 15 0
BBX 12 14 2 -1
BITMAP
0040
FFE0
0040
0040
0040
0040
FFC0
8040
8000
8000
8020
8020
8030
7FE0
ENDCHAR
STARTCHAR U_2F31
ENCODING 12081
SWIDTH 1000 0
DWIDTH 15 0
BBX 12 14 2 -1
BITMAP
0400
0400
0420
FFF0
8420
8420
8420
8420
8420
8420
85E0
8440
0400
0400
ENDCHAR
STARTCHAR U_2F32
ENCODING 12082
SWIDTH 1000 0
DWIDTH 15 0
BBX 13 14 1 -1
BITMAP
0020
7FF0
0200
0200
0200
0210
FFF8
0200
0200
0200
0200
0200
0200
0200
ENDCHAR
STARTCHAR U_2F33
ENCODING 12083
SWIDTH 1000 0
DWIDTH 15 0
BBX 11 13 2 -1
BITMAP
1800
1000
1000
2180
4100
FE00
4400
0800
1080
2040
4060
FFA0
4020
ENDCHAR
STARTCHAR U_2F34
ENCODING 12084
SWIDTH 1000 0
DWIDTH 15 0
BBX 14 14 0 -1
BITMAP
0200
0180
0088
3FFC
2000
2000
2000
2000
2000
2000
2000
2000
4000
8000
ENDCHAR
STARTCHAR U_2F35
ENCODING 12085
SWIDTH 1000 0
DWIDTH 15 0
BBX 13 14 1 -1
BITMAP
1000
F000
2000
2000
4000
FC00
0800
0800
9000
9000
6000
2000
5000
8FF8
ENDCHAR
STARTCHAR U_2F36
ENCODING 12086
SWIDTH 1000 0
DWIDTH 15 0
BBX 13 14 1 -1
BITMAP
1040
1040
1040
1040
1040
1050
FFF8
1040
1040
1040
1040
2040
2040
4040
ENDCHAR
STARTCHAR U_2F37
ENCODING 12087
SWIDTH 1000 0
DWIDTH 15 0
BBX 14 14 0 -1
BITMAP
0200
0240
0220
0220
0208
FFFC
0100
0100
0100
0080
0088
0048
0028
001C
ENDCHAR
STARTCHAR U_2F38
ENCODING 12088
SWIDTH 1000 0
DWIDTH 15 0
BBX 11 14 2 -1
BITMAP
0040
FFE0
0040
0040
7FC0
4040
4000
8000
FFC0
0040
0040
0840
0780
0100
ENDCHAR
STARTCHAR U_2F39
ENCODING 12089
SWIDTH 1000 0
DWIDTH 15 0
BBX 12 14 2 -1
BITMAP
0020
FFF0
0020
0020
0020
0020
0020
7FE0
0020
0020
0020
0020
FFE0
0020
ENDCHAR
STARTCHAR U_2F3A
ENCODING 12090
SWIDTH 1000 0
DWIDTH 15 0
BBX 6 13 4 -1
BITMAP
18
10
20
4C
08
10
20
4C
08
10
20
40
80
ENDCHAR
STARTCHAR U_2F3B
ENCODING 12091
SWIDTH 1000 0
DWIDTH 15 0
BBX 7 14 3 -1
BITMAP
0C
08
10
26
44
08
18
28
48
88
08
08
08
08
ENDCHAR
STARTCHAR U_2F3C
ENCODING 12092
SWIDTH 1000 0
DWIDTH 15 0
BBX 13 14 1 -1
BITMAP
0400
0300
0180
0880
0800
0820
4810
4818
4808
C800
8820
0820
0830
07E0
ENDCHAR
STARTCHAR U_2F3D
ENCODING 12093
SWIDTH 1000 0
DWIDTH 15 0
BBX 13 14 1 -1
BITMAP
0400
0480
0440
0410
04F8
FF00
0420
0440
0480
0300
0208
0510
18D0
E038
ENDCHAR
STARTCHAR U_2F3E
ENCODING 12094
SWIDTH 1000 0
DWIDTH 15 0
BBX 14 14 0 -1
BITMAP
1030
1FC0
1008
1FFC
1008
1008
1008
1FF8
1008
1000
2000
2000
4000
8000
ENDCHAR
STARTCHAR U_2F3F
ENCODING 12095
SWIDTH 1000 0
DWIDTH 15 0
BBX 14 14 0 -1
BITMAP
0020
0070
3F80
0100
0110
3FF8
0100
0108
FFFC
0100
0100
0900
0700
0200
ENDCHAR
STARTCHAR U_2F40
ENCODING 12096
SWIDTH 1000 0
DWIDTH 15 0
BBX 14 14 0 -1
BITMAP
0200
0200
0208
FFFC
0200
0220
3FF0
1020
0840
0480
0300
0480
1860
E01C
ENDCHAR
STARTCHAR U_2F41
ENCODING 12097
SWIDTH 1000 0
DWIDTH 15 0
BBX 12 14 2 -1
BITMAP
0400
0400
0420
07F0
0400
0440
FFE0
1080
1080
0900
0500
0600
1980
E070
ENDCHAR
STARTCHAR U_2F42
ENCODING 12098
SWIDTH 1000 0
DWIDTH 15 0
BBX 14 14 0 -1
BITMAP
0200
0100
0108
FFFC
0820
0820
0440
0440
0280
0100
0280
0440
1830
E00C
ENDCHAR
STARTCHAR U_2F43
ENCODING 12099
SWIDTH 1000 0
DWIDTH 15 0
BBX 13 14 1 -1
BITMAP
0080
1080
0C80
0480
0080
2080
1880
0890
00F8
0F80
F080
4080
0080
0080
ENDCHAR
STARTCHAR U_2F44
ENCODING 12100
SWIDTH 1000 0
DWIDTH 15 0
BBX 13 14 1 -1
BITMAP
2070
3F80
2000
2000
2010
3FF8
2080
2080
2080
2080
2080
4080
4080
8080
ENDCHAR
STARTCHAR U_2F45
ENCODING 12101
SWIDTH 1000 0
DWIDTH 15 0
BBX 14 14 0 -1
BITMAP
0300
0100
0088
7FFC
0200
0210
03F8
0210
0410
0410
0810
0910
30E0
C040
ENDCHAR
STARTCHAR U_2F46
ENCODING 12102
SWIDTH 1000 0
DWIDTH 15 0
BBX 14 13 0 -1
BITMAP
0010
3FF8
0200
0200
0208
7FFC
0280
0280
0480
0488
0888
308C
C078
ENDCHAR
STARTCHAR U_2F47
ENCODING 12103
SWIDTH 1000 0
DWIDTH 15 0
BBX 10 14 3 -1
BITMAP
8080
FFC0
8080
8080
8080
8080
FF80
8080
8080
8080
8080
FF80
8080
8080
ENDCHAR
STARTCHAR U_2F48
ENCODING 12104
SWIDTH 1000 0
DWIDTH 15 0
BBX 12 12 2 0
BITMAP
8020
FFF0
8020
8020
8020
FFE0
8020
8020
8020
8020
FFE0
8020
ENDCHAR
STARTCHAR U_2F49
ENCODING 12105
SWIDTH 1000 0
DWIDTH 15 0
BBX 12 14 1 -1
BITMAP
1020
1FF0
1020
1020
1FE0
1020
1020
1020
1FE0
1020
2020
2120
40E0
8040
ENDCHAR
STARTCHAR U_2F4A
ENCODING 12106
SWIDTH 1000 0
DWIDTH 15 0
BBX 13 14 1 -1
BITMAP
0200
0200
0200
0210
FFF8
0200
0700
0A80
1240
2220
4218
8208
0200
0200
ENDCHAR
STARTCHAR U_2F4B
ENCODING 12107
SWIDTH 1000 0
DWIDTH 15 0
BBX 14 14 0 -1
BITMAP
0800
0800
0808
0FFC
1008
2110
4100
0100
0280
0280
0440
0820
301C
C008
ENDCHAR
STARTCHAR U_2F4C
ENCODING 12108
SWIDTH 1000 0
DWIDTH 15 0
BBX 14 14 0 -1
BITMAP
0100
0100
0100
0100
1100
1110
11F8
1100
1100
1100
1100
1100
1108
FFFC
ENDCHAR
STARTCHAR U_2F4D
ENCODING 12109
SWIDTH 1000 0
DWIDTH 15 0
BBX 13 14 1 -1
BITMAP
0010
FFF8
0400
0840
0FE0
1040
1040
2C80
4480
0100
0200
0400
1800
6000
ENDCHAR
STARTCHAR U_2F4E
ENCODING 12110
SWIDTH 1000 0
DWIDTH 15 0
BBX 12 14 2 -1
BITMAP
2100
3F80
2100
2100
2100
40F0
8000
7F80
1080
1100
0A00
0600
1980
E070
ENDCHAR
STARTCHAR U_2F4F
ENCODING 12111
SWIDTH 1000 0
DWIDTH 15 0
BBX 13 14 1 -1
BITMAP
2020
3FF0
2220
2220
2220
2220
FFF8
4220
4220
4420
7FF8
0840
13C0
2080
ENDCHAR
STARTCHAR U_2F50
ENCODING 12112
SWIDTH 1000 0
DWIDTH 15 0
BBX 14 14 0 -1
BITMAP
0080
2080
2080
2098
2090
24A0
3EC0
2080
2080
2080
2088
2688
F88C
4078
ENDCHAR
STARTCHAR U_2F51
ENCODING 12113
SWIDTH 1000 0
DWIDTH 15 0
BBX 13 14 1 -1
BITMAP
0060
0380
7C00
0400
0430
7FC0
0400
0430
FFC0
0400
0408
0408
0408
03F8
ENDCHAR
STARTCHAR U_2F52
ENCODING 12114
SWIDTH 1000 0
DWIDTH 15 0
BBX 13 14 1 -1
BITMAP
0040
40E0
7F00
4200
4200
4220
7FF0
4200
4200
4100
4108
4888
F048
4038
ENDCHAR
STARTCHAR U_2F53
ENCODING 12115
SWIDTH 1000 0
DWIDTH 15 0
BBX 13 14 1 -1
BITMAP
2000
2020
3FF0
4000
5FE0
8000
7FE0
0040
0040
0040
0048
0048
0028
0018
ENDCHAR
STARTCHAR U_2F54
ENCODING 12116
SWIDTH 1000 0
DWIDTH 15 0
BBX 14 14 0 -1
BITMAP
0100
0100
0100
0118
0910
7D20
0940
0980
0940
1120
2118
490C
8704
0200
ENDCHAR
STARTCHAR U_2F55
ENCODING 12117
SWIDTH 1000 0
DWIDTH 15 0
BBX 14 14 0 -1
BITMAP
0100
0100
0100
0118
1110
1120
1140
2180
0100
0280
0440
0820
301C
C008
ENDCHAR
STARTCHAR U_2F56
ENCODING 12118
SWIDTH 1000 0
DWIDTH 15 0
BBX 13 14 1 -1
BITMAP
0020
2070
3FC0
2240
2240
2240
2240
2240
2240
2220
2220
4210
4218
8208
ENDCHAR
STARTCHAR U_2F57
ENCODING 12119
SWIDTH 1000 0
DWIDTH 15 0
BBX 14 14 0 -1
BITMAP
0C40
0820
1018
200C
4844
8840
0840
0480
0480
0300
0100
0280
0C60
F01C
ENDCHAR
STARTCHAR U_2F58
ENCODING 12120
SWIDTH 1000 0
DWIDTH 15 0
BBX 13 14 1 -1
BITMAP
0060
3040
0C80
0300
0CC0
7030
0080
0880
0900
0500
0200
0500
18C0
E038
ENDCHAR
STARTCHAR U_2F59
ENCODING 12121
SWIDTH 1000 0
DWIDTH 15 0
BBX 9 14 2 -1
BITMAP
0080
1080
1080
1080
1F80
1080
0080
FF80
1080
1080
1080
2080
4080
8080
ENDCHAR
STARTCHAR U_2F5A
ENCODING 12122
SWIDTH 1000 0
DWIDTH 15 0
BBX 13 14 1 -1
BITMAP
0100
2100
2100
2110
3FF8
2000
2000
2080
3FC0
2080
2080
4080
4080
8080
ENDCHAR
STARTCHAR U_2F5B
ENCODING 12123
SWIDTH 1000 0
DWIDTH 15 0
BBX 13 14 1 -1
BITMAP
0010
FFF8
0080
1080
2090
7FF8
0080
0280
0480
0880
1080
2080
C780
0100
ENDCHAR
STARTCHAR U_2F5C
ENCODING 12124
SWIDTH 1000 0
DWIDTH 15 0
BBX 13 14 1 -1
BITMAP
0200
0200
2200
2220
3FF0
4200
8200
0210
FFF8
0200
0200
0200
0200
0200
ENDCHAR
STARTCHAR U_2F5D
ENCODING 12125
SWIDTH 1000 0
DWIDTH 15 0
BBX 13 14 1 -1
BITMAP
0200
0280
0260
0220
0200
FFF8
0200
0500
0500
0880
0880
1040
2038
C010
ENDCHAR
STARTCHAR U_2F5E
ENCODING 12126
SWIDTH 1000 0
DWIDTH 15 0
BBX 14 14 0 -1
BITMAP
0200
0108
FFFC
0200
0200
0460
0BC0
3C80
1100
0200
0420
0BF0
3C18
1008
ENDCHAR
STARTCHAR U_2F5F
ENCODING 12127
SWIDTH 1000 0
DWIDTH 15 0
BBX 13 14 1 -1
BITMAP
0020
7FF0
0200
0200
0200
0200
0240
3FE0
0200
0280
0240
0240
0210
FFF8
ENDCHAR
STARTCHAR U_2F60
ENCODING 12128
SWIDTH 1000 0
DWIDTH 15 0
BBX 13 14 1 -1
BITMAP
0030
21C0
3E40
2240
2240
2240
2240
2240
2240
2220
22A0
4290
4358
8248
ENDCHAR
STARTCHAR U_2F61
ENCODING 12129
SWIDTH 1000 0
DWIDTH 15 0
BBX 14 14 0 -1
BITMAP
0008
FFFC
0800
0840
0FE0
1040
1440
1240
1240
2040
2044
2644
F844
403C
ENDCHAR
STARTCHAR U_2F62
ENCODING 12130
SWIDTH 1000 0
DWIDTH 15 0
BBX 13 14 1 -1
BITMAP
1040
1040
1050
FFF8
1040
1040
1040
1FC0
1040
1040
1040
1040
1FC0
1040
ENDCHAR
STARTCHAR U_2F63
ENCODING 12131
SWIDTH 1000 0
DWIDTH 15 0
BBX 13 14 1 -1
BITMAP
0200
2200
2200
2220
3FF0
4200
4200
8240
3FE0
0200
0200
0200
0210
FFF8
ENDCHAR
STARTCHAR U_2F64
ENCODING 12132
SWIDTH 1000 0
DWIDTH 15 0
BBX 13 14 1 -1
BITMAP
2010
3FF8
2210
2210
3FF0
2210
2210
2210
3FF0
2210
2210
2290
4270
8220
ENDCHAR
STARTCHAR U_2F65
ENCODING 12133
SWIDTH 1000 0
DWIDTH 15 0
BBX 12 13 2 -1
BITMAP
8020
FFF0
8420
8420
8420
8420
FFE0
8420
8420
8420
8420
FFE0
8020
ENDCHAR
STARTCHAR U_2F66
ENCODING 12134
SWIDTH 1000 0
DWIDTH 15 0
BBX 14 14 0 -1
BITMAP
0008
7FFC
0108
0110
0100
1100
1110
11F8
1100
1100
1100
2900
C500
83FC
ENDCHAR
STARTCHAR U_2F67
ENCODING 12135
SWIDTH 1000 0
DWIDTH 15 0
BBX 14 14 0 -1
BITMAP
0100
1088
1FFC
D000
5000
3000
1000
3000
D000
9000
1000
2000
4000
8000
ENDCHAR
STARTCHAR U_2F68
ENCODING 12136
SWIDTH 1000 0
DWIDTH 15 0
BBX 13 7 1 5
BITMAP
FC40
0A80
4910
30A0
2040
4020
8018
ENDCHAR
STARTCHAR U_2F69
ENCODING 12137
SWIDTH 1000 0
DWIDTH 15 0
BBX 11 14 3 -1
BITMAP
0800
0800
9040
FFE0
8040
8040
8040
FFC0
8040
8040
8040
8040
FFC0
8040
ENDCHAR
STARTCHAR U_2F6A
ENCODING 12138
SWIDTH 1000 0
DWIDTH 15 0
BBX 13 14 0 -1
BITMAP
0100
0100
1108
1FF8
1110
1100
1FF0
1420
1220
1240
2140
2080
4360
8C18
ENDCHAR
STARTCHAR U_2F6B
ENCODING 12139
SWIDTH 1000 0
DWIDTH 15 0
BBX 14 12 0 0
BITMAP
2010
3FF8
2490
2490
2490
2490
2490
2490
2490
2490
2490
FFFC
ENDCHAR
STARTCHAR U_2F6C
ENCODING 12140
SWIDTH 1000 0
DWIDTH 15 0
BBX 10 14 3 -1
BITMAP
8080
FFC0
8080
8080
8080
FF80
8080
8080
FF80
8080
8080
8080
FF80
8080
ENDCHAR
STARTCHAR U_2F6D
ENCODING 12141
SWIDTH 1000 0
DWIDTH 15 0
BBX 13 14 1 -1
BITMAP
0020
3FF0
0440
0380
0110
FFF8
0310
0520
0900
1100
2100
4100
8F00
0200
ENDCHAR
STARTCHAR U_2F6E
ENCODING 12142
SWIDTH 1000 0
DWIDTH 15 0
BBX 13 14 1 -1
BITMAP
1000
1020
1FF0
2200
4200
0200
0210
FFF8
0200
0500
0880
1060
2030
4010
ENDCHAR
STARTCHAR U_2F6F
ENCODING 12143
SWIDTH 1000 0
DWIDTH 15 0
BBX 13 14 1 -1
BITMAP
0010
FFF8
0400
0400
0800
1020
1FF0
3020
5020
9020
1020
1020
1FE0
1020
ENDCHAR
STARTCHAR U_2F70
ENCODING 12144
SWIDTH 1000 0
DWIDTH 15 0
BBX 14 14 0 -1
BITMAP
0020
1FF0
0000
0000
0008
7FFC
0100
0100
1940
1120
2118
490C
8704
0200
ENDCHAR
STARTCHAR U_2F71
ENCODING 12145
SWIDTH 1000 0
DWIDTH 15 0
BBX 12 14 2 -1
BITMAP
0400
0400
8420
FFF0
8820
8820
8A20
9120
97A0
B8A0
8020
8020
81E0
8040
ENDCHAR
STARTCHAR U_2F72
ENCODING 12146
SWIDTH 1000 0
DWIDTH 15 0
BBX 13 14 1 -1
BITMAP
0020
01F0
7E00
0200
0210
FFF8
0200
0700
0A80
1240
2230
4218
8208
0200
ENDCHAR
STARTCHAR U_2F73
ENCODING 12147
SWIDTH 1000 0
DWIDTH 15 0
BBX 13 14 1 -1
BITMAP
0400
0200
4208
7FF8
8010
8120
0900
0900
1080
1080
2040
2060
4030
8010
ENDCHAR
STARTCHAR U_2F74
ENCODING 12148
SWIDTH 1000 0
DWIDTH 15 0
BBX 14 13 0 0
BITMAP
0200
0100
0110
7FF8
0000
1020
0840
0840
0440
0480
0480
0108
FFFC
ENDCHAR
STARTCHAR U_2F75
ENCODING 12149
SWIDTH 1000 0
DWIDTH 15 0
BBX 14 14 0 -1
BITMAP
1040
1040
1040
2080
3EFC
5110
9210
1010
1010
1010
1010
1090
1070
1020
ENDCHAR
STARTCHAR U_2F76
ENCODING 12150
SWIDTH 1000 0
DWIDTH 15 0
BBX 13 14 1 -1
BITMAP
0200
4220
2220
1240
1280
FFF8
0200
0700
0A80
1240
2230
4218
8208
0200
ENDCHAR
STARTCHAR U_2F77
ENCODING 12151
SWIDTH 1000 0
DWIDTH 15 0
BBX 13 14 1 -1
BITMAP
0600
0400
08C0
1080
7F00
2400
0840
1020
7FD0
2210
1240
2230
4218
8208
ENDCHAR
STARTCHAR U_2F78
ENCODING 12152
SWIDTH 1000 0
DWIDTH 15 0
BBX 13 14 1 -1
BITMAP
1000
1020
1FF0
2200
4200
0210
FFF8
0200
2220
2220
2220
2220
3FE0
2020
ENDCHAR
STARTCHAR U_2F79
ENCODING 12153
SWIDTH 1000 0
DWIDTH 15 0
BBX 12 14 2 -1
BITMAP
8020
FFF0
8020
88A0
C8A0
B2A0
9120
A920
AAA0
C2A0
84A0
8020
80E0
8020
ENDCHAR
STARTCHAR U_2F7A
ENCODING 12154
SWIDTH 1000 0
DWIDTH 15 0
BBX 13 14 1 -1
BITMAP
2060
1840
0880
7FF0
0200
0240
3FE0
0200
0210
FFF8
0200
0200
0200
0200
ENDCHAR
STARTCHAR U_2F7B
ENCODING 12155
SWIDTH 1000 0
DWIDTH 15 0
BBX 14 14 0 -1
BITMAP
0408
FEFC
0408
4488
2448
2448
0408
0C38
34C8
C488
8408
0408
1C38
0408
ENDCHAR
STARTCHAR U_2F7C
ENCODING 12156
SWIDTH 1000 0
DWIDTH 15 0
BBX 13 14 1 -1
BITMAP
0400
0430
7FA0
0440
0480
FFF8
0200
0C00
0860
1980
2E10
C810
0818
07F0
ENDCHAR
STARTCHAR U_2F7D
ENCODING 12157
SWIDTH 1000 0
DWIDTH 15 0
BBX 14 14 0 -1
BITMAP
0008
FFFC
0100
0100
4208
7FFC
4488
4488
4488
4488
4488
4488
44B8
4010
ENDCHAR
STARTCHAR U_2F7E
ENCODING 12158
SWIDTH 1000 0
DWIDTH 15 0
BBX 14 14 0 -1
BITMAP
0108
FFFC
0100
0120
3FF0
0100
0108
FFFC
0940
0920
1110
2108
410C
8104
ENDCHAR
STARTCHAR U_2F7F
ENCODING 12159
SWIDTH 1000 0
DWIDTH 15 0
BBX 13 14 1 -1
BITMAP
0010
FFF8
1040
1040
1FC0
1040
1040
1FC0
1040
1050
FFF8
0040
0040
0040
ENDCHAR
STARTCHAR U_2F80
ENCODING 12160
SWIDTH 1000 0
DWIDTH 15 0
BBX 13 14 1 -1
BITMAP
0200
0220
3FF0
0220
FFF8
0220
3FE0
0200
7FF0
0200
FFF8
0200
0200
0200
ENDCHAR
STARTCHAR U_2F81
ENCODING 12161
SWIDTH 1000 0
DWIDTH 15 0
BBX 12 14 2 -1
BITMAP
0400
0400
8420
FFF0
8420
8B20
91A0
A4A0
8420
8B20
91A0
A0A0
8020
80E0
ENDCHAR
STARTCHAR U_2F82
ENCODING 12162
SWIDTH 1000 0
DWIDTH 15 0
BBX 12 14 2 -1
BITMAP
8040
FFE0
8400
8400
8440
FFE0
8040
8040
8040
FFC0
8440
8400
8420
FFF0
ENDCHAR
STARTCHAR U_2F83
ENCODING 12163
SWIDTH 1000 0
DWIDTH 15 0
BBX 10 14 3 -1
BITMAP
0C00
0800
9080
FFC0
8080
8080
FF80
8080
8080
FF80
8080
8080
FF80
8080
ENDCHAR
STARTCHAR U_2F84
ENCODING 12164
SWIDTH 1000 0
DWIDTH 15 0
BBX 14 14 0 -1
BITMAP
0008
FFFC
0200
0420
0810
7FE8
2108
0100
0110
3FF8
0100
0100
0108
FFFC
ENDCHAR
STARTCHAR U_2F85
ENCODING 12165
SWIDTH 1000 0
DWIDTH 15 0
BBX 12 14 2 -1
BITMAP
1000
B820
C3F0
8020
8020
8020
9020
FBE0
8020
8020
8020
8020
FFE0
8020
ENDCHAR
STARTCHAR U_2F86
ENCODING 12166
SWIDTH 1000 0
DWIDTH 15 0
BBX 13 14 1 -1
BITMAP
0040
03E0
7E00
0200
0210
FFF8
0200
2220
3FF0
2020
2020
2020
3FE0
2020
ENDCHAR
STARTCHAR U_2F87
ENCODING 12167
SWIDTH 1000 0
DWIDTH 15 0
BBX 14 14 0 -1
BITMAP
1020
1020
1228
1EFC
2220
22A0
22A0
5528
85FC
0820
0820
1020
2020
4020
ENDCHAR
STARTCHAR U_2F88
ENCODING 12168
SWIDTH 1000 0
DWIDTH 15 0
BBX 13 14 1 -1
BITMAP
0600
0420
1FF0
1020
1420
1220
1220
FFF8
1020
1420
2220
2220
41E0
8040
ENDCHAR
STARTCHAR U_2F89
ENCODING 12169
SWIDTH 1000 0
DWIDTH 15 0
BBX 12 14 2 -1
BITMAP
4080
7FC0
4080
4080
7F80
4080
7F80
4880
4860
4580
4200
5900
60C0
C030
ENDCHAR
STARTCHAR U_2F8A
ENCODING 12170
SWIDTH 1000 0
DWIDTH 15 0
BBX 14 14 0 -1
BITMAP
0800
0880
1FC0
2100
4220
BFF0
2220
2220
3FE0
2020
2008
2008
200C
1FF8
ENDCHAR
STARTCHAR U_2F8B
ENCODING 12171
SWIDTH 1000 0
DWIDTH 15 0
BBX 13 14 1 -1
BITMAP
1040
1040
1040
5548
5548
5548
5548
5548
7DF8
5548
1040
2040
4040
8040
ENDCHAR
STARTCHAR U_2F8C
ENCODING 12172
SWIDTH 1000 0
DWIDTH 15 0
BBX 14 14 0 -1
BITMAP
0110
01F8
0100
2104
3FFC
2008
2100
2118
21E0
2F00
2104
2104
4104
80FC
ENDCHAR
STARTCHAR U_2F8D
ENCODING 12173
SWIDTH 1000 0
DWIDTH 15 0
BBX 13 14 1 -1
BITMAP
0200
0200
2220
3FF0
2220
2220
2220
2220
3FE0
2220
0240
0230
03D8
FC08
ENDCHAR
STARTCHAR U_2F8E
ENCODING 12174
SWIDTH 1000 0
DWIDTH 15 0
BBX 14 13 0 0
BITMAP
0100
0100
2210
3FF8
2490
2490
2490
2490
2490
2490
2490
2490
FFFC
ENDCHAR
STARTCHAR U_2F8F
ENCODING 12175
SWIDTH 1000 0
DWIDTH 15 0
BBX 14 14 0 -1
BITMAP
1810
13F8
2000
4000
8808
17FC
1020
3020
5020
9020
1020
1120
10E0
1040
ENDCHAR
STARTCHAR U_2F90
ENCODING 12176
SWIDTH 1000 0
DWIDTH 15 0
BBX 13 14 1 -1
BITMAP
0400
0200
0210
FFF8
0200
0530
0920
1940
2880
4880
8840
0B30
0C18
1808
ENDCHAR
STARTCHAR U_2F91
ENCODING 12177
SWIDTH 1000 0
DWIDTH 15 0
BBX 13 14 1 -1
BITMAP
0010
FFF8
0880
4890
7FF8
4890
4890
4890
4890
4F90
4890
4010
4010
4010
ENDCHAR
STARTCHAR U_2F92
ENCODING 12178
SWIDTH 1000 0
DWIDTH 15 0
BBX 14 14 0 -1
BITMAP
0040
3FE0
2040
3FC0
2040
2040
3FC0
2040
3FC0
2940
0908
0908
310C
C0F8
ENDCHAR
STARTCHAR U_2F93
ENCODING 12179
SWIDTH 1000 0
DWIDTH 15 0
BBX 13 14 1 -1
BITMAP
0800
0880
1FC0
2110
7FF8
A210
2210
3FF0
2210
3FF0
2210
2210
4210
8270
ENDCHAR
STARTCHAR U_2F94
ENCODING 12180
SWIDTH 1000 0
DWIDTH 15 0
BBX 13 14 1 -1
BITMAP
0600
0210
FFF8
0000
0000
3FE0
0000
3FE0
0000
3FE0
2020
2020
3FE0
2020
ENDCHAR
STARTCHAR U_2F95
ENCODING 12181
SWIDTH 1000 0
DWIDTH 15 0
BBX 13 14 1 -1
BITMAP
1880
1060
2230
4510
8880
1040
2030
5FD8
9048
1040
1040
1040
1FC0
1040
ENDCHAR
STARTCHAR U_2F96
ENCODING 12182
SWIDTH 1000 0
DWIDTH 15 0
BBX 13 14 1 -1
BITMAP
0020
7FF0
0000
2020
3FF0
2020
2020
3FE0
2020
1080
0880
0900
0110
FFF8
ENDCHAR
STARTCHAR U_2F97
ENCODING 12183
SWIDTH 1000 0
DWIDTH 15 0
BBX 13 14 1 -1
BITMAP
0010
FFF8
0400
0830
1820
2440
CA80
1180
2340
C520
0918
3108
C100
0E00
ENDCHAR
STARTCHAR U_2F98
ENCODING 12184
SWIDTH 1000 0
DWIDTH 15 0
BBX 10 14 2 -1
BITMAP
0200
0C00
3440
D380
0A00
0E00
3100
C680
0980
3280
C480
1880
6080
0300
ENDCHAR
STARTCHAR U_2F99
ENCODING 12185
SWIDTH 1000 0
DWIDTH 15 0
BBX 13 14 1 -1
BITMAP
2020
3FF0
2020
2020
3FE0
2020
2020
3FE0
2020
2020
3FE0
0880
3060
C018
ENDCHAR
STARTCHAR U_2F9A
ENCODING 12186
SWIDTH 1000 0
DWIDTH 15 0
BBX 13 14 1 -1
BITMAP
0200
0220
3FF0
0200
0200
FFF8
0480
24A0
2490
4488
4888
0880
1380
6080
ENDCHAR
STARTCHAR U_2F9B
ENCODING 12187
SWIDTH 1000 0
DWIDTH 15 0
BBX 13 14 1 -1
BITMAP
0200
0220
7FF0
0200
0210
FFF8
0200
1200
1220
13F0
1200
2A00
4600
81F8
ENDCHAR
STARTCHAR U_2F9C
ENCODING 12188
SWIDTH 1000 0
DWIDTH 15 0
BBX 14 14 0 -1
BITMAP
1010
1FF8
1010
1010
1010
1FF0
1110
0100
1110
11F8
1900
2500
430C
81F0
ENDCHAR
STARTCHAR U_2F9D
ENCODING 12189
SWIDTH 1000 0
DWIDTH 15 0
BBX 14 14 0 -1
BITMAP
0300
0220
0FF0
0820
0FE0
082C
0FE8
0830
7FE0
00A0
0120
0620
19E0
E040
ENDCHAR
STARTCHAR U_2F9E
ENCODING 12190
SWIDTH 1000 0
DWIDTH 15 0
BBX 13 14 1 -1
BITMAP
0200
0210
FFF8
0200
3FE0
2220
3FE0
2220
3FE0
2220
0210
FFF8
0200
0200
ENDCHAR
STARTCHAR U_2F9F
ENCODING 12191
SWIDTH 1000 0
DWIDTH 15 0
BBX 13 14 1 -1
BITMAP
0400
0220
7FF0
0000
1040
0880
0910
FFF8
0200
0220
7FF0
0200
0200
0200
ENDCHAR
STARTCHAR U_2FA0
ENCODING 12192
SWIDTH 1000 0
DWIDTH 15 0
BBX 14 14 0 -1
BITMAP
2008
3FFC
2000
2020
2FF0
2000
3FFC
2480
2490
24A0
2440
44A0
4510
8E0C
ENDCHAR
STARTCHAR U_2FA1
ENCODING 12193
SWIDTH 1000 0
DWIDTH 15 0
BBX 14 14 0 -1
BITMAP
0060
0180
1E70
0180
1E70
0180
1E00
0100
1110
11F8
1900
2500
4300
80FC
ENDCHAR
STARTCHAR U_2FA2
ENCODING 12194
SWIDTH 1000 0
DWIDTH 15 0
BBX 13 14 1 -1
BITMAP
4080
7FC0
4080
7F80
4080
8040
FFE0
8840
8840
FFC0
8010
8010
8018
7FF0
ENDCHAR
STARTCHAR U_2FA3
ENCODING 12195
SWIDTH 1000 0
DWIDTH 15 0
BBX 13 14 1 -1
BITMAP
0010
FFF8
0900
4920
7FF0
4920
4920
4920
71E0
4020
7FE0
4020
7FE0
4020
ENDCHAR
STARTCHAR U_2FA4
ENCODING 12196
SWIDTH 1000 0
DWIDTH 15 0
BBX 13 14 1 -1
BITMAP
0040
00E0
7F00
2220
1240
1290
FFF8
0200
0700
0A80
1240
2230
4210
0200
ENDCHAR
STARTCHAR U_2FA5
ENCODING 12197
SWIDTH 1000 0
DWIDTH 15 0
BBX 14 14 0 -1
BITMAP
1010
1FF8
1110
1110
1FF0
1110
1110
1FF0
1110
0100
3FF0
0100
0108
FFFC
ENDCHAR
STARTCHAR U_2FA6
ENCODING 12198
SWIDTH 1000 0
DWIDTH 15 0
BBX 13 14 1 -1
BITMAP
0200
0200
0500
0880
3060
C018
1FC0
0200
7FF0
0200
2260
1240
1280
FFF8
ENDCHAR
STARTCHAR U_2FA7
ENCODING 12199
SWIDTH 1000 0
DWIDTH 15 0
BBX 13 14 1 -1
BITMAP
1020
1FF0
1000
1FC0
1000
1FC0
1010
FFF8
1220
1140
1080
1640
7838
2010
ENDCHAR
STARTCHAR U_2FA8
ENCODING 12200
SWIDTH 1000 0
DWIDTH 15 0
BBX 13 14 1 -1
BITMAP
8910
FDF8
8910
F9F0
8910
F9F0
8910
8010
8010
8010
8010
8090
8070
8020
ENDCHAR
STARTCHAR U_2FA9
ENCODING 12201
SWIDTH 1000 0
DWIDTH 15 0
BBX 13 14 1 -1
BITMAP
0200
2420
3FF0
2020
3FE0
2000
3FF0
2010
3FF0
2210
0200
FFF8
0200
0200
ENDCHAR
STARTCHAR U_2FAA
ENCODING 12202
SWIDTH 1000 0
DWIDTH 15 0
BBX 13 14 1 -1
BITMAP
0220
7FF0
0220
FFF8
0220
7FE0
0220
0200
2310
12A0
0E40
3230
CE18
0208
ENDCHAR
STARTCHAR U_2FAB
ENCODING 12203
SWIDTH 1000 0
DWIDTH 15 0
BBX 14 14 0 -1
BITMAP
0900
0880
0888
1FFC
1080
3090
5FF8
9080
1090
1FF8
1080
1088
1FFC
1000
ENDCHAR
STARTCHAR U_2FAC
ENCODING 12204
SWIDTH 1000 0
DWIDTH 15 0
BBX 13 14 1 -1
BITMAP
0010
FFF8
0200
4210
7FF8
5290
4A50
4A50
4210
5290
4A50
4A50
4270
4210
ENDCHAR
STARTCHAR U_2FAD
ENCODING 12205
SWIDTH 1000 0
DWIDTH 15 0
BBX 14 14 0 -1
BITMAP
0100
7FFC
0100
3FF0
0100
FFFC
0000
1FF0
1110
1110
1FF0
1010
10F0
1020
ENDCHAR
STARTCHAR U_2FAE
ENCODING 12206
SWIDTH 1000 0
DWIDTH 15 0
BBX 14 14 0 -1
BITMAP
0480
0480
0488
FCFC
0480
0490
7CF8
0480
0480
0488
FCFC
0480
0480
0480
ENDCHAR
STARTCHAR U_2FAF
ENCODING 12207
SWIDTH 1000 0
DWIDTH 15 0
BBX 14 14 0 -1
BITMAP
0008
FFFC
0100
2208
3FFC
2448
2448
27C8
2448
27C8
2448
2448
3FF8
2008
ENDCHAR
STARTCHAR U_2FB0
ENCODING 12208
SWIDTH 1000 0
DWIDTH 15 0
BBX 13 14 1 -1
BITMAP
0880
0890
FFF8
0880
0F80
2220
3FF0
2220
3FE0
2220
0210
FFF8
0200
0200
ENDCHAR
STARTCHAR U_2FB1
ENCODING 12209
SWIDTH 1000 0
DWIDTH 15 0
BBX 13 14 1 -1
BITMAP
0400
7FC0
0840
0850
FFF8
0000
1FC0
1040
1FC0
0100
FFF0
2100
7FF8
0100
ENDCHAR
STARTCHAR U_2FB2
ENCODING 12210
SWIDTH 1000 0
DWIDTH 15 0
BBX 14 14 0 -1
BITMAP
0480
0480
0480
7CF8
0480
0480
3CF0
0480
0480
7CF8
0480
0480
0488
FFFC
ENDCHAR
STARTCHAR U_2FB3
ENCODING 12211
SWIDTH 1000 0
DWIDTH 15 0
BBX 14 14 0 -1
BITMAP
0300
0110
7FF8
0840
0480
FFFC
0000
1FE0
1020
1020
1FE0
1020
1FE0
1020
ENDCHAR
STARTCHAR U_2FB4
ENCODING 12212
SWIDTH 1000 0
DWIDTH 15 0
BBX 13 14 1 -1
BITMAP
FFF8
0200
3FE0
2020
2020
3FE0
2020
2020
3FE0
2020
2020
3FE0
1040
E038
ENDCHAR
STARTCHAR U_2FB5
ENCODING 12213
SWIDTH 1000 0
DWIDTH 15 0
BBX 14 14 0 -1
BITMAP
0010
3FF8
20D0
2F10
2110
2FD0
2950
2950
2FD0
2950
2154
21F4
5E2C
8804
ENDCHAR
STARTCHAR U_2FB6
ENCODING 12214
SWIDTH 1000 0
DWIDTH 15 0
BBX 14 13 0 -1
BITMAP
7FD8
0060
0A58
7240
1224
1214
7FCC
1250
1260
1258
1244
2224
C21C
ENDCHAR
STARTCHAR U_2FB7
ENCODING 12215
SWIDTH 1000 0
DWIDTH 15 0
BBX 13 14 1 -1
BITMAP
0200
0500
0880
1240
2138
DFD0
1040
1FC0
1040
1FD8
1460
1380
7E60
2018
ENDCHAR
STARTCHAR U_2FB8
ENCODING 12216
SWIDTH 1000 0
DWIDTH 15 0
BBX 13 14 1 -1
BITMAP
20C0
1880
0910
FFF8
0200
3FE0
2020
2020
3FE0
2020
3FE0
2020
3FE0
2020
ENDCHAR
STARTCHAR U_2FB9
ENCODING 12217
SWIDTH 1000 0
DWIDTH 15 0
BBX 13 14 1 -1
BITMAP
00E0
7F00
0200
0210
FFF8
1240
2220
4218
BFE8
2020
3FE0
2020
3FE0
2020
ENDCHAR
STARTCHAR U_2FBA
ENCODING 12218
SWIDTH 1000 0
DWIDTH 15 0
BBX 13 14 0 -1
BITMAP
2010
3FF8
2100
3FF0
2100
2100
3FF0
2100
3FF8
0088
1248
4948
4908
8070
ENDCHAR
STARTCHAR U_2FBB
ENCODING 12219
SWIDTH 1000 0
DWIDTH 15 0
BBX 13 14 1 -1
BITMAP
1040
1FE0
1040
13C0
5248
7FF8
8010
1FC0
1040
1FC0
1040
1FC0
1040
11C0
ENDCHAR
STARTCHAR U_2FBC
ENCODING 12220
SWIDTH 1000 0
DWIDTH 15 0
BBX 13 14 1 -1
BITMAP
0210
FFF8
0000
1FC0
1040
1FC0
0000
7FF0
4010
4F90
4890
4F90
4070
4020
ENDCHAR
STARTCHAR U_2FBD
ENCODING 12221
SWIDTH 1000 0
DWIDTH 15 0
BBX 14 14 0 -1
BITMAP
2200
3F18
2010
3E20
204C
2008
3E10
2020
FF4C
1008
2210
4E20
7140
0180
ENDCHAR
STARTCHAR U_2FBE
ENCODING 12222
SWIDTH 1000 0
DWIDTH 15 0
BBX 13 14 1 -1
BITMAP
BDE8
9048
BDE8
9048
BDE8
8008
8008
8008
8008
8008
8008
8048
8038
8010
ENDCHAR
STARTCHAR U_2FBF
ENCODING 12223
SWIDTH 1000 0
DWIDTH 15 0
BBX 12 14 1 -1
BITMAP
0400
9A90
C510
A250
8530
9A90
8150
FFF0
A010
20C0
2700
3810
2010
1FF0
ENDCHAR
STARTCHAR U_2FC0
ENCODING 12224
SWIDTH 1000 0
DWIDTH 15 0
BBX 13 14 1 -1
BITMAP
FFF8
0000
1FC0
1040
1040
1FC0
0000
7FF0
4890
4510
5FD0
4210
4210
4270
ENDCHAR
STARTCHAR U_2FC1
ENCODING 12225
SWIDTH 1000 0
DWIDTH 15 0
BBX 14 14 0 -1
BITMAP
0600
2410
3FF8
2110
3FF0
2110
2110
3FF0
2110
0320
0550
097C
3104
C0FC
ENDCHAR
STARTCHAR U_2FC2
ENCODING 12226
SWIDTH 1000 0
DWIDTH 15 0
BBX 13 14 1 -1
BITMAP
1080
1FC0
1080
2120
7FF0
A220
2220
3FE0
2220
3FE0
2020
4910
4488
8488
ENDCHAR
STARTCHAR U_2FC3
ENCODING 12227
SWIDTH 1000 0
DWIDTH 15 0
BBX 12 14 1 -1
BITMAP
2440
3FE0
2040
3FC0
2040
3FC0
2020
3FF0
2000
3FF0
0010
5290
4950
8960
ENDCHAR
STARTCHAR U_2FC4
ENCODING 12228
SWIDTH 1000 0
DWIDTH 15 0
BBX 12 14 2 -1
BITMAP
0820
0FF0
0800
8820
FFF0
A8A0
9520
CA20
A4A0
8A60
9120
A4A0
8220
FFE0
ENDCHAR
STARTCHAR U_2FC5
ENCODING 12229
SWIDTH 1000 0
DWIDTH 15 0
BBX 14 14 0 -1
BITMAP
0100
2084
3FFC
2448
3FFC
2448
2448
3FF8
2840
2848
2F70
4844
4B44
9C3C
ENDCHAR
STARTCHAR U_2FC6
ENCODING 12230
SWIDTH 1000 0
DWIDTH 15 0
BBX 13 14 1 -1
BITMAP
0210
FFF8
1240
1240
32C0
4F20
8A90
1440
27A0
C898
1480
6300
04C0
7838
ENDCHAR
STARTCHAR U_2FC7
ENCODING 12231
SWIDTH 1000 0
DWIDTH 15 0
BBX 14 14 0 -1
BITMAP
0100
4088
7FFC
4820
4820
7FFC
4820
4AA8
5AA8
6AA8
4AA8
48A8
892C
8820
ENDCHAR
STARTCHAR U_2FC8
ENCODING 12232
SWIDTH 1000 0
DWIDTH 15 0
BBX 13 14 1 -1
BITMAP
0890
FFF8
0880
0F80
0010
FFF8
0200
3FE0
2220
3FE0
2220
3FE0
0880
F078
ENDCHAR
STARTCHAR U_2FC9
ENCODING 12233
SWIDTH 1000 0
DWIDTH 15 0
BBX 13 14 1 -1
BITMAP
00E0
3F00
0210
FFF8
0A80
3260
C718
0A80
F278
1248
0A80
0F80
3260
C618
ENDCHAR
STARTCHAR U_2FCA
ENCODING 12234
SWIDTH 1000 0
DWIDTH 15 0
BBX 13 14 1 -1
BITMAP
2020
3FF0
2AA0
2720
2220
3FE0
2220
0200
3FE0
0210
FFF8
4920
4490
8490
ENDCHAR
STARTCHAR U_2FCB
ENCODING 12235
SWIDTH 1000 0
DWIDTH 15 0
BBX 13 14 1 -1
BITMAP
4490
24A0
24A0
FFF8
1240
2220
4210
BFE8
2220
2720
2AA0
3260
2220
2260
ENDCHAR
STARTCHAR U_2FCC
ENCODING 12236
SWIDTH 1000 0
DWIDTH 15 0
BBX 13 14 1 -1
BITMAP
FFF0
8910
8910
F9F0
8910
0900
F9F0
8910
F9F0
8910
F9F0
8918
0908
07F8
ENDCHAR
STARTCHAR U_2FCD
ENCODING 12237
SWIDTH 1000 0
DWIDTH 15 0
BBX 14 14 0 -1
BITMAP
0FE0
0820
2FE8
2828
2FE8
2828
2FE8
2008
3EF8
0280
FEFC
2288
2288
C288
ENDCHAR
STARTCHAR U_2FCE
ENCODING 12238
SWIDTH 1000 0
DWIDTH 15 0
BBX 14 14 0 -1
BITMAP
1020
1020
FE28
11FC
7E20
01F8
7E88
4288
7E50
4250
2420
2850
0E8C
7104
ENDCHAR
STARTCHAR U_2FCF
ENCODING 12239
SWIDTH 1000 0
DWIDTH 15 0
BBX 13 14 1 -1
BITMAP
4820
71F0
4020
7DE0
4020
7FE0
4020
1280
4A60
4220
52A0
4A68
52A8
E318
ENDCHAR
STARTCHAR U_2FD0
ENCODING 12240
SWIDTH 1000 0
DWIDTH 15 0
BBX 14 14 0 -1
BITMAP
0200
1FE0
1020
1FE0
1020
7FF8
4108
7FF8
4108
7FF8
0000
FFFC
1020
E020
ENDCHAR
STARTCHAR U_2FD1
ENCODING 12241
SWIDTH 1000 0
DWIDTH 15 0
BBX 13 14 1 -1
BITMAP
0400
0210
FFF8
0510
FAE0
4AA0
4A90
92C8
2020
3FE0
2020
3FE0
2020
C020
ENDCHAR
STARTCHAR U_2FD2
ENCODING 12242
SWIDTH 1000 0
DWIDTH 15 0
BBX 13 14 1 -1
BITMAP
0200
2220
23F0
2200
FFF8
4890
4890
5550
7FF0
4890
4890
5550
7FF0
4010
ENDCHAR
STARTCHAR U_2FD3
ENCODING 12243
SWIDTH 1000 0
DWIDTH 15 0
BBX 14 14 0 -1
BITMAP
1088
FFFC
4280
24F8
FF08
00F8
7E80
42F8
7E80
42F8
7E80
42F8
4284
4E7C
ENDCHAR
STARTCHAR U_2FD4
ENCODING 12244
SWIDTH 1000 0
DWIDTH 15 0
BBX 13 14 1 -1
BITMAP
1100
1F80
2110
FFF8
2290
FEF0
0A90
FED0
0AB0
FAD0
0A90
FEF8
0A08
F9F8
ENDCHAR
STARTCHAR U_2FD5
ENCODING 12245
SWIDTH 1000 0
DWIDTH 15 0
BBX 13 14 1 -1
BITMAP
0700
0880
3060
CF98
0000
7770
5550
7770
0000
7FF0
4890
7FF0
4890
48B0
ENDCHAR
STARTCHAR U_3000
ENCODING 12288
SWIDTH 1000 0
DWIDTH 15 0
BBX 1 1 14 -2
BITMAP
00
ENDCHAR
STARTCHAR U_3003
ENCODING 12291
SWIDTH 1000 0
DWIDTH 15 0
BBX 6 5 4 3
BITMAP
6C
48
48
90
90
ENDCHAR
STARTCHAR U_3005
ENCODING 12293
SWIDTH 1000 0
DWIDTH 15 0
BBX 13 12 0 0
BITMAP
0400
0410
07F8
0810
0820
1020
2040
4080
8680
0180
0060
0020
ENDCHAR
STARTCHAR U_3008
ENCODING 12296
SWIDTH 1000 0
DWIDTH 15 0
BBX 4 14 9 -1
BITMAP
10
10
20
20
40
40
80
80
40
40
20
20
10
10
ENDCHAR
STARTCHAR U_3009
ENCODING 12297
SWIDTH 1000 0
DWIDTH 15 0
BBX 4 14 2 -1
BITMAP
80
80
40
40
20
20
10
10
20
20
40
40
80
80
ENDCHAR
STARTCHAR U_300A
ENCODING 12298
SWIDTH 1000 0
DWIDTH 15 0
BBX 8 14 6 -1
BITMAP
11
11
22
22
44
44
88
88
44
44
22
22
11
11
ENDCHAR
STARTCHAR U_300B
ENCODING 12299
SWIDTH 1000 0
DWIDTH 15 0
BBX 8 14 1 -1
BITMAP
88
88
44
44
22
22
11
11
22
22
44
44
88
88
ENDCHAR
STARTCHAR U_300C
ENCODING 12300
SWIDTH 1000 0
DWIDTH 15 0
BBX 5 11 9 2
BITMAP
F8
80
80
80
80
80
80
80
80
80
80
ENDCHAR
STARTCHAR U_300D
ENCODING 12301
SWIDTH 1000 0
DWIDTH 15 0
BBX 5 10 1 -1
BITMAP
08
08
08
08
08
08
08
08
08
F8
ENDCHAR
STARTCHAR U_300E
ENCODING 12302
SWIDTH 1000 0
DWIDTH 15 0
BBX 6 11 8 2
BITMAP
FC
84
BC
A0
A0
A0
A0
A0
A0
A0
E0
ENDCHAR
STARTCHAR U_300F
ENCODING 12303
SWIDTH 1000 0
DWIDTH 15 0
BBX 6 10 1 -1
BITMAP
1C
14
14
14
14
14
14
F4
84
FC
ENDCHAR
STARTCHAR U_3010
ENCODING 12304
SWIDTH 1000 0
DWIDTH 15 0
BBX 4 14 9 -1
BITMAP
F0
E0
C0
80
80
80
80
80
80
80
80
C0
E0
E0
ENDCHAR
STARTCHAR U_3011
ENCODING 12305
SWIDTH 1000 0
DWIDTH 15 0
BBX 4 14 2 -1
BITMAP
F0
70
30
10
10
10
10
10
10
10
10
30
30
70
ENDCHAR
STARTCHAR U_3012
ENCODING 12306
SWIDTH 1000 0
DWIDTH 15 0
BBX 13 12 1 0
BITMAP
FFF8
0000
0000
0000
FFF8
0200
0200
0200
0200
0200
0200
0200
ENDCHAR
STARTCHAR U_3013
ENCODING 12307
SWIDTH 1000 0
DWIDTH 15 0
BBX 12 11 2 0
BITMAP
FFF0
FFF0
FFF0
FFF0
0000
0000
0000
FFF0
FFF0
FFF0
FFF0
ENDCHAR
STARTCHAR U_3014
ENCODING 12308
SWIDTH 1000 0
DWIDTH 15 0
BBX 3 13 9 -1
BITMAP
40
80
80
80
80
80
80
80
80
80
80
80
60
ENDCHAR
STARTCHAR U_3015
ENCODING 12309
SWIDTH 1000 0
DWIDTH 15 0
BBX 3 13 3 -1
BITMAP
40
20
20
20
20
20
20
20
20
20
20
20
C0
ENDCHAR
STARTCHAR U_3016
ENCODING 12310
SWIDTH 1000 0
DWIDTH 15 0
BBX 5 15 9 -2
BITMAP
F8
90
90
A0
A0
A0
A0
A0
A0
A0
A0
A0
90
90
F8
ENDCHAR
STARTCHAR U_3017
ENCODING 12311
SWIDTH 1000 0
DWIDTH 15 0
BBX 5 15 1 -2
BITMAP
F8
88
48
48
28
28
28
28
28
28
28
48
48
88
F8
ENDCHAR
STARTCHAR U_301D
ENCODING 12317
SWIDTH 1000 0
DWIDTH 15 0
BBX 6 3 8 9
BITMAP
90
48
24
ENDCHAR
STARTCHAR U_301E
ENCODING 12318
SWIDTH 1000 0
DWIDTH 15 0
BBX 5 3 1 9
BITMAP
28
50
A0
ENDCHAR
STARTCHAR U_3021
ENCODING 12321
SWIDTH 1000 0
DWIDTH 15 0
BBX 1 13 7 -1
BITMAP
80
80
80
80
80
80
80
80
80
80
80
80
80
ENDCHAR
STARTCHAR U_3022
ENCODING 12322
SWIDTH 1000 0
DWIDTH 15 0
BBX 6 13 4 -1
BITMAP
04
04
84
84
84
84
84
84
84
84
04
04
04
ENDCHAR
STARTCHAR U_3023
ENCODING 12323
SWIDTH 1000 0
DWIDTH 15 0
BBX 10 13 2 -1
BITMAP
8040
8040
8440
8440
8440
8440
8440
8440
8440
8440
8040
8040
0040
ENDCHAR
STARTCHAR U_3024
ENCODING 12324
SWIDTH 1000 0
DWIDTH 15 0
BBX 11 12 2 0
BITMAP
0080
8100
4100
2200
1A00
0400
0600
0900
1080
2040
4060
8020
ENDCHAR
STARTCHAR U_3025
ENCODING 12325
SWIDTH 1000 0
DWIDTH 15 0
BBX 9 13 3 -1
BITMAP
0080
1080
2180
2300
1C00
3200
6100
C080
8080
8080
C100
6300
1C00
ENDCHAR
STARTCHAR U_3026
ENCODING 12326
SWIDTH 1000 0
DWIDTH 15 0
BBX 13 4 1 6
BITMAP
0400
0200
0210
FFF8
ENDCHAR
STARTCHAR U_3027
ENCODING 12327
SWIDTH 1000 0
DWIDTH 15 0
BBX 13 8 1 4
BITMAP
0400
0200
0200
FFF8
0000
0000
0000
7FF0
ENDCHAR
STARTCHAR U_3028
ENCODING 12328
SWIDTH 1000 0
DWIDTH 15 0
BBX 13 12 1 0
BITMAP
0400
0200
FFF8
0000
0000
0000
0020
3FF0
0000
0000
0000
FFF8
ENDCHAR
STARTCHAR U_3029
ENCODING 12329
SWIDTH 1000 0
DWIDTH 15 0
BBX 12 13 2 -1
BITMAP
0400
0400
FFE0
4040
2080
2080
1100
1100
0A00
0400
0A00
1180
E070
ENDCHAR
STARTCHAR U_3041
ENCODING 12353
SWIDTH 1000 0
DWIDTH 15 0
BBX 10 11 2 -2
BITMAP
1000
0800
4E00
3800
1200
1F80
3440
5840
9840
A880
4300
ENDCHAR
STARTCHAR U_3042
ENCODING 12354
SWIDTH 1000 0
DWIDTH 15 0
BBX 11 13 2 -1
BITMAP
1000
0800
0B00
7C00
1200
1200
1F80
3440
5420
8820
9820
A840
4180
ENDCHAR
STARTCHAR U_3043
ENCODING 12355
SWIDTH 1000 0
DWIDTH 15 0
BBX 9 7 3 -1
BITMAP
8200
8100
8080
8180
5000
6000
2000
ENDCHAR
STARTCHAR U_3044
ENCODING 12356
SWIDTH 1000 0
DWIDTH 15 0
BBX 12 9 1 0
BITMAP
8000
40C0
4020
4010
4410
4830
2810
3000
1000
ENDCHAR
STARTCHAR U_3045
ENCODING 12357
SWIDTH 1000 0
DWIDTH 15 0
BBX 7 10 3 -2
BITMAP
10
0C
00
9C
62
02
02
02
04
18
ENDCHAR
STARTCHAR U_3046
ENCODING 12358
SWIDTH 1000 0
DWIDTH 15 0
BBX 8 14 3 -1
BITMAP
20
10
0E
08
10
9E
61
41
01
01
02
04
08
10
ENDCHAR
STARTCHAR U_3047
ENCODING 12359
SWIDTH 1000 0
DWIDTH 15 0
BBX 9 10 3 -2
BITMAP
1000
0C00
0000
0E00
7400
0800
1000
3800
4800
8780
ENDCHAR
STARTCHAR U_3048
ENCODING 12360
SWIDTH 1000 0
DWIDTH 15 0
BBX 11 13 2 -1
BITMAP
1000
0E00
0000
0000
4700
3A00
0400
0800
1000
3800
4400
8400
83E0
ENDCHAR
STARTCHAR U_3049
ENCODING 12361
SWIDTH 1000 0
DWIDTH 15 0
BBX 10 10 2 -2
BITMAP
4100
20C0
3080
E000
2F00
3080
6080
A080
6300
2000
ENDCHAR
STARTCHAR U_304A
ENCODING 12362
SWIDTH 1000 0
DWIDTH 15 0
BBX 12 12 2 -1
BITMAP
2000
10C0
1420
1830
7000
1180
1640
1820
3020
D220
31C0
1000
ENDCHAR
STARTCHAR U_304B
ENCODING 12363
SWIDTH 1000 0
DWIDTH 15 0
BBX 12 12 1 -1
BITMAP
1000
0800
08C0
8E20
7910
1130
1100
1100
2100
2200
4A00
4400
ENDCHAR
STARTCHAR U_304C
ENCODING 12364
SWIDTH 1000 0
DWIDTH 15 0
BBX 13 13 1 -1
BITMAP
0010
1048
0820
0880
8E40
7920
1110
1130
1100
2100
2200
4A00
4400
ENDCHAR
STARTCHAR U_304D
ENCODING 12365
SWIDTH 1000 0
DWIDTH 15 0
BBX 9 14 3 -2
BITMAP
1000
0800
0B00
7C00
0400
0780
FA00
0100
0100
3F80
4080
4000
3000
0E00
ENDCHAR
STARTCHAR U_304E
ENCODING 12366
SWIDTH 1000 0
DWIDTH 15 0
BBX 12 14 2 -2
BITMAP
1020
0890
0B40
7C00
0400
0780
FA00
0100
0100
3F80
4080
4000
3000
0E00
ENDCHAR
STARTCHAR U_304F
ENCODING 12367
SWIDTH 1000 0
DWIDTH 15 0
BBX 6 14 4 -2
BITMAP
08
04
04
08
10
60
80
80
40
20
10
08
04
04
ENDCHAR
STARTCHAR U_3050
ENCODING 12368
SWIDTH 1000 0
DWIDTH 15 0
BBX 10 14 4 -2
BITMAP
0800
0400
0400
0880
1240
6100
8000
8000
4000
2000
1000
0800
0400
0400
ENDCHAR
STARTCHAR U_3051
ENCODING 12369
SWIDTH 1000 0
DWIDTH 15 0
BBX 12 14 2 -2
BITMAP
0200
8100
4080
4080
40F0
8F80
8080
8080
8080
8080
6080
4100
4100
0200
ENDCHAR
STARTCHAR U_3052
ENCODING 12370
SWIDTH 1000 0
DWIDTH 15 0
BBX 13 14 1 -2
BITMAP
0210
8148
40A0
4080
40F0
8F80
8080
8080
8080
8080
6080
4100
4100
0200
ENDCHAR
STARTCHAR U_3053
ENCODING 12371
SWIDTH 1000 0
DWIDTH 15 0
BBX 10 12 2 -1
BITMAP
2000
1F80
0200
0400
0000
0000
0000
0000
8000
8000
4040
3F80
ENDCHAR
STARTCHAR U_3054
ENCODING 12372
SWIDTH 1000 0
DWIDTH 15 0
BBX 12 13 2 0
BITMAP
0040
0120
4090
3F40
0600
0800
0000
0000
4000
8000
8000
4100
3F80
ENDCHAR
STARTCHAR U_3055
ENCODING 12373
SWIDTH 1000 0
DWIDTH 15 0
BBX 10 13 2 -1
BITMAP
1000
0800
04C0
8700
7A00
0100
0100
1F80
2080
4000
4000
3000
0F00
ENDCHAR
STARTCHAR U_3056
ENCODING 12374
SWIDTH 1000 0
DWIDTH 15 0
BBX 12 13 2 -1
BITMAP
1020
0810
04C0
8720
7A00
0100
0100
1F80
2080
4000
4000
3000
0F00
ENDCHAR
STARTCHAR U_3057
ENCODING 12375
SWIDTH 1000 0
DWIDTH 15 0
BBX 10 12 3 -1
BITMAP
8000
4000
4000
4000
4000
4000
4000
4000
4040
4080
2300
1C00
ENDCHAR
STARTCHAR U_3058
ENCODING 12376
SWIDTH 1000 0
DWIDTH 15 0
BBX 10 12 3 -1
BITMAP
8100
4480
4200
4000
4000
4000
4000
4000
4040
4080
2300
1C00
ENDCHAR
STARTCHAR U_3059
ENCODING 12377
SWIDTH 1000 0
DWIDTH 15 0
BBX 12 14 1 -2
BITMAP
0200
0100
81F0
7F00
0100
0700
0980
0880
0780
0080
0100
0100
0200
0400
ENDCHAR
STARTCHAR U_305A
ENCODING 12378
SWIDTH 1000 0
DWIDTH 15 0
BBX 13 14 1 -2
BITMAP
0250
0128
81F0
7F00
0100
0700
0980
0880
0780
0080
0100
0100
0200
0400
ENDCHAR
STARTCHAR U_305B
ENCODING 12379
SWIDTH 1000 0
DWIDTH 15 0
BBX 12 12 1 -1
BITMAP
0100
2080
1080
10F0
9780
7880
1080
1080
1180
1080
0800
07C0
ENDCHAR
STARTCHAR U_305C
ENCODING 12380
SWIDTH 1000 0
DWIDTH 15 0
BBX 13 13 1 -1
BITMAP
0010
0108
20A0
1090
10F0
9780
7880
1080
1080
1180
1080
0800
07C0
ENDCHAR
STARTCHAR U_305D
ENCODING 12381
SWIDTH 1000 0
DWIDTH 15 0
BBX 11 13 2 -2
BITMAP
2700
1900
0200
0400
08E0
1F00
E200
0400
0800
0800
0800
0400
0380
ENDCHAR
STARTCHAR U_305E
ENCODING 12382
SWIDTH 1000 0
DWIDTH 15 0
BBX 12 13 2 -2
BITMAP
2720
1990
0240
0400
08E0
1F00
E200
0400
0800
0800
0800
0400
0380
ENDCHAR
STARTCHAR U_305F
ENCODING 12383
SWIDTH 1000 0
DWIDTH 15 0
BBX 11 12 2 -1
BITMAP
2000
1200
1C00
F000
23C0
2060
2080
4000
4000
4400
8400
83E0
ENDCHAR
STARTCHAR U_3060
ENCODING 12384
SWIDTH 1000 0
DWIDTH 15 0
BBX 12 13 2 -1
BITMAP
0020
2090
1240
1C00
F000
23C0
2060
2080
4000
4000
4400
8400
83E0
ENDCHAR
STARTCHAR U_3061
ENCODING 12385
SWIDTH 1000 0
DWIDTH 15 0
BBX 11 14 1 -2
BITMAP
1000
0800
0980
8E00
7800
1000
1180
1640
3820
2020
0020
0040
0180
0E00
ENDCHAR
STARTCHAR U_3062
ENCODING 12386
SWIDTH 1000 0
DWIDTH 15 0
BBX 13 14 1 -2
BITMAP
1000
0810
0988
8E20
7810
1000
1180
1640
3820
2020
0020
0040
0180
0E00
ENDCHAR
STARTCHAR U_3063
ENCODING 12387
SWIDTH 1000 0
DWIDTH 15 0
BBX 10 8 2 -2
BITMAP
0700
1880
E040
0040
0040
0080
0300
1C00
ENDCHAR
STARTCHAR U_3064
ENCODING 12388
SWIDTH 1000 0
DWIDTH 15 0
BBX 12 9 1 0
BITMAP
07C0
9820
6010
0010
0010
0010
0020
00C0
0700
ENDCHAR
STARTCHAR U_3065
ENCODING 12389
SWIDTH 1000 0
DWIDTH 15 0
BBX 13 12 1 0
BITMAP
0010
0048
0020
07C0
9820
6010
0010
0010
0010
0020
00C0
0700
ENDCHAR
STARTCHAR U_3066
ENCODING 12390
SWIDTH 1000 0
DWIDTH 15 0
BBX 12 12 1 -1
BITMAP
0070
8780
7900
0200
0200
0400
0400
0400
0400
0400
0200
01C0
ENDCHAR
STARTCHAR U_3067
ENCODING 12391
SWIDTH 1000 0
DWIDTH 15 0
BBX 13 12 1 -1
BITMAP
0070
8780
7910
0248
0220
0400
0400
0400
0400
0400
0200
01C0
ENDCHAR
STARTCHAR U_3068
ENCODING 12392
SWIDTH 1000 0
DWIDTH 15 0
BBX 9 12 3 -1
BITMAP
2000
1000
1000
1000
1380
1C00
3000
4000
8000
8000
4000
3F80
ENDCHAR
STARTCHAR U_3069
ENCODING 12393
SWIDTH 1000 0
DWIDTH 15 0
BBX 11 12 3 -1
BITMAP
2040
1120
1080
1000
1380
1C00
3000
4000
8000
8000
4000
3F80
ENDCHAR
STARTCHAR U_306A
ENCODING 12394
SWIDTH 1000 0
DWIDTH 15 0
BBX 11 14 2 -2
BITMAP
1000
0800
0A00
FC00
11C0
2060
2080
4100
4100
8100
0F00
1180
1140
0E00
ENDCHAR
STARTCHAR U_306B
ENCODING 12395
SWIDTH 1000 0
DWIDTH 15 0
BBX 11 13 2 -2
BITMAP
8000
4000
43C0
4C60
8080
8000
8000
8000
8800
A800
47E0
4000
4000
ENDCHAR
STARTCHAR U_306C
ENCODING 12396
SWIDTH 1000 0
DWIDTH 15 0
BBX 12 12 1 -1
BITMAP
0200
0100
0100
27C0
2A20
3210
2410
5410
9810
98D0
A920
40D0
ENDCHAR
STARTCHAR U_306D
ENCODING 12397
SWIDTH 1000 0
DWIDTH 15 0
BBX 12 13 1 -1
BITMAP
2000
1000
1000
1000
99C0
7E20
1820
1020
3020
3020
51E0
B230
11C0
ENDCHAR
STARTCHAR U_306E
ENCODING 12398
SWIDTH 1000 0
DWIDTH 15 0
BBX 11 11 2 -1
BITMAP
0F00
3480
4440
4420
8820
8820
9020
9040
A040
4180
0600
ENDCHAR
STARTCHAR U_306F
ENCODING 12399
SWIDTH 1000 0
DWIDTH 15 0
BBX 11 13 2 -1
BITMAP
0100
8080
4080
50E0
4F80
8080
8080
8080
8080
A780
48C0
48A0
4700
ENDCHAR
STARTCHAR U_3070
ENCODING 12400
SWIDTH 1000 0
DWIDTH 15 0
BBX 13 13 1 -1
BITMAP
0110
8088
40A0
50F0
4F80
8080
8080
8080
8080
A780
48C0
48A0
4700
ENDCHAR
STARTCHAR U_3071
ENCODING 12401
SWIDTH 1000 0
DWIDTH 15 0
BBX 13 13 1 -1
BITMAP
0130
80C8
40C8
50F0
4F80
8080
8080
8080
8080
A780
48C0
48A0
4700
ENDCHAR
STARTCHAR U_3072
ENCODING 12402
SWIDTH 1000 0
DWIDTH 15 0
BBX 11 12 2 -1
BITMAP
0100
1100
F080
2080
20C0
40A0
4080
4080
4100
4100
2200
1C00
ENDCHAR
STARTCHAR U_3073
ENCODING 12403
SWIDTH 1000 0
DWIDTH 15 0
BBX 12 13 2 -1
BITMAP
0020
0110
1140
F0A0
2080
20C0
40A0
4080
4080
4100
4100
2200
1C00
ENDCHAR
STARTCHAR U_3074
ENCODING 12404
SWIDTH 1000 0
DWIDTH 15 0
BBX 11 13 2 -1
BITMAP
00C0
0120
1120
F0C0
2080
20C0
40A0
4080
4080
4100
4100
2200
1C00
ENDCHAR
STARTCHAR U_3075
ENCODING 12405
SWIDTH 1000 0
DWIDTH 15 0
BBX 13 12 1 -1
BITMAP
0800
0700
0100
0200
0400
0400
0200
0560
9910
7138
4900
0600
ENDCHAR
STARTCHAR U_3076
ENCODING 12406
SWIDTH 1000 0
DWIDTH 15 0
BBX 13 12 1 -1
BITMAP
0800
0710
0148
0220
0400
0400
0200
0560
9910
7138
4900
0600
ENDCHAR
STARTCHAR U_3077
ENCODING 12407
SWIDTH 1000 0
DWIDTH 15 0
BBX 13 12 1 -1
BITMAP
0800
0730
0148
0248
0430
0400
0200
0560
9910
7138
4900
0600
ENDCHAR
STARTCHAR U_3078
ENCODING 12408
SWIDTH 1000 0
DWIDTH 15 0
BBX 13 6 1 2
BITMAP
0C00
1200
A100
4080
0060
0018
ENDCHAR
STARTCHAR U_3079
ENCODING 12409
SWIDTH 1000 0
DWIDTH 15 0
BBX 13 8 1 2
BITMAP
0020
0090
0C40
1200
A100
4080
0060
0018
ENDCHAR
STARTCHAR U_307A
ENCODING 12410
SWIDTH 1000 0
DWIDTH 15 0
BBX 13 9 1 2
BITMAP
0060
0090
0090
0C60
1200
A100
4080
0060
0018
ENDCHAR
STARTCHAR U_307B
ENCODING 12411
SWIDTH 1000 0
DWIDTH 15 0
BBX 11 12 2 -1
BITMAP
88C0
4700
4100
40E0
8F80
8080
8080
8080
A780
48C0
48A0
4700
ENDCHAR
STARTCHAR U_307C
ENCODING 12412
SWIDTH 1000 0
DWIDTH 15 0
BBX 13 12 1 -1
BITMAP
88D0
4708
4120
40F0
8F80
8080
8080
8080
A780
48C0
48A0
4700
ENDCHAR
STARTCHAR U_307D
ENCODING 12413
SWIDTH 1000 0
DWIDTH 15 0
BBX 13 13 1 -1
BITMAP
0030
88C8
4748
4130
40E0
8F80
8080
8080
8080
A780
48C0
48A0
4700
ENDCHAR
STARTCHAR U_307E
ENCODING 12414
SWIDTH 1000 0
DWIDTH 15 0
BBX 9 13 3 -1
BITMAP
0800
0400
8780
7C00
0400
8700
7C00
0400
0400
7C00
8700
8480
7800
ENDCHAR
STARTCHAR U_307F
ENCODING 12415
SWIDTH 1000 0
DWIDTH 15 0
BBX 13 12 1 -1
BITMAP
1100
0F00
0200
0200
0440
0420
1FE0
6830
8848
9040
6080
0100
ENDCHAR
STARTCHAR U_3080
ENCODING 12416
SWIDTH 1000 0
DWIDTH 15 0
BBX 12 13 2 -1
BITMAP
2000
1000
9C00
70C0
1020
7030
9000
9000
B080
6040
2040
2040
1F80
ENDCHAR
STARTCHAR U_3081
ENCODING 12417
SWIDTH 1000 0
DWIDTH 15 0
BBX 12 12 1 -1
BITMAP
0200
0100
2100
2780
3940
2220
5210
5410
8C10
8810
9420
60C0
ENDCHAR
STARTCHAR U_3082
ENCODING 12418
SWIDTH 1000 0
DWIDTH 15 0
BBX 10 14 2 -2
BITMAP
0800
0400
4400
3800
0E00
4800
9080
7080
1C40
1040
1040
1040
0880
0700
ENDCHAR
STARTCHAR U_3083
ENCODING 12419
SWIDTH 1000 0
DWIDTH 15 0
BBX 10 10 2 -2
BITMAP
0400
2200
2780
3840
F040
1180
0800
0800
0400
0400
ENDCHAR
STARTCHAR U_3084
ENCODING 12420
SWIDTH 1000 0
DWIDTH 15 0
BBX 12 14 1 -2
BITMAP
0200
0100
0380
3000
21E0
1610
9810
6810
04E0
0400
0200
0200
0100
0100
ENDCHAR
STARTCHAR U_3085
ENCODING 12421
SWIDTH 1000 0
DWIDTH 15 0
BBX 10 10 2 -2
BITMAP
0800
0400
8780
9C40
A440
C440
8C80
8700
0400
0800
ENDCHAR
STARTCHAR U_3086
ENCODING 12422
SWIDTH 1000 0
DWIDTH 15 0
BBX 12 13 1 -2
BITMAP
0600
8100
43C0
4520
4910
5110
6110
6910
4520
43C0
0100
0200
0400
ENDCHAR
STARTCHAR U_3087
ENCODING 12423
SWIDTH 1000 0
DWIDTH 15 0
BBX 8 11 3 -2
BITMAP
10
08
09
0E
08
08
08
78
8E
89
70
ENDCHAR
STARTCHAR U_3088
ENCODING 12424
SWIDTH 1000 0
DWIDTH 15 0
BBX 10 13 2 -1
BITMAP
0800
0400
0400
04C0
0700
0400
0400
0400
0400
7E00
8580
8440
7800
ENDCHAR
STARTCHAR U_3089
ENCODING 12425
SWIDTH 1000 0
DWIDTH 15 0
BBX 8 14 4 -2
BITMAP
20
10
1C
60
80
80
80
9E
E1
81
81
02
0C
30
ENDCHAR
STARTCHAR U_308A
ENCODING 12426
SWIDTH 1000 0
DWIDTH 15 0
BBX 8 14 3 -2
BITMAP
80
4C
52
61
61
41
41
41
41
02
02
04
08
10
ENDCHAR
STARTCHAR U_308B
ENCODING 12427
SWIDTH 1000 0
DWIDTH 15 0
BBX 10 13 2 -2
BITMAP
2300
1D00
0200
0400
0800
1F00
3080
4040
8040
0E40
1180
1100
0E00
ENDCHAR
STARTCHAR U_308C
ENCODING 12428
SWIDTH 1000 0
DWIDTH 15 0
BBX 13 13 1 -2
BITMAP
2000
1000
1380
1440
3840
D840
1040
3040
3040
5040
9048
3030
1000
ENDCHAR
STARTCHAR U_308D
ENCODING 12429
SWIDTH 1000 0
DWIDTH 15 0
BBX 10 13 2 -2
BITMAP
4600
3A00
0400
0800
1000
3F00
2080
4040
8040
0040
0080
0300
1C00
ENDCHAR
STARTCHAR U_308E
ENCODING 12430
SWIDTH 1000 0
DWIDTH 15 0
BBX 9 10 3 -2
BITMAP
4000
2000
2000
3700
E880
3080
6080
6080
A100
2200
ENDCHAR
STARTCHAR U_308F
ENCODING 12431
SWIDTH 1000 0
DWIDTH 15 0
BBX 12 14 1 -2
BITMAP
2000
1000
1000
1000
99C0
7E20
1810
1010
3010
3010
5020
9040
3180
1000
ENDCHAR
STARTCHAR U_3090
ENCODING 12432
SWIDTH 1000 0
DWIDTH 15 0
BBX 11 12 2 -1
BITMAP
2600
1A00
0400
0400
0F80
3840
4820
9020
9020
A320
64C0
4380
ENDCHAR
STARTCHAR U_3091
ENCODING 12433
SWIDTH 1000 0
DWIDTH 15 0
BBX 12 13 1 -2
BITMAP
1300
0E00
0400
0F80
1040
2040
0C40
1380
0E00
1000
39C0
4620
8070
ENDCHAR
STARTCHAR U_3092
ENCODING 12434
SWIDTH 1000 0
DWIDTH 15 0
BBX 11 14 2 -2
BITMAP
1000
0800
4B00
3C00
1000
1080
3CE0
6300
8600
0A00
1200
2000
2000
1F80
ENDCHAR
STARTCHAR U_3093
ENCODING 12435
SWIDTH 1000 0
DWIDTH 15 0
BBX 11 13 2 -1
BITMAP
0800
0400
0400
0800
0800
1000
1000
3C00
2200
4200
4220
8240
8180
ENDCHAR
STARTCHAR U_30A1
ENCODING 12449
SWIDTH 1000 0
DWIDTH 15 0
BBX 9 8 2 -2
BITMAP
8780
7880
0900
0600
0400
0400
0800
1000
ENDCHAR
STARTCHAR U_30A2
ENCODING 12450
SWIDTH 1000 0
DWIDTH 15 0
BBX 10 12 2 -2
BITMAP
87C0
7840
0080
0900
0600
0400
0400
0400
0800
0800
1000
2000
ENDCHAR
STARTCHAR U_30A3
ENCODING 12451
SWIDTH 1000 0
DWIDTH 15 0
BBX 8 10 3 -2
BITMAP
01
02
04
1C
E4
04
04
04
04
04
ENDCHAR
STARTCHAR U_30A4
ENCODING 12452
SWIDTH 1000 0
DWIDTH 15 0
BBX 9 13 2 -2
BITMAP
0080
0080
0100
0200
0C00
3400
C200
0200
0200
0200
0200
0200
0200
ENDCHAR
STARTCHAR U_30A5
ENCODING 12453
SWIDTH 1000 0
DWIDTH 15 0
BBX 8 10 3 -2
BITMAP
10
08
0F
F1
41
42
02
04
08
10
ENDCHAR
STARTCHAR U_30A6
ENCODING 12454
SWIDTH 1000 0
DWIDTH 15 0
BBX 10 13 2 -2
BITMAP
0800
0400
0400
07C0
F840
4040
4080
2080
2100
0100
0200
0400
0800
ENDCHAR
STARTCHAR U_30A7
ENCODING 12455
SWIDTH 1000 0
DWIDTH 15 0
BBX 9 7 3 -1
BITMAP
0700
7800
0800
0800
0800
0F00
F080
ENDCHAR
STARTCHAR U_30A8
ENCODING 12456
SWIDTH 1000 0
DWIDTH 15 0
BBX 11 9 2 0
BITMAP
01C0
7E00
0800
0400
0400
0400
0400
0FC0
F020
ENDCHAR
STARTCHAR U_30A9
ENCODING 12457
SWIDTH 1000 0
DWIDTH 15 0
BBX 8 10 3 -2
BITMAP
08
04
87
7C
0C
14
24
44
8C
04
ENDCHAR
STARTCHAR U_30AA
ENCODING 12458
SWIDTH 1000 0
DWIDTH 15 0
BBX 11 13 2 -2
BITMAP
0200
0100
0100
81E0
7F00
0300
0500
0900
1100
2100
4100
0300
0100
ENDCHAR
STARTCHAR U_30AB
ENCODING 12459
SWIDTH 1000 0
DWIDTH 15 0
BBX 10 13 2 -2
BITMAP
0800
0400
0400
87C0
7C40
0840
0840
1080
1080
2080
4500
8300
0200
ENDCHAR
STARTCHAR U_30AC
ENCODING 12460
SWIDTH 1000 0
DWIDTH 15 0
BBX 12 14 2 -2
BITMAP
0020
0890
0450
0440
87C0
7C40
0840
0840
1080
1080
2080
4500
8300
0200
ENDCHAR
STARTCHAR U_30AD
ENCODING 12461
SWIDTH 1000 0
DWIDTH 15 0
BBX 11 13 2 -2
BITMAP
1000
0800
09C0
0E00
7400
0400
05E0
0E00
F200
0200
0100
0100
0100
ENDCHAR
STARTCHAR U_30AE
ENCODING 12462
SWIDTH 1000 0
DWIDTH 15 0
BBX 12 14 2 -2
BITMAP
0020
1090
0850
09C0
0E00
7400
0400
05E0
0E00
F200
0200
0100
0100
0100
ENDCHAR
STARTCHAR U_30AF
ENCODING 12463
SWIDTH 1000 0
DWIDTH 15 0
BBX 9 13 3 -2
BITMAP
2000
1380
1C80
1100
2100
2200
4200
8400
0400
0800
1000
2000
4000
ENDCHAR
STARTCHAR U_30B0
ENCODING 12464
SWIDTH 1000 0
DWIDTH 15 0
BBX 12 14 2 -2
BITMAP
0020
2090
1350
1D40
1100
2100
2200
4200
8400
0400
0800
1000
2000
4000
ENDCHAR
STARTCHAR U_30B1
ENCODING 12465
SWIDTH 1000 0
DWIDTH 15 0
BBX 11 13 2 -2
BITMAP
2000
1000
1000
10E0
3F00
2400
4200
8200
0200
0400
0400
0800
1000
ENDCHAR
STARTCHAR U_30B2
ENCODING 12466
SWIDTH 1000 0
DWIDTH 15 0
BBX 12 14 2 -2
BITMAP
0020
2090
1050
1040
10E0
3F00
2400
4200
8200
0200
0400
0400
0800
1000
ENDCHAR
STARTCHAR U_30B3
ENCODING 12467
SWIDTH 1000 0
DWIDTH 15 0
BBX 10 9 2 0
BITMAP
87C0
7840
0040
0040
0040
0080
0080
0F80
7080
ENDCHAR
STARTCHAR U_30B4
ENCODING 12468
SWIDTH 1000 0
DWIDTH 15 0
BBX 13 12 1 0
BITMAP
0010
0048
0028
87A0
7880
0080
0080
0080
0100
0100
0F00
7100
ENDCHAR
STARTCHAR U_30B5
ENCODING 12469
SWIDTH 1000 0
DWIDTH 15 0
BBX 11 13 2 -2
BITMAP
0200
2100
1100
1100
93E0
7D00
1100
1100
1100
0200
0200
0400
0800
ENDCHAR
STARTCHAR U_30B6
ENCODING 12470
SWIDTH 1000 0
DWIDTH 15 0
BBX 12 14 2 -2
BITMAP
0020
0290
2150
1140
1100
93E0
7D00
1100
1100
1100
0200
0200
0400
0800
ENDCHAR
STARTCHAR U_30B7
ENCODING 12471
SWIDTH 1000 0
DWIDTH 15 0
BBX 10 11 3 -1
BITMAP
6000
1000
0000
C000
2040
0080
0100
0200
0400
9800
6000
ENDCHAR
STARTCHAR U_30B8
ENCODING 12472
SWIDTH 1000 0
DWIDTH 15 0
BBX 11 12 3 -1
BITMAP
0040
6120
10A0
0080
C000
2040
0080
0100
0200
0400
9800
6000
ENDCHAR
STARTCHAR U_30B9
ENCODING 12473
SWIDTH 1000 0
DWIDTH 15 0
BBX 10 10 2 0
BITMAP
4380
3C80
0100
0100
0200
0200
0500
0880
3040
C040
ENDCHAR
STARTCHAR U_30BA
ENCODING 12474
SWIDTH 1000 0
DWIDTH 15 0
BBX 13 12 1 0
BITMAP
0010
0048
43A8
3CA0
0100
0100
0200
0200
0500
0880
3040
C040
ENDCHAR
STARTCHAR U_30BB
ENCODING 12475
SWIDTH 1000 0
DWIDTH 15 0
BBX 11 12 2 -1
BITMAP
2000
1000
1000
11E0
1620
9840
7080
1100
1000
1000
0800
07C0
ENDCHAR
STARTCHAR U_30BC
ENCODING 12476
SWIDTH 1000 0
DWIDTH 15 0
BBX 12 13 2 -1
BITMAP
0020
2090
1050
1040
11E0
1620
9840
7080
1100
1000
1000
0800
07E0
ENDCHAR
STARTCHAR U_30BD
ENCODING 12477
SWIDTH 1000 0
DWIDTH 15 0
BBX 9 13 3 -2
BITMAP
0100
8080
4080
2080
2100
2100
0200
0200
0400
0400
0800
1000
2000
ENDCHAR
STARTCHAR U_30BE
ENCODING 12478
SWIDTH 1000 0
DWIDTH 15 0
BBX 12 14 2 -2
BITMAP
0020
0290
8150
4140
2100
2100
2100
0200
0200
0400
0400
0800
1000
2000
ENDCHAR
STARTCHAR U_30BF
ENCODING 12479
SWIDTH 1000 0
DWIDTH 15 0
BBX 10 13 2 -2
BITMAP
0800
0400
07C0
0840
0880
1480
2300
4100
0200
0400
0800
3000
C000
ENDCHAR
STARTCHAR U_30C0
ENCODING 12480
SWIDTH 1000 0
DWIDTH 15 0
BBX 13 14 1 -2
BITMAP
0010
0848
0428
07E0
0840
0840
1480
2280
4100
0200
0400
0800
3000
C000
ENDCHAR
STARTCHAR U_30C1
ENCODING 12481
SWIDTH 1000 0
DWIDTH 15 0
BBX 11 13 2 -2
BITMAP
0100
0600
7800
0400
03E0
8E00
7200
0200
0200
0400
0400
0800
1000
ENDCHAR
STARTCHAR U_30C2
ENCODING 12482
SWIDTH 1000 0
DWIDTH 15 0
BBX 12 14 2 -2
BITMAP
0020
0190
0650
7840
0400
03E0
8E00
7200
0200
0200
0400
0400
0800
1000
ENDCHAR
STARTCHAR U_30C3
ENCODING 12483
SWIDTH 1000 0
DWIDTH 15 0
BBX 8 8 3 -2
BITMAP
22
91
51
42
02
04
08
10
ENDCHAR
STARTCHAR U_30C4
ENCODING 12484
SWIDTH 1000 0
DWIDTH 15 0
BBX 11 11 2 -1
BITMAP
1040
8820
4420
2440
2040
0080
0080
0100
0200
0400
0800
ENDCHAR
STARTCHAR U_30C5
ENCODING 12485
SWIDTH 1000 0
DWIDTH 15 0
BBX 13 13 1 -1
BITMAP
0010
0048
2128
10A0
8880
4880
2080
2100
0100
0200
0400
0800
1000
ENDCHAR
STARTCHAR U_30C6
ENCODING 12486
SWIDTH 1000 0
DWIDTH 15 0
BBX 11 12 2 -2
BITMAP
4780
3800
0000
01E0
8E00
7200
0200
0400
0400
0800
1000
2000
ENDCHAR
STARTCHAR U_30C7
ENCODING 12487
SWIDTH 1000 0
DWIDTH 15 0
BBX 12 14 2 -2
BITMAP
0020
0090
4750
3840
0000
83C0
7C00
0200
0200
0400
0400
0800
1000
2000
ENDCHAR
STARTCHAR U_30C8
ENCODING 12488
SWIDTH 1000 0
DWIDTH 15 0
BBX 7 13 4 -2
BITMAP
80
40
40
40
40
70
4C
42
40
40
40
40
40
ENDCHAR
STARTCHAR U_30C9
ENCODING 12489
SWIDTH 1000 0
DWIDTH 15 0
BBX 9 14 3 -2
BITMAP
0100
8480
4280
4200
4000
4000
7000
4C00
4200
4000
4000
4000
4000
4000
ENDCHAR
STARTCHAR U_30CA
ENCODING 12490
SWIDTH 1000 0
DWIDTH 15 0
BBX 11 13 2 -2
BITMAP
0400
0200
0200
83E0
7E00
0200
0200
0200
0400
0400
0800
1000
2000
ENDCHAR
STARTCHAR U_30CB
ENCODING 12491
SWIDTH 1000 0
DWIDTH 15 0
BBX 11 8 2 1
BITMAP
0380
7C00
0000
0000
0000
0000
07C0
F820
ENDCHAR
STARTCHAR U_30CC
ENCODING 12492
SWIDTH 1000 0
DWIDTH 15 0
BBX 10 11 2 -1
BITMAP
43C0
3C40
0080
0080
3900
0700
0300
0480
0840
3040
C000
ENDCHAR
STARTCHAR U_30CD
ENCODING 12493
SWIDTH 1000 0
DWIDTH 15 0
BBX 11 13 2 -2
BITMAP
0800
0400
0780
7880
0100
0200
0400
0D00
34C0
C420
0400
0400
0400
ENDCHAR
STARTCHAR U_30CE
ENCODING 12494
SWIDTH 1000 0
DWIDTH 15 0
BBX 8 13 3 -2
BITMAP
02
01
01
01
02
02
04
04
08
10
20
40
80
ENDCHAR
STARTCHAR U_30CF
ENCODING 12495
SWIDTH 1000 0
DWIDTH 15 0
BBX 12 8 1 0
BITMAP
1100
0880
0840
1020
1020
2010
4010
8010
ENDCHAR
STARTCHAR U_30D0
ENCODING 12496
SWIDTH 1000 0
DWIDTH 15 0
BBX 13 11 1 0
BITMAP
0010
0048
0028
1120
0880
0840
1020
1020
2010
4010
8010
ENDCHAR
STARTCHAR U_30D1
ENCODING 12497
SWIDTH 1000 0
DWIDTH 15 0
BBX 13 12 1 0
BITMAP
0030
0048
0048
0030
1100
0880
0840
1020
1020
2010
4010
8010
ENDCHAR
STARTCHAR U_30D2
ENCODING 12498
SWIDTH 1000 0
DWIDTH 15 0
BBX 9 11 3 -1
BITMAP
8000
4000
4000
4700
7800
4000
4000
4000
4000
2000
1F80
ENDCHAR
STARTCHAR U_30D3
ENCODING 12499
SWIDTH 1000 0
DWIDTH 15 0
BBX 10 12 3 -1
BITMAP
0080
8240
4140
4100
4000
4700
7800
4000
4000
4000
2000
1F80
ENDCHAR
STARTCHAR U_30D4
ENCODING 12500
SWIDTH 1000 0
DWIDTH 15 0
BBX 10 12 3 -1
BITMAP
0180
8240
4240
4180
4000
4700
7800
4000
4000
4000
2000
1F80
ENDCHAR
STARTCHAR U_30D5
ENCODING 12501
SWIDTH 1000 0
DWIDTH 15 0
BBX 9 11 3 -1
BITMAP
8780
7880
0080
0100
0100
0200
0200
0400
0800
1000
2000
ENDCHAR
STARTCHAR U_30D6
ENCODING 12502
SWIDTH 1000 0
DWIDTH 15 0
BBX 12 13 2 -1
BITMAP
0020
0090
8F50
7140
0100
0200
0200
0400
0400
0800
1000
2000
4000
ENDCHAR
STARTCHAR U_30D7
ENCODING 12503
SWIDTH 1000 0
DWIDTH 15 0
BBX 12 13 2 -1
BITMAP
0060
0090
8F90
7160
0100
0200
0200
0400
0400
0800
1000
2000
4000
ENDCHAR
STARTCHAR U_30D8
ENCODING 12504
SWIDTH 1000 0
DWIDTH 15 0
BBX 13 6 1 2
BITMAP
0400
0A00
9100
6080
0060
0018
ENDCHAR
STARTCHAR U_30D9
ENCODING 12505
SWIDTH 1000 0
DWIDTH 15 0
BBX 13 9 1 2
BITMAP
0040
0120
00A0
0480
0A00
9100
6080
0060
0018
ENDCHAR
STARTCHAR U_30DA
ENCODING 12506
SWIDTH 1000 0
DWIDTH 15 0
BBX 13 9 1 2
BITMAP
00C0
0120
0120
04C0
0A00
9100
6080
0060
0018
ENDCHAR
STARTCHAR U_30DB
ENCODING 12507
SWIDTH 1000 0
DWIDTH 15 0
BBX 10 13 2 -2
BITMAP
0800
0400
0400
87C0
7C00
0400
0500
2480
2440
4440
8400
0C00
0400
ENDCHAR
STARTCHAR U_30DC
ENCODING 12508
SWIDTH 1000 0
DWIDTH 15 0
BBX 12 14 2 -2
BITMAP
0020
0890
0450
0440
87C0
7C00
0400
0500
2480
2440
4440
8400
0C00
0400
ENDCHAR
STARTCHAR U_30DD
ENCODING 12509
SWIDTH 1000 0
DWIDTH 15 0
BBX 12 14 2 -2
BITMAP
0060
0890
0490
0460
87C0
7C00
0400
0500
2480
2440
4440
8400
0C00
0400
ENDCHAR
STARTCHAR U_30DE
ENCODING 12510
SWIDTH 1000 0
DWIDTH 15 0
BBX 11 9 2 0
BITMAP
83C0
7C20
0040
0080
0100
3200
0C00
0200
0100
ENDCHAR
STARTCHAR U_30DF
ENCODING 12511
SWIDTH 1000 0
DWIDTH 15 0
BBX 8 13 3 -2
BITMAP
20
18
06
01
40
30
0C
02
80
60
18
06
01
ENDCHAR
STARTCHAR U_30E0
ENCODING 12512
SWIDTH 1000 0
DWIDTH 15 0
BBX 11 11 2 0
BITMAP
0800
0400
0400
0400
0800
0800
0900
1080
10C0
A720
7820
ENDCHAR
STARTCHAR U_30E1
ENCODING 12513
SWIDTH 1000 0
DWIDTH 15 0
BBX 10 13 2 -2
BITMAP
0100
0080
0080
0080
1880
0700
0100
0280
0240
0400
0800
3000
C000
ENDCHAR
STARTCHAR U_30E2
ENCODING 12514
SWIDTH 1000 0
DWIDTH 15 0
BBX 11 10 2 0
BITMAP
4380
3C00
0800
0800
8FE0
7800
0800
0800
0800
07C0
ENDCHAR
STARTCHAR U_30E3
ENCODING 12515
SWIDTH 1000 0
DWIDTH 15 0
BBX 9 9 3 -2
BITMAP
2000
1380
1C80
F100
0A00
0800
0400
0400
0400
ENDCHAR
STARTCHAR U_30E4
ENCODING 12516
SWIDTH 1000 0
DWIDTH 15 0
BBX 11 12 2 -1
BITMAP
2000
1000
11E0
0E20
9840
6880
0500
0400
0400
0200
0200
0200
ENDCHAR
STARTCHAR U_30E5
ENCODING 12517
SWIDTH 1000 0
DWIDTH 15 0
BBX 9 6 3 0
BITMAP
0E00
7200
0200
0400
0F00
F080
ENDCHAR
STARTCHAR U_30E6
ENCODING 12518
SWIDTH 1000 0
DWIDTH 15 0
BBX 11 7 2 1
BITMAP
4700
3900
0100
0200
0200
07C0
F820
ENDCHAR
STARTCHAR U_30E7
ENCODING 12519
SWIDTH 1000 0
DWIDTH 15 0
BBX 7 8 4 -1
BITMAP
1E
E2
02
1E
E4
04
1C
E2
ENDCHAR
STARTCHAR U_30E8
ENCODING 12520
SWIDTH 1000 0
DWIDTH 15 0
BBX 9 11 3 -1
BITMAP
0F80
F080
0080
0080
0F00
7100
0100
0100
0100
0F00
7080
ENDCHAR
STARTCHAR U_30E9
ENCODING 12521
SWIDTH 1000 0
DWIDTH 15 0
BBX 10 12 2 -2
BITMAP
4700
3800
01C0
8E40
7040
0040
0080
0080
0100
0200
0C00
3000
ENDCHAR
STARTCHAR U_30EA
ENCODING 12522
SWIDTH 1000 0
DWIDTH 15 0
BBX 7 13 4 -2
BITMAP
04
82
42
42
42
42
42
42
04
04
08
10
20
ENDCHAR
STARTCHAR U_30EB
ENCODING 12523
SWIDTH 1000 0
DWIDTH 15 0
BBX 11 11 2 -1
BITMAP
0400
2200
1200
1200
1220
1220
1240
2240
2280
4300
8200
ENDCHAR
STARTCHAR U_30EC
ENCODING 12524
SWIDTH 1000 0
DWIDTH 15 0
BBX 9 12 3 -1
BITMAP
8000
4000
4000
4000
4000
4000
4080
4100
4200
4400
5800
6000
ENDCHAR
STARTCHAR U_30ED
ENCODING 12525
SWIDTH 1000 0
DWIDTH 15 0
BBX 10 9 2 0
BITMAP
87C0
7840
4040
4040
2080
2080
2780
3840
2000
ENDCHAR
STARTCHAR U_30EE
ENCODING 12526
SWIDTH 1000 0
DWIDTH 15 0
BBX 9 8 3 -2
BITMAP
8780
7880
4100
2100
2200
0200
0400
0800
ENDCHAR
STARTCHAR U_30EF
ENCODING 12527
SWIDTH 1000 0
DWIDTH 15 0
BBX 10 12 2 -2
BITMAP
87C0
7840
4040
2040
2080
2080
0100
0100
0200
0400
0800
1000
ENDCHAR
STARTCHAR U_30F0
ENCODING 12528
SWIDTH 1000 0
DWIDTH 15 0
BBX 11 13 2 -2
BITMAP
0400
0200
0200
07C0
7A00
2200
1200
17C0
FA20
0200
0200
0200
0200
ENDCHAR
STARTCHAR U_30F1
ENCODING 12529
SWIDTH 1000 0
DWIDTH 15 0
BBX 11 8 2 1
BITMAP
0780
7880
0900
0600
0400
0400
07C0
F820
ENDCHAR
STARTCHAR U_30F2
ENCODING 12530
SWIDTH 1000 0
DWIDTH 15 0
BBX 9 12 3 -2
BITMAP
0F80
F080
0080
0100
0F00
7100
0200
0200
0400
0800
3000
C000
ENDCHAR
STARTCHAR U_30F3
ENCODING 12531
SWIDTH 1000 0
DWIDTH 15 0
BBX 10 10 3 -1
BITMAP
C000
2040
1040
0080
0080
0100
0200
0400
9800
6000
ENDCHAR
STARTCHAR U_30F4
ENCODING 12532
SWIDTH 1000 0
DWIDTH 15 0
BBX 13 14 1 -2
BITMAP
0010
0848
0428
0420
87C0
7840
4040
2080
2080
0100
0100
0200
0400
0800
ENDCHAR
STARTCHAR U_30F5
ENCODING 12533
SWIDTH 1000 0
DWIDTH 15 0
BBX 8 9 3 -2
BITMAP
10
08
8F
71
11
11
21
46
82
ENDCHAR
STARTCHAR U_30F6
ENCODING 12534
SWIDTH 1000 0
DWIDTH 15 0
BBX 8 9 3 -2
BITMAP
40
20
23
3C
44
84
08
10
20
ENDCHAR
STARTCHAR U_3105
ENCODING 12549
SWIDTH 1000 0
DWIDTH 15 0
BBX 10 13 2 -1
BITMAP
1800
1000
21C0
7E40
C040
0040
0040
0080
0080
0100
0B00
0600
0400
ENDCHAR
STARTCHAR U_3106
ENCODING 12550
SWIDTH 1000 0
DWIDTH 15 0
BBX 11 13 2 -1
BITMAP
0400
0400
0800
13C0
3CC0
0180
1100
0E00
0700
0980
30C0
4060
8000
ENDCHAR
STARTCHAR U_3107
ENCODING 12551
SWIDTH 1000 0
DWIDTH 15 0
BBX 11 11 2 0
BITMAP
01C0
FE60
4040
4040
4040
4040
4040
4040
4040
4040
4040
ENDCHAR
STARTCHAR U_3108
ENCODING 12552
SWIDTH 1000 0
DWIDTH 15 0
BBX 10 9 3 1
BITMAP
FFC0
8000
8000
8000
8000
8000
8000
8000
7FC0
ENDCHAR
STARTCHAR U_3109
ENCODING 12553
SWIDTH 1000 0
DWIDTH 15 0
BBX 11 13 2 -1
BITMAP
0800
1000
2040
7FE0
E820
0C20
0840
1040
3040
2080
4080
8300
0100
ENDCHAR
STARTCHAR U_310A
ENCODING 12554
SWIDTH 1000 0
DWIDTH 15 0
BBX 13 12 1 -1
BITMAP
0300
0300
0200
0200
FFF8
0200
0400
0480
0880
08C0
1F20
0020
ENDCHAR
STARTCHAR U_310B
ENCODING 12555
SWIDTH 1000 0
DWIDTH 15 0
BBX 8 11 4 0
BITMAP
3E
C4
04
08
0F
01
02
02
04
2C
18
ENDCHAR
STARTCHAR U_310C
ENCODING 12556
SWIDTH 1000 0
DWIDTH 15 0
BBX 10 12 3 0
BITMAP
0C00
0400
4800
4F80
F8C0
0880
1080
1080
2080
4100
4900
8600
ENDCHAR
STARTCHAR U_310D
ENCODING 12557
SWIDTH 1000 0
DWIDTH 15 0
BBX 10 13 3 -1
BITMAP
1080
18C0
1080
2100
4100
4200
8400
8400
4200
2100
3180
1080
1080
ENDCHAR
STARTCHAR U_310E
ENCODING 12558
SWIDTH 1000 0
DWIDTH 15 0
BBX 13 11 1 0
BITMAP
FFF8
4400
0400
0FE0
0820
0060
0040
0040
00C0
0780
0300
ENDCHAR
STARTCHAR U_310F
ENCODING 12559
SWIDTH 1000 0
DWIDTH 15 0
BBX 12 12 2 0
BITMAP
00F0
1F00
1000
1000
1000
2000
2000
2000
4000
4000
8000
8000
ENDCHAR
STARTCHAR U_3110
ENCODING 12560
SWIDTH 1000 0
DWIDTH 15 0
BBX 7 14 4 -1
BITMAP
06
02
02
C2
42
42
46
5A
E2
82
02
02
02
02
ENDCHAR
STARTCHAR U_3111
ENCODING 12561
SWIDTH 1000 0
DWIDTH 15 0
BBX 8 12 4 0
BITMAP
02
03
06
18
30
C0
80
60
18
04
02
01
ENDCHAR
STARTCHAR U_3112
ENCODING 12562
SWIDTH 1000 0
DWIDTH 15 0
BBX 13 11 1 0
BITMAP
FFF8
0200
0200
0200
0200
0200
0200
0200
0200
0200
0200
ENDCHAR
STARTCHAR U_3113
ENCODING 12563
SWIDTH 1000 0
DWIDTH 15 0
BBX 13 11 1 0
BITMAP
0200
0200
0240
2240
2240
2240
3FC0
0200
0200
FFF8
4000
ENDCHAR
STARTCHAR U_3114
ENCODING 12564
SWIDTH 1000 0
DWIDTH 15 0
BBX 8 14 3 -1
BITMAP
02
02
04
09
31
02
0C
1C
24
C4
04
04
04
04
ENDCHAR
STARTCHAR U_3115
ENCODING 12565
SWIDTH 1000 0
DWIDTH 15 0
BBX 12 12 2 0
BITMAP
01E0
1E30
0020
0060
1FC0
1000
1000
1000
2000
2000
4000
8000
ENDCHAR
STARTCHAR U_3116
ENCODING 12566
SWIDTH 1000 0
DWIDTH 15 0
BBX 11 10 2 1
BITMAP
9FC0
6060
4040
4040
4840
4640
4240
4040
4040
7F80
ENDCHAR
STARTCHAR U_3117
ENCODING 12567
SWIDTH 1000 0
DWIDTH 15 0
BBX 11 13 2 -1
BITMAP
03C0
FC60
0840
0840
0840
0840
0840
0980
0880
0800
0800
0800
0800
ENDCHAR
STARTCHAR U_3118
ENCODING 12568
SWIDTH 1000 0
DWIDTH 15 0
BBX 12 14 2 -1
BITMAP
0400
0600
0400
0400
07F0
FC00
0800
0800
0F80
1880
0100
0100
0200
0400
ENDCHAR
STARTCHAR U_3119
ENCODING 12569
SWIDTH 1000 0
DWIDTH 15 0
BBX 11 11 2 0
BITMAP
0400
0600
0C00
0800
1800
1000
2000
6080
C0C0
FF20
8020
ENDCHAR
STARTCHAR U_311A
ENCODING 12570
SWIDTH 1000 0
DWIDTH 15 0
BBX 10 12 2 0
BITMAP
4000
C040
31C0
1B00
0C00
0400
0400
0400
0400
0400
0400
0400
ENDCHAR
STARTCHAR U_311B
ENCODING 12571
SWIDTH 1000 0
DWIDTH 15 0
BBX 11 10 2 1
BITMAP
1FE0
E200
0200
0200
3E00
6000
4000
4000
2040
1F80
ENDCHAR
STARTCHAR U_311C
ENCODING 12572
SWIDTH 1000 0
DWIDTH 15 0
BBX 12 13 2 -1
BITMAP
0600
0600
0200
03F0
FE00
0200
0200
3E00
4000
4000
4000
2040
1F80
ENDCHAR
STARTCHAR U_311D
ENCODING 12573
SWIDTH 1000 0
DWIDTH 15 0
BBX 14 11 1 0
BITMAP
1080
0840
0840
0840
09FC
FE80
0880
0880
0800
0800
07C0
ENDCHAR
STARTCHAR U_311E
ENCODING 12574
SWIDTH 1000 0
DWIDTH 15 0
BBX 11 11 2 0
BITMAP
7FE0
2600
6400
DFC0
6840
0840
1080
1080
2080
4100
0200
ENDCHAR
STARTCHAR U_311F
ENCODING 12575
SWIDTH 1000 0
DWIDTH 15 0
BBX 11 11 2 0
BITMAP
0400
0E00
3400
C400
0400
0200
0200
0100
0080
0060
0020
ENDCHAR
STARTCHAR U_3120
ENCODING 12576
SWIDTH 1000 0
DWIDTH 15 0
BBX 10 11 2 0
BITMAP
0600
0400
0840
08C0
1080
2700
FA00
0400
0800
10C0
7F40
ENDCHAR
STARTCHAR U_3121
ENCODING 12577
SWIDTH 1000 0
DWIDTH 15 0
BBX 12 11 2 0
BITMAP
01C0
3E40
0080
0180
0900
0600
0500
0880
1040
2020
C030
ENDCHAR
STARTCHAR U_3122
ENCODING 12578
SWIDTH 1000 0
DWIDTH 15 0
BBX 11 12 2 0
BITMAP
0380
7CC0
2180
2100
2200
5FC0
E060
0040
0080
0080
0100
0200
ENDCHAR
STARTCHAR U_3123
ENCODING 12579
SWIDTH 1000 0
DWIDTH 15 0
BBX 12 11 1 0
BITMAP
1000
1000
2000
2000
2060
7FB0
8030
0020
0060
0040
0080
ENDCHAR
STARTCHAR U_3124
ENCODING 12580
SWIDTH 1000 0
DWIDTH 15 0
BBX 12 13 1 -1
BITMAP
0200
0200
0200
0200
07E0
3E00
0600
0A00
0A00
1200
2200
4300
80F0
ENDCHAR
STARTCHAR U_3125
ENCODING 12581
SWIDTH 1000 0
DWIDTH 15 0
BBX 12 11 1 1
BITMAP
0200
0300
0300
0200
0400
0400
0800
1000
3000
6FF0
F000
ENDCHAR
STARTCHAR U_3126
ENCODING 12582
SWIDTH 1000 0
DWIDTH 15 0
BBX 11 11 2 0
BITMAP
2600
2600
2600
2400
2400
2400
2400
4400
4400
8400
03E0
ENDCHAR
STARTCHAR U_3127
ENCODING 12583
SWIDTH 1000 0
DWIDTH 15 0
BBX 13 1 1 5
BITMAP
FFF8
ENDCHAR
STARTCHAR U_3128
ENCODING 12584
SWIDTH 1000 0
DWIDTH 15 0
BBX 10 11 3 0
BITMAP
0080
4180
2100
1200
0E00
0400
0A00
1300
2180
40C0
8040
ENDCHAR
STARTCHAR U_3129
ENCODING 12585
SWIDTH 1000 0
DWIDTH 15 0
BBX 10 11 2 0
BITMAP
0080
4040
4040
4040
4040
4040
4040
8040
8040
FFC0
4040
ENDCHAR
STARTCHAR U_3220
ENCODING 12832
SWIDTH 1000 0
DWIDTH 15 0
BBX 14 12 0 0
BITMAP
4008
4008
8004
8004
8004
8024
BFF4
8004
8004
8004
4008
4008
ENDCHAR
STARTCHAR U_3221
ENCODING 12833
SWIDTH 1000 0
DWIDTH 15 0
BBX 15 13 0 -1
BITMAP
2008
4008
4004
8FE4
8004
8002
8002
8002
BFFC
8004
4004
4008
2000
ENDCHAR
STARTCHAR U_3222
ENCODING 12834
SWIDTH 1000 0
DWIDTH 15 0
BBX 15 13 0 -1
BITMAP
6008
4028
5FF4
8004
8004
8002
8FE2
8002
8004
BFFC
4004
4008
2000
ENDCHAR
STARTCHAR U_3223
ENCODING 12835
SWIDTH 1000 0
DWIDTH 15 0
BBX 15 14 0 -1
BITMAP
0008
2008
5FFC
524C
524A
924A
926A
926A
946A
900A
5FFA
500C
4004
2000
ENDCHAR
STARTCHAR U_3224
ENCODING 12836
SWIDTH 1000 0
DWIDTH 15 0
BBX 15 13 0 -1
BITMAP
2008
4014
5FF4
4204
8202
8FE2
8222
8422
8422
7FFC
4004
4008
2008
ENDCHAR
STARTCHAR U_3225
ENCODING 12837
SWIDTH 1000 0
DWIDTH 15 0
BBX 15 13 0 -1
BITMAP
2008
4108
4104
8114
9FF4
8002
8442
8822
8822
8814
5014
4008
2008
ENDCHAR
STARTCHAR U_3226
ENCODING 12838
SWIDTH 1000 0
DWIDTH 15 0
BBX 15 13 0 -1
BITMAP
2008
4408
4404
8414
8472
BF82
8402
8402
8412
8414
43E4
4008
2008
ENDCHAR
STARTCHAR U_3227
ENCODING 12839
SWIDTH 1000 0
DWIDTH 15 0
BBX 14 12 0 0
BITMAP
4008
43C8
8084
8484
8484
8484
8444
8844
8824
9024
A018
4008
ENDCHAR
STARTCHAR U_3228
ENCODING 12840
SWIDTH 1000 0
DWIDTH 15 0
BBX 15 13 0 -1
BITMAP
2008
4208
4204
5FC4
8244
8242
8242
8442
8444
4844
503C
4008
2008
ENDCHAR
STARTCHAR U_3229
ENCODING 12841
SWIDTH 1000 0
DWIDTH 15 0
BBX 15 13 0 -1
BITMAP
2108
4108
4104
8104
8104
BFFA
8102
8102
8104
8104
4104
4108
0008
ENDCHAR
STARTCHAR U_32A3
ENCODING 12963
SWIDTH 1000 0
DWIDTH 15 0
BBX 13 13 1 -1
BITMAP
0F80
1040
3FE0
4210
8208
9208
93E8
9208
9208
5210
3FE0
1040
0F80
ENDCHAR
STARTCHAR U_338E
ENCODING 13198
SWIDTH 1000 0
DWIDTH 15 0
BBX 13 9 1 -1
BITMAP
68C8
B538
A510
A510
A4E0
A500
A4E0
A510
01F0
ENDCHAR
STARTCHAR U_338F
ENCODING 13199
SWIDTH 1000 0
DWIDTH 15 0
BBX 13 13 1 -1
BITMAP
4000
C000
4000
4000
4CC8
4938
5110
7110
50E0
4900
EDE0
0110
01F0
ENDCHAR
STARTCHAR U_339C
ENCODING 13212
SWIDTH 1000 0
DWIDTH 15 0
BBX 13 7 0 1
BITMAP
A950
54A8
54A8
54A8
54A8
54A8
54A8
ENDCHAR
STARTCHAR U_339D
ENCODING 13213
SWIDTH 1000 0
DWIDTH 15 0
BBX 12 9 1 0
BITMAP
3000
49F0
8950
8150
8150
8150
8550
4950
3000
ENDCHAR
STARTCHAR U_339E
ENCODING 13214
SWIDTH 1000 0
DWIDTH 15 0
BBX 12 11 1 1
BITMAP
4000
C000
4000
4000
4DF0
4950
5150
7150
5150
4950
ED50
ENDCHAR
STARTCHAR U_33A1
ENCODING 13217
SWIDTH 1000 0
DWIDTH 15 0
BBX 14 12 0 1
BITMAP
0008
0014
0014
0008
0014
DDDC
6640
4440
4440
4440
4440
EEE0
ENDCHAR
STARTCHAR U_33C4
ENCODING 13252
SWIDTH 1000 0
DWIDTH 15 0
BBX 12 9 1 0
BITMAP
3060
4890
8910
8100
8100
8100
8100
4490
3860
ENDCHAR
STARTCHAR U_33CE
ENCODING 13262
SWIDTH 1000 0
DWIDTH 15 0
BBX 14 11 1 1
BITMAP
CD8C
4988
5198
5198
61A8
6168
5168
5168
4968
4948
CD8C
ENDCHAR
STARTCHAR U_33D1
ENCODING 13265
SWIDTH 1000 0
DWIDTH 15 0
BBX 11 11 2 1
BITMAP
C000
4000
4000
4000
4D80
4640
4440
4440
4440
4440
E6E0
ENDCHAR
STARTCHAR U_33D2
ENCODING 13266
SWIDTH 1000 0
DWIDTH 15 0
BBX 14 14 0 -2
BITMAP
4000
C000
4000
4000
4C64
52DC
5288
5288
5270
5280
F2F0
0C88
0088
0070
ENDCHAR
STARTCHAR U_33D5
ENCODING 13269
SWIDTH 1000 0
DWIDTH 15 0
BBX 14 10 0 1
BITMAP
0098
0008
0008
A888
5588
5488
5488
5488
5488
55DC
ENDCHAR
STARTCHAR U_4E01
ENCODING 19969
SWIDTH 1000 0
DWIDTH 15 0
BBX 13 14 0 -1
BITMAP
0010
FFF8
0200
0200
0200
0200
0200
0200
0200
0200
0200
0200
0A00
0400
ENDCHAR
STARTCHAR U_4E02
ENCODING 19970
SWIDTH 1000 0
DWIDTH 15 0
BBX 14 14 0 -1
BITMAP
0008
FFFC
0400
0400
0800
0800
0FF0
0010
0010
0010
0020
0020
0140
0080
ENDCHAR
STARTCHAR U_4E03
ENCODING 19971
SWIDTH 1000 0
DWIDTH 15 0
BBX 13 14 0 -1
BITMAP
0400
0400
0400
0400
0438
07C0
FC00
0400
0400
0400
0408
0408
0408
03F8
ENDCHAR
STARTCHAR U_4E04
ENCODING 19972
SWIDTH 1000 0
DWIDTH 15 0
BBX 14 13 0 0
BITMAP
0200
0200
0200
0200
0200
0200
0200
0200
0200
0200
0200
0208
FFFC
ENDCHAR
STARTCHAR U_4E05
ENCODING 19973
SWIDTH 1000 0
DWIDTH 15 0
BBX 14 14 0 -1
BITMAP
0008
FFFC
0200
0200
0200
0200
0200
0200
0200
0200
0200
0200
0200
0200
ENDCHAR
STARTCHAR U_4E06
ENCODING 19974
SWIDTH 1000 0
DWIDTH 15 0
BBX 12 10 1 2
BITMAP
0020
FFF0
0200
0200
0400
0800
0800
1000
2000
C000
ENDCHAR
STARTCHAR U_4E07
ENCODING 19975
SWIDTH 1000 0
DWIDTH 15 0
BBX 13 13 0 -1
BITMAP
FFF8
0400
0400
0400
07E0
0420
0420
0820
0820
1020
1020
2140
C080
ENDCHAR
STARTCHAR U_4E08
ENCODING 19976
SWIDTH 1000 0
DWIDTH 15 0
BBX 13 14 0 -1
BITMAP
0100
0100
0110
FFF8
0100
0100
1100
1100
0A00
0A00
0600
0500
18C0
E038
ENDCHAR
STARTCHAR U_4E09
ENCODING 19977
SWIDTH 1000 0
DWIDTH 15 0
BBX 14 12 0 0
BITMAP
0010
7FF8
0000
0000
0000
0020
3FF0
0000
0000
0000
0008
FFFC
ENDCHAR
STARTCHAR U_4E0A
ENCODING 19978
SWIDTH 1000 0
DWIDTH 15 0
BBX 14 14 0 -1
BITMAP
0200
0200
0200
0200
0200
03F0
0200
0200
0200
0200
0200
0200
0200
FFFC
ENDCHAR
STARTCHAR U_4E0B
ENCODING 19979
SWIDTH 1000 0
DWIDTH 15 0
BBX 13 14 0 -1
BITMAP
0010
FFF8
0200
0200
0200
0300
0280
0260
0220
0200
0200
0200
0200
0200
ENDCHAR
STARTCHAR U_4E0C
ENCODING 19980
SWIDTH 1000 0
DWIDTH 15 0
BBX 14 14 0 -1
BITMAP
0008
FFFC
0420
0420
0420
0420
0420
0420
0420
0420
0820
0820
1020
6020
ENDCHAR
STARTCHAR U_4E0D
ENCODING 19981
SWIDTH 1000 0
DWIDTH 15 0
BBX 13 14 0 -1
BITMAP
0010
FFF8
0100
0100
0200
0680
0A40
1230
2218
4208
8200
0200
0200
0200
ENDCHAR
STARTCHAR U_4E0E
ENCODING 19982
SWIDTH 1000 0
DWIDTH 15 0
BBX 13 14 0 -1
BITMAP
1000
1010
1FF8
1000
1000
1FF0
0010
0010
FF90
0010
0010
0010
00A0
0040
ENDCHAR
STARTCHAR U_4E0F
ENCODING 19983
SWIDTH 1000 0
DWIDTH 15 0
BBX 14 14 0 -1
BITMAP
0008
FFFC
0200
2200
23F8
2208
2208
3FF8
0008
0008
0008
0110
00B0
0040
ENDCHAR
STARTCHAR U_4E10
ENCODING 19984
SWIDTH 1000 0
DWIDTH 15 0
BBX 14 14 0 -1
BITMAP
0008
FFFC
0200
0200
23F8
2200
2200
7FF8
2008
0008
0008
0008
00D0
0020
ENDCHAR
STARTCHAR U_4E11
ENCODING 19985
SWIDTH 1000 0
DWIDTH 15 0
BBX 13 12 0 0
BITMAP
3FE0
0420
0420
0420
0420
3FE0
0820
0820
0820
0820
0820
FFF8
ENDCHAR
STARTCHAR U_4E12
ENCODING 19986
SWIDTH 1000 0
DWIDTH 15 0
BBX 14 14 0 -1
BITMAP
3FF8
0208
0208
0208
1208
0C08
0608
0A08
0810
1010
20A0
4040
0008
FFFC
ENDCHAR
STARTCHAR U_4E13
ENCODING 19987
SWIDTH 1000 0
DWIDTH 15 0
BBX 13 14 0 -1
BITMAP
0200
0200
7FF0
0400
0400
FFF8
0800
1FC0
0040
0080
0500
0300
0080
0080
ENDCHAR
STARTCHAR U_4E14
ENCODING 19988
SWIDTH 1000 0
DWIDTH 15 0
BBX 13 14 0 -1
BITMAP
0040
1FE0
1040
1040
1040
1FC0
1040
1040
1040
1FC0
1040
1040
1040
FFF8
ENDCHAR
STARTCHAR U_4E15
ENCODING 19989
SWIDTH 1000 0
DWIDTH 15 0
BBX 14 14 0 -1
BITMAP
0008
FFFC
0100
0100
0200
0640
0A20
1218
2218
C208
0200
0200
0208
FFFC
ENDCHAR
STARTCHAR U_4E16
ENCODING 19990
SWIDTH 1000 0
DWIDTH 15 0
BBX 13 14 0 -1
BITMAP
0220
0220
2220
2220
FFF8
2220
2220
2220
2220
23E0
2220
2000
2000
3FF8
ENDCHAR
STARTCHAR U_4E17
ENCODING 19991
SWIDTH 1000 0
DWIDTH 15 0
BBX 14 14 0 -1
BITMAP
0200
2220
2220
2228
FFFC
2220
2220
2220
2220
2220
2220
2220
3FE0
2020
ENDCHAR
STARTCHAR U_4E18
ENCODING 19992
SWIDTH 1000 0
DWIDTH 15 0
BBX 14 13 0 0
BITMAP
0060
1F80
1000
1000
1000
1000
1FF8
1080
1080
1080
1080
1080
FFFC
ENDCHAR
STARTCHAR U_4E19
ENCODING 19993
SWIDTH 1000 0
DWIDTH 15 0
BBX 14 13 0 -1
BITMAP
FFFC
0200
0200
0200
7FF8
4208
4308
4488
4848
5048
4008
4028
4010
ENDCHAR
STARTCHAR U_4E1A
ENCODING 19994
SWIDTH 1000 0
DWIDTH 15 0
BBX 13 13 0 0
BITMAP
0880
0880
0880
0880
8890
4890
48A0
28A0
28C0
0880
0880
0880
FFF8
ENDCHAR
STARTCHAR U_4E1B
ENCODING 19995
SWIDTH 1000 0
DWIDTH 15 0
BBX 13 14 0 -1
BITMAP
1080
1080
1080
1080
1080
1880
1480
2540
2140
4220
8410
0800
0010
FFF8
ENDCHAR
STARTCHAR U_4E1C
ENCODING 19996
SWIDTH 1000 0
DWIDTH 15 0
BBX 13 14 0 -1
BITMAP
0400
0400
FFF8
0800
1200
1200
2200
3FE0
0200
1240
2220
4210
8A10
0400
ENDCHAR
STARTCHAR U_4E1D
ENCODING 19997
SWIDTH 1000 0
DWIDTH 15 0
BBX 13 14 0 -1
BITMAP
1040
1040
2080
2080
4510
4920
F3C0
1040
2080
4100
FDF0
0000
0000
FFF8
ENDCHAR
STARTCHAR U_4E1E
ENCODING 19998
SWIDTH 1000 0
DWIDTH 15 0
BBX 13 14 0 -1
BITMAP
3FE0
0040
0480
0300
FA10
0B20
0AC0
1240
2220
4210
8A08
0400
0010
FFF8
ENDCHAR
STARTCHAR U_4E1F
ENCODING 19999
SWIDTH 1000 0
DWIDTH 15 0
BBX 14 14 0 -1
BITMAP
0010
7FF8
0200
0200
3FF0
0200
0200
FFFC
0200
0480
0840
11E0
3E30
0010
ENDCHAR
STARTCHAR U_4E20
ENCODING 20000
SWIDTH 1000 0
DWIDTH 15 0
BBX 14 14 0 -1
BITMAP
0480
0480
0484
FC8C
04B0
04C0
0480
0C80
1484
E484
4484
0478
0000
FFFC
ENDCHAR
STARTCHAR U_4E21
ENCODING 20001
SWIDTH 1000 0
DWIDTH 15 0
BBX 13 14 1 -1
BITMAP
0010
FFF8
0200
0200
7FF0
4210
5250
5250
5250
5FD0
5050
4010
4050
4020
ENDCHAR
STARTCHAR U_4E22
ENCODING 20002
SWIDTH 1000 0
DWIDTH 15 0
BBX 13 13 0 0
BITMAP
00E0
7F00
0200
0200
7FF0
0200
0200
FFF8
0400
0880
1040
7FE0
2010
ENDCHAR
STARTCHAR U_4E23
ENCODING 20003
SWIDTH 1000 0
DWIDTH 15 0
BBX 14 14 0 -1
BITMAP
0008
FFFC
0480
0480
7CF8
4488
4488
4488
7CF8
0480
0880
0880
1080
6080
ENDCHAR
STARTCHAR U_4E24
ENCODING 20004
SWIDTH 1000 0
DWIDTH 15 0
BBX 13 13 0 -1
BITMAP
FFF8
0900
0900
7FF0
4910
4910
4910
5590
5250
6250
4410
4050
4020
ENDCHAR
STARTCHAR U_4E25
ENCODING 20005
SWIDTH 1000 0
DWIDTH 15 0
BBX 14 14 0 -1
BITMAP
3FFC
0240
1248
0A48
0A50
3FFC
2000
2000
2000
2000
2000
2000
4000
8000
ENDCHAR
STARTCHAR U_4E26
ENCODING 20006
SWIDTH 1000 0
DWIDTH 15 0
BBX 14 14 0 -1
BITMAP
2010
1020
0840
7FF8
0480
0480
2490
1490
14A0
14A0
0480
0480
0480
FFFC
ENDCHAR
STARTCHAR U_4E27
ENCODING 20007
SWIDTH 1000 0
DWIDTH 15 0
BBX 13 14 0 -1
BITMAP
0200
0200
7FF0
0200
1220
0A40
0280
FFF8
1200
1230
1140
1080
1660
3818
ENDCHAR
STARTCHAR U_4E28
ENCODING 20008
SWIDTH 1000 0
DWIDTH 15 0
BBX 2 14 6 -1
BITMAP
80
C0
80
80
80
80
80
80
80
80
80
80
80
80
ENDCHAR
STARTCHAR U_4E29
ENCODING 20009
SWIDTH 1000 0
DWIDTH 15 0
BBX 7 14 3 -1
BITMAP
02
42
42
42
42
42
42
46
5A
E2
42
02
02
02
ENDCHAR
STARTCHAR U_4E2A
ENCODING 20010
SWIDTH 1000 0
DWIDTH 15 0
BBX 14 14 0 -1
BITMAP
0200
0200
0500
0880
1040
2220
C21C
0208
0200
0200
0200
0200
0200
0200
ENDCHAR
STARTCHAR U_4E2B
ENCODING 20011
SWIDTH 1000 0
DWIDTH 15 0
BBX 9 13 2 0
BITMAP
8080
4100
2200
2400
0800
0800
0800
0800
0800
0800
0800
0800
0800
ENDCHAR
STARTCHAR U_4E2C
ENCODING 20012
SWIDTH 1000 0
DWIDTH 15 0
BBX 7 14 3 -1
BITMAP
02
02
42
32
12
02
02
0A
32
C2
42
02
02
02
ENDCHAR
STARTCHAR U_4E2D
ENCODING 20013
SWIDTH 1000 0
DWIDTH 15 0
BBX 12 14 2 -1
BITMAP
0400
0400
0420
FFF0
8420
8420
8420
8420
FFE0
8420
0400
0400
0400
0400
ENDCHAR
STARTCHAR U_4E2E
ENCODING 20014
SWIDTH 1000 0
DWIDTH 15 0
BBX 14 14 0 -1
BITMAP
0020
FFF0
0820
0820
0820
7F20
0820
0820
0820
FF90
0814
0814
080C
0804
ENDCHAR
STARTCHAR U_4E2F
ENCODING 20015
SWIDTH 1000 0
DWIDTH 15 0
BBX 12 13 1 -1
BITMAP
0200
0210
0260
0F80
7210
0260
0F80
7210
0260
0F80
F200
0200
0200
ENDCHAR
STARTCHAR U_4E30
ENCODING 20016
SWIDTH 1000 0
DWIDTH 15 0
BBX 13 14 0 -1
BITMAP
0200
0220
7FF0
0200
0200
0240
3FE0
0200
0200
0210
FFF8
0200
0200
0200
ENDCHAR
STARTCHAR U_4E31
ENCODING 20017
SWIDTH 1000 0
DWIDTH 15 0
BBX 12 14 1 -1
BITMAP
0900
0900
8910
8910
8910
8910
8910
B9F0
C910
0900
1100
1100
2100
4100
ENDCHAR
STARTCHAR U_4E32
ENCODING 20018
SWIDTH 1000 0
DWIDTH 15 0
BBX 11 14 1 -1
BITMAP
0400
0400
7FC0
4440
4440
7FC0
0400
FFE0
8420
8420
FFE0
8420
0400
0400
ENDCHAR
STARTCHAR U_4E33
ENCODING 20019
SWIDTH 1000 0
DWIDTH 15 0
BBX 12 14 2 -1
BITMAP
0900
0900
7FE0
4920
7FE0
0900
0900
FFF0
8910
FFF0
0900
0900
1100
6100
ENDCHAR
STARTCHAR U_4E34
ENCODING 20020
SWIDTH 1000 0
DWIDTH 15 0
BBX 13 14 0 -1
BITMAP
0200
1210
13F8
9200
9480
9840
9040
97F0
9490
9490
9490
1490
17F0
1410
ENDCHAR
STARTCHAR U_4E35
ENCODING 20021
SWIDTH 1000 0
DWIDTH 15 0
BBX 14 14 0 -1
BITMAP
0280
4288
3288
1290
FFFC
0820
0440
0280
3FF8
0100
0100
FFFC
0100
0100
ENDCHAR
STARTCHAR U_4E36
ENCODING 20022
SWIDTH 1000 0
DWIDTH 15 0
BBX 5 5 5 5
BITMAP
80
40
30
18
08
ENDCHAR
STARTCHAR U_4E37
ENCODING 20023
SWIDTH 1000 0
DWIDTH 15 0
BBX 10 5 2 5
BITMAP
80C0
4080
3100
1200
0400
ENDCHAR
STARTCHAR U_4E38
ENCODING 20024
SWIDTH 1000 0
DWIDTH 15 0
BBX 14 14 0 -1
BITMAP
0400
0400
0400
0440
3FE0
0440
0440
1440
0C40
0740
0940
1044
2044
C03C
ENDCHAR
STARTCHAR U_4E39
ENCODING 20025
SWIDTH 1000 0
DWIDTH 15 0
BBX 13 13 1 -1
BITMAP
1FC0
1040
1440
1340
1140
1040
FFF8
1040
1040
2040
2040
4140
8080
ENDCHAR
STARTCHAR U_4E3A
ENCODING 20026
SWIDTH 1000 0
DWIDTH 15 0
BBX 12 14 1 -1
BITMAP
0200
2200
1200
1200
FFF0
0210
0410
0410
0910
0890
1090
2010
40A0
8040
ENDCHAR
STARTCHAR U_4E3B
ENCODING 20027
SWIDTH 1000 0
DWIDTH 15 0
BBX 13 14 1 -1
BITMAP
0400
0200
0000
FFF8
0200
0200
0200
0200
3FE0
0200
0200
0200
0200
FFF8
ENDCHAR
STARTCHAR U_4E3C
ENCODING 20028
SWIDTH 1000 0
DWIDTH 15 0
BBX 14 14 0 -1
BITMAP
0840
0840
0840
3FF0
0840
0A40
0940
FFFC
0840
0840
1040
1040
2040
4040
ENDCHAR
STARTCHAR U_4E3D
ENCODING 20029
SWIDTH 1000 0
DWIDTH 15 0
BBX 13 14 0 -1
BITMAP
0010
FFF8
0000
7DF0
4510
4510
4510
6590
5550
5550
4510
4510
5550
4920
ENDCHAR
STARTCHAR U_4E3E
ENCODING 20030
SWIDTH 1000 0
DWIDTH 15 0
BBX 13 14 0 -1
BITMAP
4840
2460
1240
1280
FFF8
0880
1240
2220
DFD8
0200
0200
7FF0
0200
0200
ENDCHAR
STARTCHAR U_4E3F
ENCODING 20031
SWIDTH 1000 0
DWIDTH 15 0
BBX 6 14 4 -1
BITMAP
08
0C
08
08
08
08
08
08
10
10
20
20
40
80
ENDCHAR
STARTCHAR U_4E40
ENCODING 20032
SWIDTH 1000 0
DWIDTH 15 0
BBX 14 13 0 -1
BITMAP
1000
1000
2800
4800
8400
0400
0200
0100
0080
0040
0030
001C
0008
ENDCHAR
STARTCHAR U_4E41
ENCODING 20033
SWIDTH 1000 0
DWIDTH 15 0
BBX 14 13 0 -1
BITMAP
FFC0
0040
0040
0040
0040
0040
0040
0020
0020
0010
0010
0008
0004
ENDCHAR
STARTCHAR U_4E42
ENCODING 20034
SWIDTH 1000 0
DWIDTH 15 0
BBX 13 14 0 -1
BITMAP
0020
1030
1020
1040
0840
0880
0480
0500
0200
0200
0500
08C0
3038
C010
ENDCHAR
STARTCHAR U_4E43
ENCODING 20035
SWIDTH 1000 0
DWIDTH 15 0
BBX 13 14 0 -1
BITMAP
0020
7FF0
0420
0420
0440
0440
04F8
0808
0808
0808
1008
2008
4090
8060
ENDCHAR
STARTCHAR U_4E44
ENCODING 20036
SWIDTH 1000 0
DWIDTH 15 0
BBX 14 12 0 0
BITMAP
0008
0008
0008
0210
0110
00E0
0030
004C
8084
8300
9C00
E000
ENDCHAR
STARTCHAR U_4E45
ENCODING 20037
SWIDTH 1000 0
DWIDTH 15 0
BBX 13 14 0 -1
BITMAP
0800
0800
1100
1F80
1100
2100
4200
0200
0200
0500
0880
1040
2038
C010
ENDCHAR
STARTCHAR U_4E46
ENCODING 20038
SWIDTH 1000 0
DWIDTH 15 0
BBX 13 14 1 -1
BITMAP
1000
1080
1080
1100
2100
7F00
2100
0100
0280
0480
0840
1020
2010
C018
ENDCHAR
STARTCHAR U_4E47
ENCODING 20039
SWIDTH 1000 0
DWIDTH 15 0
BBX 14 14 0 -1
BITMAP
0070
0380
7C00
0400
0400
0410
0478
0780
FC00
0400
0408
0408
040C
03F8
ENDCHAR
STARTCHAR U_4E48
ENCODING 20040
SWIDTH 1000 0
DWIDTH 15 0
BBX 13 14 0 -1
BITMAP
0200
0200
0400
0400
0880
0880
1080
2100
4100
8220
0410
09F8
3E08
1008
ENDCHAR
STARTCHAR U_4E49
ENCODING 20041
SWIDTH 1000 0
DWIDTH 15 0
BBX 13 14 0 -1
BITMAP
0420
2220
2220
2040
1040
1080
0880
0900
0500
0200
0500
0880
3060
C018
ENDCHAR
STARTCHAR U_4E4A
ENCODING 20042
SWIDTH 1000 0
DWIDTH 15 0
BBX 13 11 1 1
BITMAP
0038
07C0
F800
0020
0030
4020
2040
1040
0880
0880
0100
ENDCHAR
STARTCHAR U_4E4B
ENCODING 20043
SWIDTH 1000 0
DWIDTH 15 0
BBX 14 14 0 -1
BITMAP
0800
0600
0220
FFF0
0020
0040
0080
0100
0200
0400
0800
3000
CC00
83FC
ENDCHAR
STARTCHAR U_4E4C
ENCODING 20044
SWIDTH 1000 0
DWIDTH 15 0
BBX 11 14 1 -1
BITMAP
0400
0800
3F80
2080
2080
2280
2100
3FE0
0020
0020
FF20
0020
0140
0080
ENDCHAR
STARTCHAR U_4E4D
ENCODING 20045
SWIDTH 1000 0
DWIDTH 15 0
BBX 13 14 0 -1
BITMAP
1000
1000
1010
3FF8
4400
4400
87E0
0400
0400
07F0
0400
0400
0400
0400
ENDCHAR
STARTCHAR U_4E4E
ENCODING 20046
SWIDTH 1000 0
DWIDTH 15 0
BBX 13 14 0 -1
BITMAP
01F0
7E00
0200
2220
1220
1240
0200
FFF8
0200
0200
0200
0200
0A00
0400
ENDCHAR
STARTCHAR U_4E4F
ENCODING 20047
SWIDTH 1000 0
DWIDTH 15 0
BBX 12 14 0 -1
BITMAP
0040
01E0
7E00
0400
0200
0240
7FE0
0080
0100
0600
0800
3000
C800
87F0
ENDCHAR
STARTCHAR U_4E50
ENCODING 20048
SWIDTH 1000 0
DWIDTH 15 0
BBX 12 14 1 -1
BITMAP
01C0
3E00
2000
2200
2200
4200
7FF0
0200
1A80
1240
6230
8210
0A00
0400
ENDCHAR
STARTCHAR U_4E51
ENCODING 20049
SWIDTH 1000 0
DWIDTH 15 0
BBX 13 13 1 0
BITMAP
0020
03F0
FC00
0420
1440
1680
2500
4500
9480
1440
2420
4418
8400
ENDCHAR
STARTCHAR U_4E52
ENCODING 20050
SWIDTH 1000 0
DWIDTH 15 0
BBX 14 14 0 -1
BITMAP
0060
1F80
1000
1000
1FF0
1080
1080
1080
1088
FFFC
0000
1000
2000
C000
ENDCHAR
STARTCHAR U_4E53
ENCODING 20051
SWIDTH 1000 0
DWIDTH 15 0
BBX 13 14 0 -1
BITMAP
0060
1F80
1000
1000
1FF0
1080
1080
1080
1090
FFF8
0000
0040
0030
0010
ENDCHAR
STARTCHAR U_4E54
ENCODING 20052
SWIDTH 1000 0
DWIDTH 15 0
BBX 14 14 0 -1
BITMAP
0070
3F80
0200
0208
FFFC
0880
1060
285C
C840
0840
0840
0840
1040
2040
ENDCHAR
STARTCHAR U_4E55
ENCODING 20053
SWIDTH 1000 0
DWIDTH 15 0
BBX 14 14 0 -1
BITMAP
0038
3FC0
2100
2FF0
2100
3FFC
2100
2100
2FF0
2910
2910
2950
4920
8100
ENDCHAR
STARTCHAR U_4E56
ENCODING 20054
SWIDTH 1000 0
DWIDTH 15 0
BBX 13 13 0 -1
BITMAP
03F0
7E00
0200
FFF8
1240
1248
7250
1260
1248
3248
D238
0200
0200
ENDCHAR
STARTCHAR U_4E57
ENCODING 20055
SWIDTH 1000 0
DWIDTH 15 0
BBX 14 14 0 -1
BITMAP
00F0
3F00
0100
3FF8
0940
0940
FFFC
0940
3FF8
0580
0940
1120
211C
C108
ENDCHAR
STARTCHAR U_4E58
ENCODING 20056
SWIDTH 1000 0
DWIDTH 15 0
BBX 13 14 0 -1
BITMAP
00C0
7F00
0200
FFF8
0240
1258
F260
1248
3738
CA80
1240
2220
C218
0200
ENDCHAR
STARTCHAR U_4E59
ENCODING 20057
SWIDTH 1000 0
DWIDTH 15 0
BBX 12 13 1 -1
BITMAP
7FE0
0040
0080
0100
0200
0400
0800
1000
2000
4010
8010
8010
7FF0
ENDCHAR
STARTCHAR U_4E5A
ENCODING 20058
SWIDTH 1000 0
DWIDTH 15 0
BBX 9 13 3 0
BITMAP
8000
8000
8000
8000
8000
8000
8000
8000
8000
8100
8100
8180
7F00
ENDCHAR
STARTCHAR U_4E5B
ENCODING 20059
SWIDTH 1000 0
DWIDTH 15 0
BBX 14 5 0 7
BITMAP
0008
FFFC
0008
0010
0020
ENDCHAR
STARTCHAR U_4E5C
ENCODING 20060
SWIDTH 1000 0
DWIDTH 15 0
BBX 13 13 0 0
BITMAP
1000
1020
1030
11E0
1E20
F020
1020
1020
10A0
1048
1008
1008
0FF8
ENDCHAR
STARTCHAR U_4E5D
ENCODING 20061
SWIDTH 1000 0
DWIDTH 15 0
BBX 13 14 0 -1
BITMAP
0800
0800
0800
0800
FF80
0880
0880
0880
0880
1080
1088
2088
4088
8078
ENDCHAR
STARTCHAR U_4E5E
ENCODING 20062
SWIDTH 1000 0
DWIDTH 15 0
BBX 13 14 0 -1
BITMAP
1000
1000
1FF0
2000
4000
8000
3FC0
0180
0600
0800
1008
2008
2008
1FF8
ENDCHAR
STARTCHAR U_4E5F
ENCODING 20063
SWIDTH 1000 0
DWIDTH 15 0
BBX 14 14 0 -1
BITMAP
0100
0100
1110
1178
1390
3D10
D110
1110
1150
1120
1104
1004
1004
0FF8
ENDCHAR
STARTCHAR U_4E60
ENCODING 20064
SWIDTH 1000 0
DWIDTH 15 0
BBX 12 14 0 -1
BITMAP
0020
FFF0
0020
2020
1820
0820
0020
0120
0620
1820
E020
4020
00A0
0040
ENDCHAR
STARTCHAR U_4E61
ENCODING 20065
SWIDTH 1000 0
DWIDTH 15 0
BBX 11 14 1 -1
BITMAP
0200
0200
0400
0800
1080
3F80
0200
0420
09C0
3E40
0080
0100
0E00
F000
ENDCHAR
STARTCHAR U_4E62
ENCODING 20066
SWIDTH 1000 0
DWIDTH 15 0
BBX 13 12 1 0
BITMAP
1100
1100
1100
5500
5500
5500
5500
5500
5500
5D08
7508
C0F8
ENDCHAR
STARTCHAR U_4E63
ENCODING 20067
SWIDTH 1000 0
DWIDTH 15 0
BBX 13 14 1 -1
BITMAP
1100
1100
2100
2100
4500
FD00
0900
1100
1100
2100
4100
8908
FD08
04F8
ENDCHAR
STARTCHAR U_4E64
ENCODING 20068
SWIDTH 1000 0
DWIDTH 15 0
BBX 14 14 0 -1
BITMAP
0008
FFFC
0200
0260
0218
0208
0200
FFF0
0060
0180
0600
3804
4004
3FFC
ENDCHAR
STARTCHAR U_4E65
ENCODING 20069
SWIDTH 1000 0
DWIDTH 15 0
BBX 14 14 0 -1
BITMAP
0038
FFC0
4010
2020
1040
0000
FFF8
0060
0180
0600
1800
2004
4004
3FFC
ENDCHAR
STARTCHAR U_4E66
ENCODING 20070
SWIDTH 1000 0
DWIDTH 15 0
BBX 12 14 0 -1
BITMAP
0840
0830
0810
7FC0
0840
0840
0840
FFF0
0810
0810
0810
08A0
0840
0800
ENDCHAR
STARTCHAR U_4E67
ENCODING 20071
SWIDTH 1000 0
DWIDTH 15 0
BBX 14 13 0 -1
BITMAP
0840
0640
2240
1840
0BFC
FC40
0040
7FF8
0030
03C0
1C08
2008
3FF8
ENDCHAR
STARTCHAR U_4E68
ENCODING 20072
SWIDTH 1000 0
DWIDTH 15 0
BBX 14 14 0 -1
BITMAP
1080
1080
2080
2880
4480
FE80
0280
7C80
4480
4480
4480
4484
7C84
447C
ENDCHAR
STARTCHAR U_4E69
ENCODING 20073
SWIDTH 1000 0
DWIDTH 15 0
BBX 13 14 0 -1
BITMAP
2080
2080
2480
3E80
2080
2080
2080
FC80
8480
8480
8488
8488
FC88
8478
ENDCHAR
STARTCHAR U_4E6A
ENCODING 20074
SWIDTH 1000 0
DWIDTH 15 0
BBX 14 14 0 -1
BITMAP
F800
0BF0
0A90
1290
1290
13F0
1290
2290
2290
2290
43F4
4214
4004
3FFC
ENDCHAR
STARTCHAR U_4E6B
ENCODING 20075
SWIDTH 1000 0
DWIDTH 15 0
BBX 14 14 0 -1
BITMAP
1000
1000
FEF8
2288
2288
4AF8
8400
FFF0
0060
0180
0E00
3004
4004
3FFC
ENDCHAR
STARTCHAR U_4E6C
ENCODING 20076
SWIDTH 1000 0
DWIDTH 15 0
BBX 14 14 0 -1
BITMAP
7FF8
4000
7FF0
4010
7FF0
4000
7FFC
0000
FFF0
0180
0E00
3004
4004
3FFC
ENDCHAR
STARTCHAR U_4E6D
ENCODING 20077
SWIDTH 1000 0
DWIDTH 15 0
BBX 14 14 0 -1
BITMAP
0008
7FFC
0400
0800
1FF8
2808
CFF8
0000
7FF8
0060
0380
1C04
2004
1FFC
ENDCHAR
STARTCHAR U_4E6E
ENCODING 20078
SWIDTH 1000 0
DWIDTH 15 0
BBX 14 14 0 -1
BITMAP
0EF8
3088
2288
2E88
3288
0498
1880
E000
7FF0
00C0
0700
1804
2004
1FFC
ENDCHAR
STARTCHAR U_4E6F
ENCODING 20079
SWIDTH 1000 0
DWIDTH 15 0
BBX 14 14 0 -1
BITMAP
00F8
7F20
1120
0940
FFF8
0100
0500
0200
7FF0
0060
0380
1C04
2004
3FFC
ENDCHAR
STARTCHAR U_4E70
ENCODING 20080
SWIDTH 1000 0
DWIDTH 15 0
BBX 14 14 0 -1
BITMAP
7FFC
0008
0910
0500
2500
1100
1100
0108
7FFC
0280
0440
0820
3018
C008
ENDCHAR
STARTCHAR U_4E71
ENCODING 20081
SWIDTH 1000 0
DWIDTH 15 0
BBX 14 14 0 -1
BITMAP
0400
0E40
7040
1040
1040
FF40
1040
1040
7E40
4240
4244
4244
7E44
423C
ENDCHAR
STARTCHAR U_4E72
ENCODING 20082
SWIDTH 1000 0
DWIDTH 15 0
BBX 12 14 1 -1
BITMAP
8400
47F0
1490
2480
4940
8220
0410
FFF0
0020
01C0
0E00
7000
8010
FFF0
ENDCHAR
STARTCHAR U_4E73
ENCODING 20083
SWIDTH 1000 0
DWIDTH 15 0
BBX 13 14 0 -1
BITMAP
0680
F880
A280
5480
5480
FE80
0880
1280
1C80
F080
1088
1088
5088
2078
ENDCHAR
STARTCHAR U_4E74
ENCODING 20084
SWIDTH 1000 0
DWIDTH 15 0
BBX 14 14 0 -1
BITMAP
1018
11E0
FD00
11FC
1D10
F110
1210
2410
FFF8
0060
0380
1C08
2008
3FF8
ENDCHAR
STARTCHAR U_4E75
ENCODING 20085
SWIDTH 1000 0
DWIDTH 15 0
BBX 14 14 0 -1
BITMAP
1000
0840
7F40
2240
1240
1440
FF40
0840
0840
7F40
0844
0844
083C
0800
ENDCHAR
STARTCHAR U_4E76
ENCODING 20086
SWIDTH 1000 0
DWIDTH 15 0
BBX 13 14 0 -1
BITMAP
0240
FFF8
2220
3FE0
2220
3FE0
2220
2220
FFE0
0180
0600
1808
2008
1FF8
ENDCHAR
STARTCHAR U_4E77
ENCODING 20087
SWIDTH 1000 0
DWIDTH 15 0
BBX 14 14 0 -1
BITMAP
4040
2050
8148
5254
2460
C0C0
4F00
0000
FFF0
0060
0380
1C04
2004
1FFC
ENDCHAR
STARTCHAR U_4E78
ENCODING 20088
SWIDTH 1000 0
DWIDTH 15 0
BBX 14 14 0 -1
BITMAP
1000
10F8
10C8
50A8
5C88
F7FC
54C8
54A8
5488
54F8
580C
5034
4004
3FFC
ENDCHAR
STARTCHAR U_4E79
ENCODING 20089
SWIDTH 1000 0
DWIDTH 15 0
BBX 14 14 0 -1
BITMAP
1080
1080
FE80
1080
7C80
4480
7C80
4480
7C80
5480
1084
FE84
1084
107C
ENDCHAR
STARTCHAR U_4E7A
ENCODING 20090
SWIDTH 1000 0
DWIDTH 15 0
BBX 14 14 0 -1
BITMAP
0608
38F0
2080
3CFC
2490
3C90
2110
4210
BFE0
0080
0700
1804
2004
1FFC
ENDCHAR
STARTCHAR U_4E7B
ENCODING 20091
SWIDTH 1000 0
DWIDTH 15 0
BBX 14 14 0 -1
BITMAP
1040
0840
FEA0
2110
3E4C
2490
5420
4840
BFF0
0080
0700
1808
2008
1FF8
ENDCHAR
STARTCHAR U_4E7C
ENCODING 20092
SWIDTH 1000 0
DWIDTH 15 0
BBX 14 14 0 -1
BITMAP
4080
2048
87FC
5040
23F8
C040
4FFC
4000
FFF0
0060
0380
1C04
2004
1FFC
ENDCHAR
STARTCHAR U_4E7D
ENCODING 20093
SWIDTH 1000 0
DWIDTH 15 0
BBX 14 14 0 -1
BITMAP
0200
3FB0
0240
FFFC
0100
0FF0
3A10
C910
0FF0
0000
7FE0
0604
0804
0FFC
ENDCHAR
STARTCHAR U_4E7E
ENCODING 20094
SWIDTH 1000 0
DWIDTH 15 0
BBX 14 14 0 -1
BITMAP
0840
0840
FF40
087C
7E80
4300
7E78
4210
7E20
0840
FF84
0884
0884
087C
ENDCHAR
STARTCHAR U_4E7F
ENCODING 20095
SWIDTH 1000 0
DWIDTH 15 0
BBX 14 14 0 -1
BITMAP
0E80
F480
A680
5480
4880
2080
4480
F880
2480
FE80
1284
5484
5284
B27C
ENDCHAR
STARTCHAR U_4E80
ENCODING 20096
SWIDTH 1000 0
DWIDTH 15 0
BBX 14 14 0 -1
BITMAP
0FE0
1040
7FF0
C210
7FF0
4210
7FF0
0200
FFF8
8208
8208
FFF8
0204
03FC
ENDCHAR
STARTCHAR U_4E81
ENCODING 20097
SWIDTH 1000 0
DWIDTH 15 0
BBX 14 14 0 -1
BITMAP
0840
FF40
0840
7EFC
4280
7F00
42F8
7E08
0010
7E20
0844
FF84
0884
087C
ENDCHAR
STARTCHAR U_4E82
ENCODING 20098
SWIDTH 1000 0
DWIDTH 15 0
BBX 14 14 0 -1
BITMAP
0340
FC40
5140
2A40
FF40
2640
1840
FF40
9140
A540
FF40
A544
9944
AB3C
ENDCHAR
STARTCHAR U_4E83
ENCODING 20099
SWIDTH 1000 0
DWIDTH 15 0
BBX 14 14 0 -1
BITMAP
0840
4940
2A40
7FC0
1A40
2940
4840
2140
77C0
5140
B544
17C4
2144
413C
ENDCHAR
STARTCHAR U_4E84
ENCODING 20100
SWIDTH 1000 0
DWIDTH 15 0
BBX 14 14 0 -1
BITMAP
1080
FE80
1080
7C80
FE80
8280
7C80
0080
7C80
4480
7C84
4884
2E84
F07C
ENDCHAR
STARTCHAR U_4E85
ENCODING 20101
SWIDTH 1000 0
DWIDTH 15 0
BBX 3 13 5 0
BITMAP
20
20
20
20
20
20
20
20
20
20
20
A0
40
ENDCHAR
STARTCHAR U_4E86
ENCODING 20102
SWIDTH 1000 0
DWIDTH 15 0
BBX 12 14 1 -1
BITMAP
0020
FFF0
0020
00C0
0300
0200
0200
0200
0200
0200
0200
0200
0A00
0400
ENDCHAR
STARTCHAR U_4E87
ENCODING 20103
SWIDTH 1000 0
DWIDTH 15 0
BBX 14 14 0 -1
BITMAP
0800
0800
1000
1FFC
2108
4110
8100
0100
0100
0100
0100
0900
0500
0200
ENDCHAR
STARTCHAR U_4E88
ENCODING 20104
SWIDTH 1000 0
DWIDTH 15 0
BBX 13 13 0 -1
BITMAP
7FC0
0040
0D80
0200
FFF8
0210
0220
0200
0200
0200
0200
0A00
0400
ENDCHAR
STARTCHAR U_4E89
ENCODING 20105
SWIDTH 1000 0
DWIDTH 15 0
BBX 14 14 0 -1
BITMAP
0800
0FC0
1080
3FE0
4220
0220
FFFC
0220
0220
7FE0
0200
0200
0A00
0400
ENDCHAR
STARTCHAR U_4E8A
ENCODING 20106
SWIDTH 1000 0
DWIDTH 15 0
BBX 14 14 0 -1
BITMAP
0100
0100
FFFC
1120
0940
3FF0
0110
7FFC
0110
3FF0
0100
0100
0500
0200
ENDCHAR
STARTCHAR U_4E8B
ENCODING 20107
SWIDTH 1000 0
DWIDTH 15 0
BBX 13 14 0 -1
BITMAP
0200
FFF8
0200
3FE0
2220
3FE0
0200
7FE0
0220
FFF8
0220
7FE0
0200
0E00
ENDCHAR
STARTCHAR U_4E8C
ENCODING 20108
SWIDTH 1000 0
DWIDTH 15 0
BBX 14 11 0 1
BITMAP
0020
3FF0
0000
0000
0000
0000
0000
0000
0000
0008
FFFC
ENDCHAR
STARTCHAR U_4E8D
ENCODING 20109
SWIDTH 1000 0
DWIDTH 15 0
BBX 13 13 1 -1
BITMAP
3FE0
0000
0000
0000
FFF8
0200
0200
0200
0200
0200
0200
0A00
0400
ENDCHAR
STARTCHAR U_4E8E
ENCODING 20110
SWIDTH 1000 0
DWIDTH 15 0
BBX 13 13 0 -1
BITMAP
7FF0
0200
0200
0200
0200
FFF8
0200
0200
0200
0200
0200
0A00
0400
ENDCHAR
STARTCHAR U_4E8F
ENCODING 20111
SWIDTH 1000 0
DWIDTH 15 0
BBX 13 13 0 -1
BITMAP
3FE0
0000
0000
FFF8
0400
0800
1FE0
0020
0020
0020
0040
0280
0100
ENDCHAR
STARTCHAR U_4E90
ENCODING 20112
SWIDTH 1000 0
DWIDTH 15 0
BBX 14 13 0 -1
BITMAP
3FF0
0400
0400
FFFC
0800
0800
1FE0
0020
0020
0020
0020
0240
0180
ENDCHAR
STARTCHAR U_4E91
ENCODING 20113
SWIDTH 1000 0
DWIDTH 15 0
BBX 13 13 0 0
BITMAP
0040
3FE0
0000
0000
0010
FFF8
0400
0800
0880
1040
2060
7FB0
2010
ENDCHAR
STARTCHAR U_4E92
ENCODING 20114
SWIDTH 1000 0
DWIDTH 15 0
BBX 13 13 0 -1
BITMAP
FFF8
0800
0800
0840
1FE0
1040
1040
1040
3FC0
1080
0080
0080
FFF8
ENDCHAR
STARTCHAR U_4E93
ENCODING 20115
SWIDTH 1000 0
DWIDTH 15 0
BBX 14 14 0 -1
BITMAP
0020
3FF0
0000
0000
0000
FFFC
0840
0840
0840
0840
1040
1040
2040
4040
ENDCHAR
STARTCHAR U_4E94
ENCODING 20116
SWIDTH 1000 0
DWIDTH 15 0
BBX 14 12 0 0
BITMAP
7FF8
0200
0200
0200
0200
3FE0
0420
0420
0420
0420
0420
FFFC
ENDCHAR
STARTCHAR U_4E95
ENCODING 20117
SWIDTH 1000 0
DWIDTH 15 0
BBX 13 14 0 -1
BITMAP
0880
0880
0880
0880
7FF0
0880
0880
0880
FFF8
0880
0880
1080
2080
4080
ENDCHAR
STARTCHAR U_4E96
ENCODING 20118
SWIDTH 1000 0
DWIDTH 15 0
BBX 13 13 1 -1
BITMAP
0040
3FE0
0000
0010
FFF8
0000
0000
0000
3FE0
0000
0000
0010
FFF8
ENDCHAR
STARTCHAR U_4E97
ENCODING 20119
SWIDTH 1000 0
DWIDTH 15 0
BBX 13 13 0 -1
BITMAP
0200
0200
2220
2220
2220
3FE0
0000
0000
3FE0
0000
0000
0000
FFF8
ENDCHAR
STARTCHAR U_4E98
ENCODING 20120
SWIDTH 1000 0
DWIDTH 15 0
BBX 14 13 0 -1
BITMAP
7FF8
0000
0000
1FE0
1020
1020
1FE0
1020
1020
1FE0
0000
0000
FFFC
ENDCHAR
STARTCHAR U_4E99
ENCODING 20121
SWIDTH 1000 0
DWIDTH 15 0
BBX 13 13 0 -1
BITMAP
7FF8
0800
0800
0800
0FE0
0820
1420
1240
1040
2880
2480
0090
FFF8
ENDCHAR
STARTCHAR U_4E9A
ENCODING 20122
SWIDTH 1000 0
DWIDTH 15 0
BBX 14 12 0 0
BITMAP
7FF8
0480
0480
4490
2490
2490
14A0
14A0
14C0
0480
0480
FFFC
ENDCHAR
STARTCHAR U_4E9B
ENCODING 20123
SWIDTH 1000 0
DWIDTH 15 0
BBX 13 14 0 -1
BITMAP
0880
0880
4890
4EA0
48C0
4888
4888
5E78
E000
0000
1FE0
0000
0000
7FF8
ENDCHAR
STARTCHAR U_4E9C
ENCODING 20124
SWIDTH 1000 0
DWIDTH 15 0
BBX 12 13 1 -1
BITMAP
FFF0
0900
0900
7FE0
4920
4920
4920
7FE0
4920
0900
0900
0900
FFF0
ENDCHAR
STARTCHAR U_4E9D
ENCODING 20125
SWIDTH 1000 0
DWIDTH 15 0
BBX 14 14 0 -1
BITMAP
0200
0440
1FE0
0000
1020
2040
4888
FDFC
0404
0000
3FE0
0000
0000
FFFC
ENDCHAR
STARTCHAR U_4E9E
ENCODING 20126
SWIDTH 1000 0
DWIDTH 15 0
BBX 13 14 1 -1
BITMAP
0010
FFF8
0880
0880
0880
78F0
4010
4010
4010
78F0
0880
0880
0890
FFF8
ENDCHAR
STARTCHAR U_4E9F
ENCODING 20127
SWIDTH 1000 0
DWIDTH 15 0
BBX 14 14 0 -1
BITMAP
7FF0
0060
0080
0300
7AF8
4A88
4A50
4A20
7A20
0258
0288
0A00
0400
FFFC
ENDCHAR
STARTCHAR U_4EA0
ENCODING 20128
SWIDTH 1000 0
DWIDTH 15 0
BBX 13 5 0 8
BITMAP
0400
0200
0200
0000
FFF8
ENDCHAR
STARTCHAR U_4EA1
ENCODING 20129
SWIDTH 1000 0
DWIDTH 15 0
BBX 14 13 0 0
BITMAP
0400
0200
0200
FFFC
1000
1000
1000
1000
1000
1000
1000
1000
1FF8
ENDCHAR
STARTCHAR U_4EA2
ENCODING 20130
SWIDTH 1000 0
DWIDTH 15 0
BBX 13 14 0 -1
BITMAP
0400
0200
0200
FFF8
0000
0000
1F80
1080
1080
1080
1080
1088
2088
C078
ENDCHAR
STARTCHAR U_4EA3
ENCODING 20131
SWIDTH 1000 0
DWIDTH 15 0
BBX 14 14 0 -1
BITMAP
0400
0200
0208
FFFC
0840
0840
0840
0840
0840
1040
1040
2040
4040
8040
ENDCHAR
STARTCHAR U_4EA4
ENCODING 20132
SWIDTH 1000 0
DWIDTH 15 0
BBX 13 14 0 -1
BITMAP
0400
0200
FFF8
0000
0840
1030
2890
4880
0500
0500
0200
0500
18C0
6038
ENDCHAR
STARTCHAR U_4EA5
ENCODING 20133
SWIDTH 1000 0
DWIDTH 15 0
BBX 13 14 0 -1
BITMAP
0400
0200
0210
FFF8
0400
0880
1100
3E20
0440
0880
3100
02C0
0C30
7010
ENDCHAR
STARTCHAR U_4EA6
ENCODING 20134
SWIDTH 1000 0
DWIDTH 15 0
BBX 14 14 0 -1
BITMAP
0400
0200
0200
FFFC
0880
0880
28A0
6890
4888
8888
1080
1080
2280
4100
ENDCHAR
STARTCHAR U_4EA7
ENCODING 20135
SWIDTH 1000 0
DWIDTH 15 0
BBX 13 14 0 -1
BITMAP
0200
0100
7FF8
0840
0440
0480
3FF8
2000
2000
2000
2000
2000
4000
8000
ENDCHAR
STARTCHAR U_4EA8
ENCODING 20136
SWIDTH 1000 0
DWIDTH 15 0
BBX 13 14 0 -1
BITMAP
0400
0200
FFF8
0000
1FE0
1020
1FE0
0000
3FE0
0080
0300
0200
0A00
0400
ENDCHAR
STARTCHAR U_4EA9
ENCODING 20137
SWIDTH 1000 0
DWIDTH 15 0
BBX 13 14 0 -1
BITMAP
0400
0200
0200
FFF8
0000
3FE0
2220
2220
3FE0
2220
2220
2220
3FE0
2020
ENDCHAR
STARTCHAR U_4EAA
ENCODING 20138
SWIDTH 1000 0
DWIDTH 15 0
BBX 14 14 0 -1
BITMAP
0400
0208
FFFC
0840
4850
8848
1148
6080
0000
7FE0
0020
0020
0010
000C
ENDCHAR
STARTCHAR U_4EAB
ENCODING 20139
SWIDTH 1000 0
DWIDTH 15 0
BBX 14 14 0 -1
BITMAP
0100
7FFC
0000
1FE0
1020
1FE0
0000
3FE0
0080
0100
FFFC
0100
0500
0200
ENDCHAR
STARTCHAR U_4EAC
ENCODING 20140
SWIDTH 1000 0
DWIDTH 15 0
BBX 13 14 0 -1
BITMAP
0400
0200
FFF8
0000
3FE0
2020
2020
3FE0
2220
0200
1240
2220
CA18
0400
ENDCHAR
STARTCHAR U_4EAD
ENCODING 20141
SWIDTH 1000 0
DWIDTH 15 0
BBX 13 14 0 -1
BITMAP
0200
FFF8
0000
1FC0
1040
1FC0
0000
7FF8
4010
BFE0
0200
0200
0A00
0400
ENDCHAR
STARTCHAR U_4EAE
ENCODING 20142
SWIDTH 1000 0
DWIDTH 15 0
BBX 13 14 0 -1
BITMAP
0400
0200
FFF8
0000
1FC0
1040
1FC0
0000
7FF8
8010
0F80
0888
1088
E078
ENDCHAR
STARTCHAR U_4EAF
ENCODING 20143
SWIDTH 1000 0
DWIDTH 15 0
BBX 14 14 0 -1
BITMAP
0400
0208
FFFC
0000
1FE0
1020
1FE0
0000
3FF0
2010
3FF0
2010
2010
3FF0
ENDCHAR
STARTCHAR U_4EB0
ENCODING 20144
SWIDTH 1000 0
DWIDTH 15 0
BBX 13 14 1 -1
BITMAP
0400
0200
FFF8
0000
3FE0
2020
3FE0
2020
3FE0
0200
1280
2240
4A30
8410
ENDCHAR
STARTCHAR U_4EB1
ENCODING 20145
SWIDTH 1000 0
DWIDTH 15 0
BBX 14 14 0 -1
BITMAP
0200
0100
FFFC
0000
0BF8
0A08
1208
33F8
5208
9208
13F8
1208
1000
17FC
ENDCHAR
STARTCHAR U_4EB2
ENCODING 20146
SWIDTH 1000 0
DWIDTH 15 0
BBX 13 14 0 -1
BITMAP
0400
0200
7FF0
0000
0880
0500
FFF8
0200
3FF0
0200
1240
2230
CA10
0400
ENDCHAR
STARTCHAR U_4EB3
ENCODING 20147
SWIDTH 1000 0
DWIDTH 15 0
BBX 14 14 0 -1
BITMAP
0200
FFFC
0000
1FC0
1040
1FC0
0000
7FF8
8050
7F80
0400
FFE8
0408
03F8
ENDCHAR
STARTCHAR U_4EB4
ENCODING 20148
SWIDTH 1000 0
DWIDTH 15 0
BBX 14 14 0 -1
BITMAP
0200
FFFC
1020
1FE0
0000
7FFC
4104
9FF0
0100
3FF8
0200
1F84
0484
787C
ENDCHAR
STARTCHAR U_4EB5
ENCODING 20149
SWIDTH 1000 0
DWIDTH 15 0
BBX 13 14 0 -1
BITMAP
0400
0210
FFF8
2080
FFE0
22A0
F9A8
2258
E508
2920
3140
D080
1E60
3018
ENDCHAR
STARTCHAR U_4EB6
ENCODING 20150
SWIDTH 1000 0
DWIDTH 15 0
BBX 14 14 0 -1
BITMAP
0200
FFFC
0000
3FF0
2010
2790
2490
3FF0
0000
1FE0
1020
1FE0
1020
FFFC
ENDCHAR
STARTCHAR U_4EB7
ENCODING 20151
SWIDTH 1000 0
DWIDTH 15 0
BBX 13 14 1 -1
BITMAP
0200
FFF8
0820
0440
7FF8
4480
5FF0
4490
7FF8
4480
5FF0
44C0
8CA0
B498
ENDCHAR
STARTCHAR U_4EB8
ENCODING 20152
SWIDTH 1000 0
DWIDTH 15 0
BBX 14 14 0 -1
BITMAP
1084
FE44
0048
7DFC
4524
7D24
01FC
FD24
0924
11FC
3C20
D3FC
1020
3020
ENDCHAR
STARTCHAR U_4EB9
ENCODING 20153
SWIDTH 1000 0
DWIDTH 15 0
BBX 13 14 1 -1
BITMAP
0200
FFF8
0000
6FB0
4A90
68B0
4E90
6AB0
4E90
FFF8
A028
3FE0
2020
FFF8
ENDCHAR
STARTCHAR U_4EBA
ENCODING 20154
SWIDTH 1000 0
DWIDTH 15 0
BBX 12 14 1 -1
BITMAP
0400
0400
0400
0400
0400
0400
0400
0A00
0A00
1100
1100
2080
4040
8030
ENDCHAR
STARTCHAR U_4EBB
ENCODING 20155
SWIDTH 1000 0
DWIDTH 15 0
BBX 5 14 0 -1
BITMAP
08
08
10
10
30
50
90
10
10
10
10
10
10
10
ENDCHAR
STARTCHAR U_4EBC
ENCODING 20156
SWIDTH 1000 0
DWIDTH 15 0
BBX 13 13 1 0
BITMAP
0200
0200
0200
0500
0500
0880
0880
1040
2038
4010
0000
0008
FFF8
ENDCHAR
STARTCHAR U_4EBD
ENCODING 20157
SWIDTH 1000 0
DWIDTH 15 0
BBX 14 13 0 0
BITMAP
0200
0200
0500
0500
0880
1040
2020
4010
880C
0408
0200
0180
0080
ENDCHAR
STARTCHAR U_4EBE
ENCODING 20158
SWIDTH 1000 0
DWIDTH 15 0
BBX 14 14 0 -1
BITMAP
0100
8100
8100
8100
8100
8100
8280
8280
8440
8440
8820
9018
8000
FFFC
ENDCHAR
STARTCHAR U_4EBF
ENCODING 20159
SWIDTH 1000 0
DWIDTH 15 0
BBX 14 14 0 -1
BITMAP
0800
0800
0BF8
1010
1020
3040
5080
9080
1100
1100
1204
1204
1204
11FC
ENDCHAR
STARTCHAR U_4EC0
ENCODING 20160
SWIDTH 1000 0
DWIDTH 15 0
BBX 14 14 0 -1
BITMAP
0840
0840
0840
1040
1040
37FC
5040
9040
1040
1040
1040
1040
1040
1040
ENDCHAR
STARTCHAR U_4EC1
ENCODING 20161
SWIDTH 1000 0
DWIDTH 15 0
BBX 14 14 0 -1
BITMAP
0800
0800
0800
13F8
1000
3000
5000
9000
1000
1000
1000
1000
17FC
1000
ENDCHAR
STARTCHAR U_4EC2
ENCODING 20162
SWIDTH 1000 0
DWIDTH 15 0
BBX 13 14 0 -1
BITMAP
0880
0880
0880
1080
17F8
3088
5088
9088
1088
1088
1108
1108
1228
1410
ENDCHAR
STARTCHAR U_4EC3
ENCODING 20163
SWIDTH 1000 0
DWIDTH 15 0
BBX 14 14 0 -1
BITMAP
0800
0800
0BFC
1020
1020
3020
5020
9020
1020
1020
1020
1020
10A0
1040
ENDCHAR
STARTCHAR U_4EC4
ENCODING 20164
SWIDTH 1000 0
DWIDTH 15 0
BBX 14 14 0 -1
BITMAP
3FFC
2100
2100
2100
2100
2100
2100
2100
2280
2240
2240
4420
481C
9008
ENDCHAR
STARTCHAR U_4EC5
ENCODING 20165
SWIDTH 1000 0
DWIDTH 15 0
BBX 14 14 0 -1
BITMAP
0800
0800
0BF0
1210
1210
3220
5120
9140
1140
1080
1140
1220
141C
1808
ENDCHAR
STARTCHAR U_4EC6
ENCODING 20166
SWIDTH 1000 0
DWIDTH 15 0
BBX 13 14 0 -1
BITMAP
0480
0480
0880
0880
1080
10C0
30A0
5098
9088
1080
1080
1080
1080
1080
ENDCHAR
STARTCHAR U_4EC7
ENCODING 20167
SWIDTH 1000 0
DWIDTH 15 0
BBX 14 14 0 -1
BITMAP
0900
0900
0900
1100
17E0
3120
5120
9120
1120
1120
1224
1224
1424
181C
ENDCHAR
STARTCHAR U_4EC8
ENCODING 20168
SWIDTH 1000 0
DWIDTH 15 0
BBX 14 14 0 -1
BITMAP
0800
0820
1120
2120
3120
5120
9120
1120
1110
1210
1210
1408
1408
1804
ENDCHAR
STARTCHAR U_4EC9
ENCODING 20169
SWIDTH 1000 0
DWIDTH 15 0
BBX 14 14 0 -1
BITMAP
0800
09E0
0920
1120
1120
3120
5120
9120
1120
1120
1224
1224
1424
181C
ENDCHAR
STARTCHAR U_4ECA
ENCODING 20170
SWIDTH 1000 0
DWIDTH 15 0
BBX 13 14 0 -1
BITMAP
0200
0200
0500
0880
1440
2320
C118
0040
3FE0
0040
0080
0080
0100
0100
ENDCHAR
STARTCHAR U_4ECB
ENCODING 20171
SWIDTH 1000 0
DWIDTH 15 0
BBX 13 14 0 -1
BITMAP
0200
0200
0500
0880
1040
2020
4898
8880
0880
0880
0880
1080
1080
2080
ENDCHAR
STARTCHAR U_4ECC
ENCODING 20172
SWIDTH 1000 0
DWIDTH 15 0
BBX 10 14 2 -1
BITMAP
0400
0400
0400
0A00
0900
1080
2440
4440
8400
0A00
0900
1080
2040
C040
ENDCHAR
STARTCHAR U_4ECD
ENCODING 20173
SWIDTH 1000 0
DWIDTH 15 0
BBX 14 14 0 -1
BITMAP
0800
0FF0
0910
1110
1110
3120
513C
9104
1104
1104
1204
1204
1428
1410
ENDCHAR
STARTCHAR U_4ECE
ENCODING 20174
SWIDTH 1000 0
DWIDTH 15 0
BBX 13 14 1 -1
BITMAP
1080
1080
1080
1080
1080
1080
1080
2880
2480
2540
4540
4220
8410
0808
ENDCHAR
STARTCHAR U_4ECF
ENCODING 20175
SWIDTH 1000 0
DWIDTH 15 0
BBX 14 14 0 -1
BITMAP
0800
0840
0840
1040
1080
3080
5080
9100
1120
1110
1208
1208
17FC
1204
ENDCHAR
STARTCHAR U_4ED0
ENCODING 20176
SWIDTH 1000 0
DWIDTH 15 0
BBX 14 14 0 -1
BITMAP
0200
0200
0500
0880
1040
2220
C21C
0208
0200
7FF8
0200
0200
0200
0200
ENDCHAR
STARTCHAR U_4ED1
ENCODING 20177
SWIDTH 1000 0
DWIDTH 15 0
BBX 14 14 0 -1
BITMAP
0200
0200
0500
0880
3060
C01C
1000
1080
13C0
1C00
1020
1020
1020
0FE0
ENDCHAR
STARTCHAR U_4ED2
ENCODING 20178
SWIDTH 1000 0
DWIDTH 15 0
BBX 14 14 0 -1
BITMAP
0200
0200
0500
0480
0840
1020
2610
C18C
0080
0000
0C00
0300
00C0
0040
ENDCHAR
STARTCHAR U_4ED3
ENCODING 20179
SWIDTH 1000 0
DWIDTH 15 0
BBX 13 14 0 -1
BITMAP
0200
0200
0500
0880
1040
2038
DF90
1080
1080
1480
1300
1020
1020
0FE0
ENDCHAR
STARTCHAR U_4ED4
ENCODING 20180
SWIDTH 1000 0
DWIDTH 15 0
BBX 14 14 0 -1
BITMAP
0800
0BF8
0808
1010
1060
3040
5040
97FC
1040
1040
1040
1040
1140
1080
ENDCHAR
STARTCHAR U_4ED5
ENCODING 20181
SWIDTH 1000 0
DWIDTH 15 0
BBX 14 14 0 -1
BITMAP
0840
0840
0840
1040
1040
37FC
5040
9040
1040
1040
1040
1040
13F8
1000
ENDCHAR
STARTCHAR U_4ED6
ENCODING 20182
SWIDTH 1000 0
DWIDTH 15 0
BBX 14 14 0 -1
BITMAP
0840
0840
0840
1248
127C
33C8
5E48
9248
1248
1250
1244
1204
1204
11FC
ENDCHAR
STARTCHAR U_4ED7
ENCODING 20183
SWIDTH 1000 0
DWIDTH 15 0
BBX 14 14 0 -1
BITMAP
0820
0820
0820
1020
17FC
3020
5220
9220
1140
1140
1080
1140
1230
140C
ENDCHAR
STARTCHAR U_4ED8
ENCODING 20184
SWIDTH 1000 0
DWIDTH 15 0
BBX 14 14 0 -1
BITMAP
0420
0420
0820
1020
37FC
5020
9020
1220
1120
1120
1020
1020
10A0
1040
ENDCHAR
STARTCHAR U_4ED9
ENCODING 20185
SWIDTH 1000 0
DWIDTH 15 0
BBX 13 14 0 -1
BITMAP
0800
0840
0840
1040
1248
3248
5248
9248
1248
1248
1248
1248
13F8
1208
ENDCHAR
STARTCHAR U_4EDA
ENCODING 20186
SWIDTH 1000 0
DWIDTH 15 0
BBX 14 14 0 -1
BITMAP
0200
0200
0500
0880
1040
2230
C20C
0200
2220
2220
2220
2220
3FE0
2020
ENDCHAR
STARTCHAR U_4EDB
ENCODING 20187
SWIDTH 1000 0
DWIDTH 15 0
BBX 14 14 0 -1
BITMAP
0808
081C
0BE0
1040
1040
3040
D07C
17C0
1040
1040
1040
1040
1044
103C
ENDCHAR
STARTCHAR U_4EDC
ENCODING 20188
SWIDTH 1000 0
DWIDTH 15 0
BBX 14 14 0 -1
BITMAP
0800
0800
13F8
1040
3040
5040
9040
1040
1040
1040
1040
1040
17FC
1000
ENDCHAR
STARTCHAR U_4EDD
ENCODING 20189
SWIDTH 1000 0
DWIDTH 15 0
BBX 14 14 0 -1
BITMAP
0200
0200
0500
0880
1040
2020
C01C
3FE8
0200
0200
0200
0200
0200
FFF8
ENDCHAR
STARTCHAR U_4EDE
ENCODING 20190
SWIDTH 1000 0
DWIDTH 15 0
BBX 14 14 0 -1
BITMAP
0800
0804
0BFC
1044
1044
3244
5244
9244
1444
1084
1084
1104
1214
1408
ENDCHAR
STARTCHAR U_4EDF
ENCODING 20191
SWIDTH 1000 0
DWIDTH 15 0
BBX 14 14 0 -1
BITMAP
0810
0838
0BC0
1040
1040
3040
57FC
9040
1040
1040
1040
1040
1040
1040
ENDCHAR
STARTCHAR U_4EE0
ENCODING 20192
SWIDTH 1000 0
DWIDTH 15 0
BBX 13 14 0 -1
BITMAP
1000
1020
17F0
2080
2080
6090
AFF8
2080
2080
2080
2080
2080
2080
2080
ENDCHAR
STARTCHAR U_4EE1
ENCODING 20193
SWIDTH 1000 0
DWIDTH 15 0
BBX 14 14 0 -1
BITMAP
0900
0900
0908
11FC
1200
3400
53E0
9040
1080
1100
1104
1204
1204
11FC
ENDCHAR
STARTCHAR U_4EE2
ENCODING 20194
SWIDTH 1000 0
DWIDTH 15 0
BBX 14 13 0 -1
BITMAP
1200
1208
23FC
2408
6808
A208
2108
2088
2088
2008
2008
2050
2020
ENDCHAR
STARTCHAR U_4EE3
ENCODING 20195
SWIDTH 1000 0
DWIDTH 15 0
BBX 14 14 0 -1
BITMAP
0880
0890
0888
1080
10FC
3780
5080
9080
1080
1040
1040
1024
1014
100C
ENDCHAR
STARTCHAR U_4EE4
ENCODING 20196
SWIDTH 1000 0
DWIDTH 15 0
BBX 13 14 0 -1
BITMAP
0200
0200
0500
0880
1440
2320
C118
0040
3FE0
0080
0900
0600
0100
0100
ENDCHAR
STARTCHAR U_4EE5
ENCODING 20197
SWIDTH 1000 0
DWIDTH 15 0
BBX 13 14 0 -1
BITMAP
0040
4040
4840
4440
4240
4240
4040
4040
4040
4640
58A0
E110
4618
1808
ENDCHAR
STARTCHAR U_4EE6
ENCODING 20198
SWIDTH 1000 0
DWIDTH 15 0
BBX 14 14 0 -1
BITMAP
0840
0860
0840
1040
1150
3148
D148
1244
1244
1444
1040
1040
1140
1080
ENDCHAR
STARTCHAR U_4EE7
ENCODING 20199
SWIDTH 1000 0
DWIDTH 15 0
BBX 14 14 0 -1
BITMAP
0200
0200
03E0
0200
0208
FFFC
0200
0200
0300
0480
0440
0820
3010
C00C
ENDCHAR
STARTCHAR U_4EE8
ENCODING 20200
SWIDTH 1000 0
DWIDTH 15 0
BBX 14 14 0 -1
BITMAP
0800
0800
0BF8
1000
1000
3000
5000
91F0
1000
1000
1000
1000
17FC
1000
ENDCHAR
STARTCHAR U_4EE9
ENCODING 20201
SWIDTH 1000 0
DWIDTH 15 0
BBX 14 14 0 -1
BITMAP
0800
0840
1040
1040
3040
5078
9040
1040
1040
1040
1040
1040
17FC
1000
ENDCHAR
STARTCHAR U_4EEA
ENCODING 20202
SWIDTH 1000 0
DWIDTH 15 0
BBX 14 14 0 -1
BITMAP
0900
0880
0850
1250
1210
3210
5110
9120
10A0
1040
1040
10A0
1110
160C
ENDCHAR
STARTCHAR U_4EEB
ENCODING 20203
SWIDTH 1000 0
DWIDTH 15 0
BBX 14 14 0 -1
BITMAP
0800
0840
0840
1080
1080
3120
5230
9440
1040
1080
1110
1208
17FC
1204
ENDCHAR
STARTCHAR U_4EEC
ENCODING 20204
SWIDTH 1000 0
DWIDTH 15 0
BBX 13 14 0 -1
BITMAP
1200
1100
1178
2408
2408
6408
A408
2408
2408
2408
2408
2408
2428
2410
ENDCHAR
STARTCHAR U_4EED
ENCODING 20205
SWIDTH 1000 0
DWIDTH 15 0
BBX 14 14 0 -1
BITMAP
0800
0808
13FC
2088
2488
6488
A288
2188
2088
2168
211C
2208
2250
2420
ENDCHAR
STARTCHAR U_4EEE
ENCODING 20206
SWIDTH 1000 0
DWIDTH 15 0
BBX 14 14 0 -1
BITMAP
0808
081C
13E0
1200
3208
53FC
9288
1288
1290
1250
1250
1420
1450
198C
ENDCHAR
STARTCHAR U_4EEF
ENCODING 20207
SWIDTH 1000 0
DWIDTH 15 0
BBX 14 14 0 -1
BITMAP
0840
0840
0840
1150
1148
3144
5244
9240
1448
1048
1010
1020
10C0
1700
ENDCHAR
STARTCHAR U_4EF0
ENCODING 20208
SWIDTH 1000 0
DWIDTH 15 0
BBX 14 14 0 -1
BITMAP
0800
0880
0B3C
1224
1224
3224
5224
9224
1224
12A4
1334
1228
1020
1020
ENDCHAR
STARTCHAR U_4EF1
ENCODING 20209
SWIDTH 1000 0
DWIDTH 15 0
BBX 14 14 0 -1
BITMAP
0840
0840
08A0
10A0
1110
3208
5484
9840
13F8
1010
1010
1020
1020
1040
ENDCHAR
STARTCHAR U_4EF2
ENCODING 20210
SWIDTH 1000 0
DWIDTH 15 0
BBX 13 14 0 -1
BITMAP
0840
0840
0840
1040
13F8
3248
5248
9248
13F8
1248
1040
1040
1040
1040
ENDCHAR
STARTCHAR U_4EF3
ENCODING 20211
SWIDTH 1000 0
DWIDTH 15 0
BBX 14 14 0 -1
BITMAP
0800
0A20
0A20
1220
1224
33E8
5230
9220
1220
1220
1264
12A4
1324
121C
ENDCHAR
STARTCHAR U_4EF4
ENCODING 20212
SWIDTH 1000 0
DWIDTH 15 0
BBX 14 14 0 -1
BITMAP
0808
09FC
0908
1108
11F8
3108
5108
9108
11F8
1108
1208
1208
1428
1810
ENDCHAR
STARTCHAR U_4EF5
ENCODING 20213
SWIDTH 1000 0
DWIDTH 15 0
BBX 14 14 0 -1
BITMAP
0900
0900
09F8
1240
1240
3440
5048
97FC
1040
1040
1040
1040
1040
1040
ENDCHAR
STARTCHAR U_4EF6
ENCODING 20214
SWIDTH 1000 0
DWIDTH 15 0
BBX 14 14 0 -1
BITMAP
0840
0840
1240
1240
23F8
6440
A840
2040
2FFC
2040
2040
2040
2040
2040
ENDCHAR
STARTCHAR U_4EF7
ENCODING 20215
SWIDTH 1000 0
DWIDTH 15 0
BBX 14 14 0 -1
BITMAP
0840
0840
08A0
1110
1208
3404
5110
9110
1110
1110
1110
1110
1210
1410
ENDCHAR
STARTCHAR U_4EF8
ENCODING 20216
SWIDTH 1000 0
DWIDTH 15 0
BBX 14 14 0 -1
BITMAP
0810
0838
0BC0
1040
1040
1048
37FC
50A0
90A0
1120
1110
1210
1408
1804
ENDCHAR
STARTCHAR U_4EF9
ENCODING 20217
SWIDTH 1000 0
DWIDTH 15 0
BBX 14 14 0 -1
BITMAP
0840
0840
0848
17FC
1040
1040
33F8
5040
9048
17FC
1040
1040
1040
1040
ENDCHAR
STARTCHAR U_4EFA
ENCODING 20218
SWIDTH 1000 0
DWIDTH 15 0
BBX 14 14 0 -1
BITMAP
0200
0200
0500
0480
0840
1030
600C
9FF0
1000
1000
1FC0
1000
1010
1FF8
ENDCHAR
STARTCHAR U_4EFB
ENCODING 20219
SWIDTH 1000 0
DWIDTH 15 0
BBX 14 14 0 -1
BITMAP
0810
0838
0BC0
1040
1040
3040
5040
97FC
1040
1040
1040
1040
1040
13F8
ENDCHAR
STARTCHAR U_4EFC
ENCODING 20220
SWIDTH 1000 0
DWIDTH 15 0
BBX 14 14 0 -1
BITMAP
0800
0808
0BFC
1040
1040
3040
5050
93F8
1040
1040
1040
1040
1048
17FC
ENDCHAR
STARTCHAR U_4EFD
ENCODING 20221
SWIDTH 1000 0
DWIDTH 15 0
BBX 14 14 0 -1
BITMAP
0820
0920
0920
1110
1210
3208
53F4
9490
1090
1090
1110
1110
1250
1420
ENDCHAR
STARTCHAR U_4EFE
ENCODING 20222
SWIDTH 1000 0
DWIDTH 15 0
BBX 14 14 0 -1
BITMAP
1008
17FC
1100
2100
2200
63F8
A208
2208
2208
27F8
2210
2020
2020
2FFC
ENDCHAR
STARTCHAR U_4EFF
ENCODING 20223
SWIDTH 1000 0
DWIDTH 15 0
BBX 14 14 0 -1
BITMAP
0800
0880
0840
1040
17FC
3080
5080
90F8
1088
1108
1108
1208
1208
1430
ENDCHAR
STARTCHAR U_4F00
ENCODING 20224
SWIDTH 1000 0
DWIDTH 15 0
BBX 14 14 0 -1
BITMAP
0840
0940
0920
1220
1210
348C
5888
9080
1100
1110
1208
1208
17FC
1204
ENDCHAR
STARTCHAR U_4F01
ENCODING 20225
SWIDTH 1000 0
DWIDTH 15 0
BBX 13 14 0 -1
BITMAP
0200
0200
0500
0880
1040
2220
C218
1200
13E0
1200
1200
1200
1200
FFF8
ENDCHAR
STARTCHAR U_4F02
ENCODING 20226
SWIDTH 1000 0
DWIDTH 15 0
BBX 14 14 0 -1
BITMAP
0840
0840
0848
17FC
1040
3040
53F8
9248
1248
1248
1248
1268
1050
1040
ENDCHAR
STARTCHAR U_4F03
ENCODING 20227
SWIDTH 1000 0
DWIDTH 15 0
BBX 14 14 0 -1
BITMAP
0810
0BF8
0810
1120
10C0
3040
57FC
9048
1050
1040
1040
1040
1140
1080
ENDCHAR
STARTCHAR U_4F04
ENCODING 20228
SWIDTH 1000 0
DWIDTH 15 0
BBX 14 14 0 -1
BITMAP
0800
0BF8
0848
1048
1048
33F8
5240
9440
17FC
1044
1044
1068
1050
1040
ENDCHAR
STARTCHAR U_4F05
ENCODING 20229
SWIDTH 1000 0
DWIDTH 15 0
BBX 14 14 0 -1
BITMAP
0840
0840
0848
17FC
1040
3040
5248
9248
1248
13F8
1040
1044
1044
103C
ENDCHAR
STARTCHAR U_4F06
ENCODING 20230
SWIDTH 1000 0
DWIDTH 15 0
BBX 14 14 0 -1
BITMAP
0900
0900
0A08
13FC
34A8
54A8
9948
1148
1248
1288
1488
1110
1250
1020
ENDCHAR
STARTCHAR U_4F07
ENCODING 20231
SWIDTH 1000 0
DWIDTH 15 0
BBX 14 14 0 -1
BITMAP
0800
09F0
0910
1110
121C
3400
5BF0
9110
1110
10A0
1040
10A0
1110
160C
ENDCHAR
STARTCHAR U_4F08
ENCODING 20232
SWIDTH 1000 0
DWIDTH 15 0
BBX 14 14 0 -1
BITMAP
0880
0840
0820
1020
1100
3110
5508
950C
1904
1100
1108
1108
110C
10F8
ENDCHAR
STARTCHAR U_4F09
ENCODING 20233
SWIDTH 1000 0
DWIDTH 15 0
BBX 14 14 0 -1
BITMAP
1080
1040
1048
2FFC
2000
61E0
A120
2120
2120
2120
2124
2224
2224
2C1C
ENDCHAR
STARTCHAR U_4F0A
ENCODING 20234
SWIDTH 1000 0
DWIDTH 15 0
BBX 14 14 0 -1
BITMAP
1000
17F0
1110
2110
2FFC
6110
A110
27F0
2100
2100
2200
2200
2400
2800
ENDCHAR
STARTCHAR U_4F0B
ENCODING 20235
SWIDTH 1000 0
DWIDTH 15 0
BBX 14 14 0 -1
BITMAP
0810
0FF8
0A10
1210
1220
3338
5308
9290
1290
1250
1420
1450
188C
1308
ENDCHAR
STARTCHAR U_4F0C
ENCODING 20236
SWIDTH 1000 0
DWIDTH 15 0
BBX 14 14 0 -1
BITMAP
0808
0BFC
0A00
12F8
1288
3288
5288
92A8
1290
1280
1284
1484
1484
187C
ENDCHAR
STARTCHAR U_4F0D
ENCODING 20237
SWIDTH 1000 0
DWIDTH 15 0
BBX 14 14 0 -1
BITMAP
1008
17FC
1080
2080
2080
6090
A7F8
2110
2110
2110
2110
2110
2FFC
2000
ENDCHAR
STARTCHAR U_4F0E
ENCODING 20238
SWIDTH 1000 0
DWIDTH 15 0
BBX 14 14 0 -1
BITMAP
1040
1040
1040
27FC
2040
6040
A3F8
2208
2110
20A0
2040
20A0
2110
260C
ENDCHAR
STARTCHAR U_4F0F
ENCODING 20239
SWIDTH 1000 0
DWIDTH 15 0
BBX 14 14 0 -1
BITMAP
1080
10A0
1098
2088
2080
67FC
A080
2080
2140
2140
2120
2220
2410
280C
ENDCHAR
STARTCHAR U_4F10
ENCODING 20240
SWIDTH 1000 0
DWIDTH 15 0
BBX 14 14 0 -1
BITMAP
10A0
1098
1088
2080
209C
6FE0
A088
2088
2090
2060
2040
20A4
2114
260C
ENDCHAR
STARTCHAR U_4F11
ENCODING 20241
SWIDTH 1000 0
DWIDTH 15 0
BBX 14 14 0 -1
BITMAP
0840
0840
0840
1040
17FC
30C0
50E0
9160
1150
1250
1248
1444
1040
1040
ENDCHAR
STARTCHAR U_4F12
ENCODING 20242
SWIDTH 1000 0
DWIDTH 15 0
BBX 14 14 0 -1
BITMAP
080C
09F0
0900
1100
1100
31FC
5110
9110
1110
1110
1110
1210
1210
1410
ENDCHAR
STARTCHAR U_4F13
ENCODING 20243
SWIDTH 1000 0
DWIDTH 15 0
BBX 14 14 0 -1
BITMAP
0808
0BFC
0820
1020
1040
30D0
50C8
9148
1244
1444
1040
1040
1040
1040
ENDCHAR
STARTCHAR U_4F14
ENCODING 20244
SWIDTH 1000 0
DWIDTH 15 0
BBX 14 14 0 -1
BITMAP
0800
0BFC
0A04
1408
1000
31E0
5120
9120
1120
1120
1224
1224
1424
181C
ENDCHAR
STARTCHAR U_4F15
ENCODING 20245
SWIDTH 1000 0
DWIDTH 15 0
BBX 14 14 0 -1
BITMAP
0880
0880
0890
17F8
1080
3080
5088
9FFC
1140
1140
1220
1220
141C
1808
ENDCHAR
STARTCHAR U_4F16
ENCODING 20246
SWIDTH 1000 0
DWIDTH 15 0
BBX 14 14 0 -1
BITMAP
0880
0880
0880
17FC
1100
3100
51F8
9288
1288
1250
1250
1420
1450
1B8C
ENDCHAR
STARTCHAR U_4F17
ENCODING 20247
SWIDTH 1000 0
DWIDTH 15 0
BBX 13 14 0 -1
BITMAP
0200
0200
0500
0880
1060
2098
D080
1080
1080
1080
2940
2520
4210
8418
ENDCHAR
STARTCHAR U_4F18
ENCODING 20248
SWIDTH 1000 0
DWIDTH 15 0
BBX 14 14 0 -1
BITMAP
1120
1118
2108
2100
2FFC
6100
A140
2140
2140
2240
2244
2444
2444
283C
ENDCHAR
STARTCHAR U_4F19
ENCODING 20249
SWIDTH 1000 0
DWIDTH 15 0
BBX 14 14 0 -1
BITMAP
1080
1080
2080
2088
2288
6290
A4A0
2880
2140
2140
2220
2220
241C
2808
ENDCHAR
STARTCHAR U_4F1A
ENCODING 20250
SWIDTH 1000 0
DWIDTH 15 0
BBX 13 14 0 -1
BITMAP
0200
0200
0500
0880
1040
2FB8
C010
0000
7FF0
0400
0880
1040
3FA0
1020
ENDCHAR
STARTCHAR U_4F1B
ENCODING 20251
SWIDTH 1000 0
DWIDTH 15 0
BBX 14 14 0 -1
BITMAP
1008
17FC
2400
2408
2508
6490
A460
2420
2450
2488
2508
2400
2408
27FC
ENDCHAR
STARTCHAR U_4F1C
ENCODING 20252
SWIDTH 1000 0
DWIDTH 15 0
BBX 14 14 0 -1
BITMAP
0900
0900
0FE0
1120
1120
3224
5424
989C
1080
1080
1FFC
1080
1080
1080
ENDCHAR
STARTCHAR U_4F1D
ENCODING 20253
SWIDTH 1000 0
DWIDTH 15 0
BBX 14 14 0 -1
BITMAP
0800
0810
0BF8
1000
1000
3008
57FC
9080
1080
1110
1108
1208
17FC
1204
ENDCHAR
STARTCHAR U_4F1E
ENCODING 20254
SWIDTH 1000 0
DWIDTH 15 0
BBX 13 14 0 -1
BITMAP
0200
0200
0500
0880
3260
C218
1260
0A40
0A80
FFF8
0200
0200
0200
0200
ENDCHAR
STARTCHAR U_4F1F
ENCODING 20255
SWIDTH 1000 0
DWIDTH 15 0
BBX 13 14 0 -1
BITMAP
1080
1080
2FF8
2080
2080
67F0
A080
2080
2FF8
2088
2088
20A8
2090
2080
ENDCHAR
STARTCHAR U_4F20
ENCODING 20256
SWIDTH 1000 0
DWIDTH 15 0
BBX 14 14 0 -1
BITMAP
1080
1080
2FF0
2100
2100
7FFC
A200
2200
27F0
2020
2240
2180
2040
2040
ENDCHAR
STARTCHAR U_4F21
ENCODING 20257
SWIDTH 1000 0
DWIDTH 15 0
BBX 14 14 0 -1
BITMAP
0840
0840
0880
17FC
1100
3140
5240
93F8
1040
1040
17FC
1040
1040
1040
ENDCHAR
STARTCHAR U_4F22
ENCODING 20258
SWIDTH 1000 0
DWIDTH 15 0
BBX 13 14 0 -1
BITMAP
1010
17F8
2240
2240
2240
6450
A7F8
20C0
2140
2240
2440
2840
2140
2080
ENDCHAR
STARTCHAR U_4F23
ENCODING 20259
SWIDTH 1000 0
DWIDTH 15 0
BBX 14 14 0 -1
BITMAP
0800
0BF8
0A08
1248
1248
3248
5248
9248
10A0
10A4
1124
1124
1224
141C
ENDCHAR
STARTCHAR U_4F24
ENCODING 20260
SWIDTH 1000 0
DWIDTH 15 0
BBX 13 14 0 -1
BITMAP
1200
1210
23F8
2400
2880
6090
A7F8
2090
2090
2090
2110
2110
2250
2420
ENDCHAR
STARTCHAR U_4F25
ENCODING 20261
SWIDTH 1000 0
DWIDTH 15 0
BBX 14 14 0 -1
BITMAP
1200
1210
2220
2240
2380
6200
AFFC
2240
2240
2220
2220
2210
238C
2208
ENDCHAR
STARTCHAR U_4F26
ENCODING 20262
SWIDTH 1000 0
DWIDTH 15 0
BBX 14 14 0 -1
BITMAP
0880
0880
0880
1140
1220
3410
510C
9100
1130
11C0
1100
1108
1108
10F8
ENDCHAR
STARTCHAR U_4F27
ENCODING 20263
SWIDTH 1000 0
DWIDTH 15 0
BBX 13 14 0 -1
BITMAP
1080
1080
2180
2240
2420
6810
A7E8
2420
2420
2420
24C0
2408
2408
23F8
ENDCHAR
STARTCHAR U_4F28
ENCODING 20264
SWIDTH 1000 0
DWIDTH 15 0
BBX 14 14 0 -1
BITMAP
0900
0900
0908
13FC
1208
3508
58C8
9048
1008
1068
1188
1608
1090
1060
ENDCHAR
STARTCHAR U_4F29
ENCODING 20265
SWIDTH 1000 0
DWIDTH 15 0
BBX 14 14 0 -1
BITMAP
0880
0840
0840
1008
17FC
3210
5210
9110
1120
10A0
1040
10A0
1310
1C0C
ENDCHAR
STARTCHAR U_4F2A
ENCODING 20266
SWIDTH 1000 0
DWIDTH 15 0
BBX 13 14 0 -1
BITMAP
1080
1480
2280
2280
2080
6FF8
A088
2088
2148
2128
2128
2208
2428
2810
ENDCHAR
STARTCHAR U_4F2B
ENCODING 20267
SWIDTH 1000 0
DWIDTH 15 0
BBX 14 14 0 -1
BITMAP
1080
1040
2040
27FC
2404
6808
A000
2000
2000
2000
2008
27FC
2000
2000
ENDCHAR
STARTCHAR U_4F2C
ENCODING 20268
SWIDTH 1000 0
DWIDTH 15 0
BBX 14 14 0 -1
BITMAP
0808
0BFC
1208
1208
2208
23F8
6280
A280
2240
2240
2220
2410
240C
2808
ENDCHAR
STARTCHAR U_4F2D
ENCODING 20269
SWIDTH 1000 0
DWIDTH 15 0
BBX 14 14 0 -1
BITMAP
0880
0840
0848
17FC
1080
3100
5210
97E0
1040
1080
1110
1208
17FC
1408
ENDCHAR
STARTCHAR U_4F2E
ENCODING 20270
SWIDTH 1000 0
DWIDTH 15 0
BBX 14 14 0 -1
BITMAP
1400
1400
24FC
7F44
A544
2944
2948
3128
2928
2510
2210
2528
28C4
3084
ENDCHAR
STARTCHAR U_4F2F
ENCODING 20271
SWIDTH 1000 0
DWIDTH 15 0
BBX 14 14 0 -1
BITMAP
1040
1040
2088
23FC
2208
6208
A208
23F8
2208
2208
2208
2208
23F8
2208
ENDCHAR
STARTCHAR U_4F30
ENCODING 20272
SWIDTH 1000 0
DWIDTH 15 0
BBX 14 14 0 -1
BITMAP
1080
1080
1080
2088
2FFC
6080
A080
27F0
2410
2410
2410
2410
27F0
2410
ENDCHAR
STARTCHAR U_4F31
ENCODING 20273
SWIDTH 1000 0
DWIDTH 15 0
BBX 14 14 0 -1
BITMAP
1080
1080
2140
6220
A410
288C
2080
22A0
2290
2488
2888
2088
2280
2100
ENDCHAR
STARTCHAR U_4F32
ENCODING 20274
SWIDTH 1000 0
DWIDTH 15 0
BBX 14 14 0 -1
BITMAP
1008
17FC
2408
2408
27F8
6400
A480
2488
2490
24E0
2480
2884
2884
207C
ENDCHAR
STARTCHAR U_4F33
ENCODING 20275
SWIDTH 1000 0
DWIDTH 15 0
BBX 14 14 0 -1
BITMAP
1090
1090
2490
6490
A490
3FFC
2490
2490
2490
2490
24F0
2400
2400
27FC
ENDCHAR
STARTCHAR U_4F34
ENCODING 20276
SWIDTH 1000 0
DWIDTH 15 0
BBX 14 14 0 -1
BITMAP
1080
1090
2498
22A0
2080
67F8
A080
2080
2080
2FFC
2080
2080
2080
2080
ENDCHAR
STARTCHAR U_4F35
ENCODING 20277
SWIDTH 1000 0
DWIDTH 15 0
BBX 14 14 0 -1
BITMAP
1000
1008
27FC
6548
A548
2548
2548
2548
2548
2638
2408
2408
27F8
2408
ENDCHAR
STARTCHAR U_4F36
ENCODING 20278
SWIDTH 1000 0
DWIDTH 15 0
BBX 14 14 0 -1
BITMAP
1080
1080
2140
2120
2210
6488
A844
2000
23F8
2010
2020
21C0
2040
2020
ENDCHAR
STARTCHAR U_4F37
ENCODING 20279
SWIDTH 1000 0
DWIDTH 15 0
BBX 13 14 0 -1
BITMAP
1080
1080
2080
6090
A7F8
2490
2490
2490
27F0
2490
2490
2490
27F0
2410
ENDCHAR
STARTCHAR U_4F38
ENCODING 20280
SWIDTH 1000 0
DWIDTH 15 0
BBX 13 14 0 -1
BITMAP
1040
1040
1040
27F8
2448
6448
A7F8
2448
2448
27F8
2448
2040
2040
2040
ENDCHAR
STARTCHAR U_4F39
ENCODING 20281
SWIDTH 1000 0
DWIDTH 15 0
BBX 14 14 0 -1
BITMAP
1000
1010
23F8
6210
A210
23F0
2210
2210
2210
23F0
2210
2210
2210
2FFC
ENDCHAR
STARTCHAR U_4F3A
ENCODING 20282
SWIDTH 1000 0
DWIDTH 15 0
BBX 14 14 0 -1
BITMAP
1008
17FC
2008
2048
2FE8
6008
A7C8
2448
2448
27C8
2448
2008
2028
2010
ENDCHAR
STARTCHAR U_4F3B
ENCODING 20283
SWIDTH 1000 0
DWIDTH 15 0
BBX 14 14 0 -1
BITMAP
1010
17F8
2080
6490
A290
22A0
2088
2FFC
2080
2080
2080
2080
2080
2080
ENDCHAR
STARTCHAR U_4F3C
ENCODING 20284
SWIDTH 1000 0
DWIDTH 15 0
BBX 14 14 0 -1
BITMAP
1000
1010
2410
2510
2490
6490
A410
2410
2410
24B0
2728
2448
2084
2304
ENDCHAR
STARTCHAR U_4F3D
ENCODING 20285
SWIDTH 1000 0
DWIDTH 15 0
BBX 14 14 0 -1
BITMAP
2400
2400
243C
2FA4
24A4
64A4
A4A4
24A4
24A4
24A4
24A4
28A4
2ABC
3124
ENDCHAR
STARTCHAR U_4F3E
ENCODING 20286
SWIDTH 1000 0
DWIDTH 15 0
BBX 14 14 0 -1
BITMAP
1008
17FC
2020
6040
A0C0
2150
2248
2444
2844
2040
2040
2040
2FFC
2000
ENDCHAR
STARTCHAR U_4F3F
ENCODING 20287
SWIDTH 1000 0
DWIDTH 15 0
BBX 14 14 0 -1
BITMAP
1008
13FC
2208
6208
A208
2208
2208
23F8
2208
20A0
2090
2108
2204
2404
ENDCHAR
STARTCHAR U_4F40
ENCODING 20288
SWIDTH 1000 0
DWIDTH 15 0
BBX 13 14 0 -1
BITMAP
1000
17F0
2410
6410
A7F0
2400
2400
27F8
2408
2408
2408
2408
27F8
2408
ENDCHAR
STARTCHAR U_4F41
ENCODING 20289
SWIDTH 1000 0
DWIDTH 15 0
BBX 14 14 0 -1
BITMAP
1080
1080
2100
6120
A210
2408
2FFC
2004
27F8
2408
2408
2408
27F8
2408
ENDCHAR
STARTCHAR U_4F42
ENCODING 20290
SWIDTH 1000 0
DWIDTH 15 0
BBX 14 14 0 -1
BITMAP
1008
17FC
2040
6040
A040
2040
2278
2240
2240
2240
2240
2240
2248
2FFC
ENDCHAR
STARTCHAR U_4F43
ENCODING 20291
SWIDTH 1000 0
DWIDTH 15 0
BBX 13 14 0 -1
BITMAP
1000
1000
17F8
2488
2488
6488
A488
27F8
2488
2488
2488
2488
27F8
2408
ENDCHAR
STARTCHAR U_4F44
ENCODING 20292
SWIDTH 1000 0
DWIDTH 15 0
BBX 14 14 0 -1
BITMAP
0800
0A20
1220
2220
6FFC
A220
2220
23E0
2220
2220
2220
2220
23E0
2220
ENDCHAR
STARTCHAR U_4F45
ENCODING 20293
SWIDTH 1000 0
DWIDTH 15 0
BBX 14 14 0 -1
BITMAP
1080
1090
27F8
6080
A080
2088
2FFC
21A0
21A0
2290
2290
2488
2884
3080
ENDCHAR
STARTCHAR U_4F46
ENCODING 20294
SWIDTH 1000 0
DWIDTH 15 0
BBX 14 14 0 -1
BITMAP
1000
13F0
2210
2210
2210
63F0
A210
2210
2210
23F0
2210
2000
2008
2FFC
ENDCHAR
STARTCHAR U_4F47
ENCODING 20295
SWIDTH 1000 0
DWIDTH 15 0
BBX 14 14 0 -1
BITMAP
1080
1040
27FC
6404
A808
2000
27FC
2040
2040
2040
2040
2040
2140
2080
ENDCHAR
STARTCHAR U_4F48
ENCODING 20296
SWIDTH 1000 0
DWIDTH 15 0
BBX 14 14 0 -1
BITMAP
1080
1088
2FFC
6100
A140
2248
27FC
2A48
3248
2248
2248
2268
2250
2040
ENDCHAR
STARTCHAR U_4F49
ENCODING 20297
SWIDTH 1000 0
DWIDTH 15 0
BBX 14 14 0 -1
BITMAP
1080
1080
2090
67F8
A080
2080
2088
2FFC
2100
2100
2220
2210
27F8
2408
ENDCHAR
STARTCHAR U_4F4A
ENCODING 20298
SWIDTH 1000 0
DWIDTH 15 0
BBX 14 14 0 -1
BITMAP
0840
0840
0BFC
1244
3248
5240
93F8
1288
1288
1250
1250
1420
1450
198C
ENDCHAR
STARTCHAR U_4F4B
ENCODING 20299
SWIDTH 1000 0
DWIDTH 15 0
BBX 14 14 0 -1
BITMAP
1008
17FC
2108
6108
A108
2250
2420
2800
23F8
2208
2208
2208
23F8
2208
ENDCHAR
STARTCHAR U_4F4C
ENCODING 20300
SWIDTH 1000 0
DWIDTH 15 0
BBX 14 14 0 -1
BITMAP
1020
1120
2120
6124
A138
25E0
2520
2520
2520
2520
2524
25E4
2724
281C
ENDCHAR
STARTCHAR U_4F4D
ENCODING 20301
SWIDTH 1000 0
DWIDTH 15 0
BBX 14 14 0 -1
BITMAP
1100
1080
1000
27F8
2000
6010
A210
2210
2120
2120
2040
2000
2FFC
2000
ENDCHAR
STARTCHAR U_4F4E
ENCODING 20302
SWIDTH 1000 0
DWIDTH 15 0
BBX 14 14 0 -1
BITMAP
1000
1038
13E0
2220
2220
6220
A3FC
2220
2220
2220
2214
2294
234C
2224
ENDCHAR
STARTCHAR U_4F4F
ENCODING 20303
SWIDTH 1000 0
DWIDTH 15 0
BBX 13 14 0 -1
BITMAP
1100
1080
2080
2FF8
2080
6080
A080
2080
27F0
2080
2080
2080
2080
2FF8
ENDCHAR
STARTCHAR U_4F50
ENCODING 20304
SWIDTH 1000 0
DWIDTH 15 0
BBX 14 14 0 -1
BITMAP
1080
1080
1080
27FC
2080
6100
A100
21F8
2240
2440
2840
2040
2040
27FC
ENDCHAR
STARTCHAR U_4F51
ENCODING 20305
SWIDTH 1000 0
DWIDTH 15 0
BBX 14 14 0 -1
BITMAP
1040
1040
2048
27FC
2080
6080
A100
21F8
2308
2508
2108
2108
21F8
2108
ENDCHAR
STARTCHAR U_4F52
ENCODING 20306
SWIDTH 1000 0
DWIDTH 15 0
BBX 14 14 0 -1
BITMAP
1080
1080
2090
67F8
A490
2490
2490
2490
3FFC
2080
2140
2220
2410
280C
ENDCHAR
STARTCHAR U_4F53
ENCODING 20307
SWIDTH 1000 0
DWIDTH 15 0
BBX 14 14 0 -1
BITMAP
1080
1080
1080
2FFC
2080
61C0
A1C0
22A0
2490
2888
37F4
2080
2080
2080
ENDCHAR
STARTCHAR U_4F54
ENCODING 20308
SWIDTH 1000 0
DWIDTH 15 0
BBX 13 14 0 -1
BITMAP
1100
1100
2110
61F8
A100
2100
2100
27F0
2410
2410
2410
2410
27F0
2410
ENDCHAR
STARTCHAR U_4F55
ENCODING 20309
SWIDTH 1000 0
DWIDTH 15 0
BBX 14 14 0 -1
BITMAP
1000
1000
27FC
2010
2010
63D0
A250
2250
2250
23D0
2250
2010
2050
2020
ENDCHAR
STARTCHAR U_4F56
ENCODING 20310
SWIDTH 1000 0
DWIDTH 15 0
BBX 14 14 0 -1
BITMAP
1100
1080
2250
6250
A210
2A20
2A20
2A48
3244
2284
2304
2610
3A10
21F0
ENDCHAR
STARTCHAR U_4F57
ENCODING 20311
SWIDTH 1000 0
DWIDTH 15 0
BBX 14 14 0 -1
BITMAP
1080
1040
2244
23FC
2208
6408
A100
2110
2160
2180
2104
2104
2104
20FC
ENDCHAR
STARTCHAR U_4F58
ENCODING 20312
SWIDTH 1000 0
DWIDTH 15 0
BBX 13 14 0 -1
BITMAP
0200
0200
0500
0880
3060
CF98
0000
7FF0
0200
1240
1220
2230
4A10
0400
ENDCHAR
STARTCHAR U_4F59
ENCODING 20313
SWIDTH 1000 0
DWIDTH 15 0
BBX 13 14 0 -1
BITMAP
0200
0600
0900
1080
2060
DF98
0200
0200
7FF8
0200
1240
2230
4A10
0400
ENDCHAR
STARTCHAR U_4F5A
ENCODING 20314
SWIDTH 1000 0
DWIDTH 15 0
BBX 14 14 0 -1
BITMAP
1040
1240
2250
23F8
2440
6440
A048
27FC
2040
20A0
20A0
2110
220C
2408
ENDCHAR
STARTCHAR U_4F5B
ENCODING 20315
SWIDTH 1000 0
DWIDTH 15 0
BBX 13 14 0 -1
BITMAP
1240
1240
2FF8
2248
6248
AFF8
2A40
2A40
2FF8
2248
2248
2268
2450
2840
ENDCHAR
STARTCHAR U_4F5C
ENCODING 20316
SWIDTH 1000 0
DWIDTH 15 0
BBX 13 14 0 -1
BITMAP
1100
1100
2210
23F8
2500
6900
A1F0
2100
2100
2100
21F8
2100
2100
2100
ENDCHAR
STARTCHAR U_4F5D
ENCODING 20317
SWIDTH 1000 0
DWIDTH 15 0
BBX 13 14 0 -1
BITMAP
1200
1200
2400
27F8
2808
7008
A3C8
2248
2248
2248
23C8
2248
2028
2010
ENDCHAR
STARTCHAR U_4F5E
ENCODING 20318
SWIDTH 1000 0
DWIDTH 15 0
BBX 14 14 0 -1
BITMAP
1020
17F0
2000
2008
2FFC
6100
A100
2FFC
2220
2420
2340
20C0
2138
2E0C
ENDCHAR
STARTCHAR U_4F5F
ENCODING 20319
SWIDTH 1000 0
DWIDTH 15 0
BBX 14 14 0 -1
BITMAP
1100
1110
21F8
2310
22A0
6440
A060
2090
210C
2660
2020
2000
20E0
2030
ENDCHAR
STARTCHAR U_4F60
ENCODING 20320
SWIDTH 1000 0
DWIDTH 15 0
BBX 14 14 0 -1
BITMAP
1100
1100
1208
23FC
2408
6890
A080
22A0
2290
2490
2488
2888
2280
2100
ENDCHAR
STARTCHAR U_4F61
ENCODING 20321
SWIDTH 1000 0
DWIDTH 15 0
BBX 14 14 0 -1
BITMAP
1100
1100
2280
6240
A420
2810
310C
2100
2920
2920
2920
2920
2FE0
2820
ENDCHAR
STARTCHAR U_4F62
ENCODING 20322
SWIDTH 1000 0
DWIDTH 15 0
BBX 14 14 0 -1
BITMAP
1010
17F8
2400
6400
A400
27F0
2410
2410
2410
27F0
2400
2400
2408
27FC
ENDCHAR
STARTCHAR U_4F63
ENCODING 20323
SWIDTH 1000 0
DWIDTH 15 0
BBX 14 14 0 -1
BITMAP
1000
13FC
2244
2244
2244
63FC
A244
2244
23FC
2244
2244
2444
2454
2848
ENDCHAR
STARTCHAR U_4F64
ENCODING 20324
SWIDTH 1000 0
DWIDTH 15 0
BBX 14 14 0 -1
BITMAP
1008
17FC
2100
2120
23F0
6220
A220
22A0
2260
2220
2424
2424
2724
2C1C
ENDCHAR
STARTCHAR U_4F65
ENCODING 20325
SWIDTH 1000 0
DWIDTH 15 0
BBX 13 14 0 -1
BITMAP
0200
0200
0500
0880
1040
20A0
DFD8
0000
0460
2240
2240
1280
1090
FFF8
ENDCHAR
STARTCHAR U_4F66
ENCODING 20326
SWIDTH 1000 0
DWIDTH 15 0
BBX 14 14 0 -1
BITMAP
1008
17FC
2080
6080
A100
2100
2208
27FC
2A08
3208
2208
2208
23F8
2208
ENDCHAR
STARTCHAR U_4F67
ENCODING 20327
SWIDTH 1000 0
DWIDTH 15 0
BBX 14 14 0 -1
BITMAP
1100
1100
2100
21F0
2100
6100
AFFC
2100
2140
2130
2110
2100
2100
2100
ENDCHAR
STARTCHAR U_4F68
ENCODING 20328
SWIDTH 1000 0
DWIDTH 15 0
BBX 14 14 0 -1
BITMAP
1200
1208
23FC
6208
A408
2BE8
3228
2228
23E8
2208
2210
2204
2204
21FC
ENDCHAR
STARTCHAR U_4F69
ENCODING 20329
SWIDTH 1000 0
DWIDTH 15 0
BBX 14 14 0 -1
BITMAP
2000
3FF0
5010
57D0
5110
D110
57D0
5550
5550
5550
5554
55D4
5114
610C
ENDCHAR
STARTCHAR U_4F6A
ENCODING 20330
SWIDTH 1000 0
DWIDTH 15 0
BBX 14 14 0 -1
BITMAP
1008
17FC
2408
6408
A5E8
2528
2528
2528
2528
25E8
2408
2408
27F8
2408
ENDCHAR
STARTCHAR U_4F6B
ENCODING 20331
SWIDTH 1000 0
DWIDTH 15 0
BBX 14 14 0 -1
BITMAP
1200
1200
23F0
6610
AA20
2140
2080
2160
261C
3BF0
2210
2210
23F0
2210
ENDCHAR
STARTCHAR U_4F6C
ENCODING 20332
SWIDTH 1000 0
DWIDTH 15 0
BBX 14 14 0 -1
BITMAP
1080
1080
17E4
2088
2090
2FFC
6040
A080
2110
2320
25C0
2908
2108
20F8
ENDCHAR
STARTCHAR U_4F6D
ENCODING 20333
SWIDTH 1000 0
DWIDTH 15 0
BBX 14 14 0 -1
BITMAP
1220
13F0
2620
6940
A080
2160
2698
3884
27F0
2480
2480
2FF8
2080
2080
ENDCHAR
STARTCHAR U_4F6E
ENCODING 20334
SWIDTH 1000 0
DWIDTH 15 0
BBX 14 14 0 -1
BITMAP
1080
1080
2140
6140
A220
2410
2BEC
3000
2000
27F0
2410
2410
27F0
2410
ENDCHAR
STARTCHAR U_4F6F
ENCODING 20335
SWIDTH 1000 0
DWIDTH 15 0
BBX 14 14 0 -1
BITMAP
1110
1090
20A0
27FC
2040
6040
A3F8
2040
2040
27FC
2040
2040
2040
2040
ENDCHAR
STARTCHAR U_4F70
ENCODING 20336
SWIDTH 1000 0
DWIDTH 15 0
BBX 14 14 0 -1
BITMAP
1008
17FC
1040
2040
2080
63F8
A208
2208
23F8
2208
2208
2208
23F8
2208
ENDCHAR
STARTCHAR U_4F71
ENCODING 20337
SWIDTH 1000 0
DWIDTH 15 0
BBX 14 14 0 -1
BITMAP
0200
0200
0500
0880
1040
2FA0
C01C
0008
3FF0
0200
13C0
1200
1200
FFF8
ENDCHAR
STARTCHAR U_4F72
ENCODING 20338
SWIDTH 1000 0
DWIDTH 15 0
BBX 13 14 0 -1
BITMAP
1100
1100
21F8
6208
A510
28A0
2040
2080
23F8
2608
3A08
2208
23F8
2208
ENDCHAR
STARTCHAR U_4F73
ENCODING 20339
SWIDTH 1000 0
DWIDTH 15 0
BBX 14 14 0 -1
BITMAP
1040
1040
13F8
2040
2040
6040
A7FC
2040
2040
23F8
2040
2040
2040
27FC
ENDCHAR
ENDFONT
